G04 #@! TF.GenerationSoftware,KiCad,Pcbnew,(5.1.2)-2*
G04 #@! TF.CreationDate,2019-11-25T16:57:55+01:00*
G04 #@! TF.ProjectId,nanoSAMD21E18v1,6e616e6f-5341-44d4-9432-314531387631,rev?*
G04 #@! TF.SameCoordinates,Original*
G04 #@! TF.FileFunction,Copper,L2,Bot*
G04 #@! TF.FilePolarity,Positive*
%FSLAX46Y46*%
G04 Gerber Fmt 4.6, Leading zero omitted, Abs format (unit mm)*
G04 Created by KiCad (PCBNEW (5.1.2)-2) date 2019-11-25 16:57:55*
%MOMM*%
%LPD*%
G04 APERTURE LIST*
%ADD10C,0.100000*%
%ADD11C,0.950000*%
%ADD12O,1.700000X1.700000*%
%ADD13R,1.700000X1.700000*%
%ADD14R,1.000000X1.000000*%
%ADD15O,1.000000X1.000000*%
%ADD16O,1.500000X1.100000*%
%ADD17O,1.700000X1.350000*%
%ADD18C,1.000000*%
%ADD19C,0.800000*%
%ADD20C,0.300000*%
%ADD21C,0.200000*%
G04 APERTURE END LIST*
D10*
G36*
X142627779Y-90013144D02*
G01*
X142650834Y-90016563D01*
X142673443Y-90022227D01*
X142695387Y-90030079D01*
X142716457Y-90040044D01*
X142736448Y-90052026D01*
X142755168Y-90065910D01*
X142772438Y-90081562D01*
X142788090Y-90098832D01*
X142801974Y-90117552D01*
X142813956Y-90137543D01*
X142823921Y-90158613D01*
X142831773Y-90180557D01*
X142837437Y-90203166D01*
X142840856Y-90226221D01*
X142842000Y-90249500D01*
X142842000Y-90824500D01*
X142840856Y-90847779D01*
X142837437Y-90870834D01*
X142831773Y-90893443D01*
X142823921Y-90915387D01*
X142813956Y-90936457D01*
X142801974Y-90956448D01*
X142788090Y-90975168D01*
X142772438Y-90992438D01*
X142755168Y-91008090D01*
X142736448Y-91021974D01*
X142716457Y-91033956D01*
X142695387Y-91043921D01*
X142673443Y-91051773D01*
X142650834Y-91057437D01*
X142627779Y-91060856D01*
X142604500Y-91062000D01*
X142129500Y-91062000D01*
X142106221Y-91060856D01*
X142083166Y-91057437D01*
X142060557Y-91051773D01*
X142038613Y-91043921D01*
X142017543Y-91033956D01*
X141997552Y-91021974D01*
X141978832Y-91008090D01*
X141961562Y-90992438D01*
X141945910Y-90975168D01*
X141932026Y-90956448D01*
X141920044Y-90936457D01*
X141910079Y-90915387D01*
X141902227Y-90893443D01*
X141896563Y-90870834D01*
X141893144Y-90847779D01*
X141892000Y-90824500D01*
X141892000Y-90249500D01*
X141893144Y-90226221D01*
X141896563Y-90203166D01*
X141902227Y-90180557D01*
X141910079Y-90158613D01*
X141920044Y-90137543D01*
X141932026Y-90117552D01*
X141945910Y-90098832D01*
X141961562Y-90081562D01*
X141978832Y-90065910D01*
X141997552Y-90052026D01*
X142017543Y-90040044D01*
X142038613Y-90030079D01*
X142060557Y-90022227D01*
X142083166Y-90016563D01*
X142106221Y-90013144D01*
X142129500Y-90012000D01*
X142604500Y-90012000D01*
X142627779Y-90013144D01*
X142627779Y-90013144D01*
G37*
D11*
X142367000Y-90537000D03*
D10*
G36*
X142627779Y-88263144D02*
G01*
X142650834Y-88266563D01*
X142673443Y-88272227D01*
X142695387Y-88280079D01*
X142716457Y-88290044D01*
X142736448Y-88302026D01*
X142755168Y-88315910D01*
X142772438Y-88331562D01*
X142788090Y-88348832D01*
X142801974Y-88367552D01*
X142813956Y-88387543D01*
X142823921Y-88408613D01*
X142831773Y-88430557D01*
X142837437Y-88453166D01*
X142840856Y-88476221D01*
X142842000Y-88499500D01*
X142842000Y-89074500D01*
X142840856Y-89097779D01*
X142837437Y-89120834D01*
X142831773Y-89143443D01*
X142823921Y-89165387D01*
X142813956Y-89186457D01*
X142801974Y-89206448D01*
X142788090Y-89225168D01*
X142772438Y-89242438D01*
X142755168Y-89258090D01*
X142736448Y-89271974D01*
X142716457Y-89283956D01*
X142695387Y-89293921D01*
X142673443Y-89301773D01*
X142650834Y-89307437D01*
X142627779Y-89310856D01*
X142604500Y-89312000D01*
X142129500Y-89312000D01*
X142106221Y-89310856D01*
X142083166Y-89307437D01*
X142060557Y-89301773D01*
X142038613Y-89293921D01*
X142017543Y-89283956D01*
X141997552Y-89271974D01*
X141978832Y-89258090D01*
X141961562Y-89242438D01*
X141945910Y-89225168D01*
X141932026Y-89206448D01*
X141920044Y-89186457D01*
X141910079Y-89165387D01*
X141902227Y-89143443D01*
X141896563Y-89120834D01*
X141893144Y-89097779D01*
X141892000Y-89074500D01*
X141892000Y-88499500D01*
X141893144Y-88476221D01*
X141896563Y-88453166D01*
X141902227Y-88430557D01*
X141910079Y-88408613D01*
X141920044Y-88387543D01*
X141932026Y-88367552D01*
X141945910Y-88348832D01*
X141961562Y-88331562D01*
X141978832Y-88315910D01*
X141997552Y-88302026D01*
X142017543Y-88290044D01*
X142038613Y-88280079D01*
X142060557Y-88272227D01*
X142083166Y-88266563D01*
X142106221Y-88263144D01*
X142129500Y-88262000D01*
X142604500Y-88262000D01*
X142627779Y-88263144D01*
X142627779Y-88263144D01*
G37*
D11*
X142367000Y-88787000D03*
D10*
G36*
X144532779Y-90013144D02*
G01*
X144555834Y-90016563D01*
X144578443Y-90022227D01*
X144600387Y-90030079D01*
X144621457Y-90040044D01*
X144641448Y-90052026D01*
X144660168Y-90065910D01*
X144677438Y-90081562D01*
X144693090Y-90098832D01*
X144706974Y-90117552D01*
X144718956Y-90137543D01*
X144728921Y-90158613D01*
X144736773Y-90180557D01*
X144742437Y-90203166D01*
X144745856Y-90226221D01*
X144747000Y-90249500D01*
X144747000Y-90824500D01*
X144745856Y-90847779D01*
X144742437Y-90870834D01*
X144736773Y-90893443D01*
X144728921Y-90915387D01*
X144718956Y-90936457D01*
X144706974Y-90956448D01*
X144693090Y-90975168D01*
X144677438Y-90992438D01*
X144660168Y-91008090D01*
X144641448Y-91021974D01*
X144621457Y-91033956D01*
X144600387Y-91043921D01*
X144578443Y-91051773D01*
X144555834Y-91057437D01*
X144532779Y-91060856D01*
X144509500Y-91062000D01*
X144034500Y-91062000D01*
X144011221Y-91060856D01*
X143988166Y-91057437D01*
X143965557Y-91051773D01*
X143943613Y-91043921D01*
X143922543Y-91033956D01*
X143902552Y-91021974D01*
X143883832Y-91008090D01*
X143866562Y-90992438D01*
X143850910Y-90975168D01*
X143837026Y-90956448D01*
X143825044Y-90936457D01*
X143815079Y-90915387D01*
X143807227Y-90893443D01*
X143801563Y-90870834D01*
X143798144Y-90847779D01*
X143797000Y-90824500D01*
X143797000Y-90249500D01*
X143798144Y-90226221D01*
X143801563Y-90203166D01*
X143807227Y-90180557D01*
X143815079Y-90158613D01*
X143825044Y-90137543D01*
X143837026Y-90117552D01*
X143850910Y-90098832D01*
X143866562Y-90081562D01*
X143883832Y-90065910D01*
X143902552Y-90052026D01*
X143922543Y-90040044D01*
X143943613Y-90030079D01*
X143965557Y-90022227D01*
X143988166Y-90016563D01*
X144011221Y-90013144D01*
X144034500Y-90012000D01*
X144509500Y-90012000D01*
X144532779Y-90013144D01*
X144532779Y-90013144D01*
G37*
D11*
X144272000Y-90537000D03*
D10*
G36*
X144532779Y-88263144D02*
G01*
X144555834Y-88266563D01*
X144578443Y-88272227D01*
X144600387Y-88280079D01*
X144621457Y-88290044D01*
X144641448Y-88302026D01*
X144660168Y-88315910D01*
X144677438Y-88331562D01*
X144693090Y-88348832D01*
X144706974Y-88367552D01*
X144718956Y-88387543D01*
X144728921Y-88408613D01*
X144736773Y-88430557D01*
X144742437Y-88453166D01*
X144745856Y-88476221D01*
X144747000Y-88499500D01*
X144747000Y-89074500D01*
X144745856Y-89097779D01*
X144742437Y-89120834D01*
X144736773Y-89143443D01*
X144728921Y-89165387D01*
X144718956Y-89186457D01*
X144706974Y-89206448D01*
X144693090Y-89225168D01*
X144677438Y-89242438D01*
X144660168Y-89258090D01*
X144641448Y-89271974D01*
X144621457Y-89283956D01*
X144600387Y-89293921D01*
X144578443Y-89301773D01*
X144555834Y-89307437D01*
X144532779Y-89310856D01*
X144509500Y-89312000D01*
X144034500Y-89312000D01*
X144011221Y-89310856D01*
X143988166Y-89307437D01*
X143965557Y-89301773D01*
X143943613Y-89293921D01*
X143922543Y-89283956D01*
X143902552Y-89271974D01*
X143883832Y-89258090D01*
X143866562Y-89242438D01*
X143850910Y-89225168D01*
X143837026Y-89206448D01*
X143825044Y-89186457D01*
X143815079Y-89165387D01*
X143807227Y-89143443D01*
X143801563Y-89120834D01*
X143798144Y-89097779D01*
X143797000Y-89074500D01*
X143797000Y-88499500D01*
X143798144Y-88476221D01*
X143801563Y-88453166D01*
X143807227Y-88430557D01*
X143815079Y-88408613D01*
X143825044Y-88387543D01*
X143837026Y-88367552D01*
X143850910Y-88348832D01*
X143866562Y-88331562D01*
X143883832Y-88315910D01*
X143902552Y-88302026D01*
X143922543Y-88290044D01*
X143943613Y-88280079D01*
X143965557Y-88272227D01*
X143988166Y-88266563D01*
X144011221Y-88263144D01*
X144034500Y-88262000D01*
X144509500Y-88262000D01*
X144532779Y-88263144D01*
X144532779Y-88263144D01*
G37*
D11*
X144272000Y-88787000D03*
D12*
X163830000Y-86106000D03*
X161290000Y-86106000D03*
X158750000Y-86106000D03*
X156210000Y-86106000D03*
X153670000Y-86106000D03*
X151130000Y-86106000D03*
D13*
X148590000Y-86106000D03*
D12*
X140970000Y-86106000D03*
X138430000Y-86106000D03*
X135890000Y-86106000D03*
X133350000Y-86106000D03*
X130810000Y-86106000D03*
X128270000Y-86106000D03*
D13*
X125730000Y-86106000D03*
D12*
X163830000Y-101346000D03*
X161290000Y-101346000D03*
X158750000Y-101346000D03*
X156210000Y-101346000D03*
X153670000Y-101346000D03*
X151130000Y-101346000D03*
D13*
X148590000Y-101346000D03*
D12*
X140970000Y-101346000D03*
X138430000Y-101346000D03*
X135890000Y-101346000D03*
X133350000Y-101346000D03*
X130810000Y-101346000D03*
X128270000Y-101346000D03*
D13*
X125730000Y-101346000D03*
D10*
G36*
X149045916Y-97801131D02*
G01*
X149068971Y-97804550D01*
X149091580Y-97810214D01*
X149113524Y-97818066D01*
X149134594Y-97828031D01*
X149154585Y-97840013D01*
X149173305Y-97853897D01*
X149190575Y-97869549D01*
X149526451Y-98205425D01*
X149542103Y-98222695D01*
X149555987Y-98241415D01*
X149567969Y-98261406D01*
X149577934Y-98282476D01*
X149585786Y-98304420D01*
X149591450Y-98327029D01*
X149594869Y-98350084D01*
X149596013Y-98373363D01*
X149594869Y-98396642D01*
X149591450Y-98419697D01*
X149585786Y-98442306D01*
X149577934Y-98464250D01*
X149567969Y-98485320D01*
X149555987Y-98505311D01*
X149542103Y-98524031D01*
X149526451Y-98541301D01*
X149119865Y-98947887D01*
X149102595Y-98963539D01*
X149083875Y-98977423D01*
X149063884Y-98989405D01*
X149042814Y-98999370D01*
X149020870Y-99007222D01*
X148998261Y-99012886D01*
X148975206Y-99016305D01*
X148951927Y-99017449D01*
X148928648Y-99016305D01*
X148905593Y-99012886D01*
X148882984Y-99007222D01*
X148861040Y-98999370D01*
X148839970Y-98989405D01*
X148819979Y-98977423D01*
X148801259Y-98963539D01*
X148783989Y-98947887D01*
X148448113Y-98612011D01*
X148432461Y-98594741D01*
X148418577Y-98576021D01*
X148406595Y-98556030D01*
X148396630Y-98534960D01*
X148388778Y-98513016D01*
X148383114Y-98490407D01*
X148379695Y-98467352D01*
X148378551Y-98444073D01*
X148379695Y-98420794D01*
X148383114Y-98397739D01*
X148388778Y-98375130D01*
X148396630Y-98353186D01*
X148406595Y-98332116D01*
X148418577Y-98312125D01*
X148432461Y-98293405D01*
X148448113Y-98276135D01*
X148854699Y-97869549D01*
X148871969Y-97853897D01*
X148890689Y-97840013D01*
X148910680Y-97828031D01*
X148931750Y-97818066D01*
X148953694Y-97810214D01*
X148976303Y-97804550D01*
X148999358Y-97801131D01*
X149022637Y-97799987D01*
X149045916Y-97801131D01*
X149045916Y-97801131D01*
G37*
D11*
X148987282Y-98408718D03*
D10*
G36*
X150283352Y-96563695D02*
G01*
X150306407Y-96567114D01*
X150329016Y-96572778D01*
X150350960Y-96580630D01*
X150372030Y-96590595D01*
X150392021Y-96602577D01*
X150410741Y-96616461D01*
X150428011Y-96632113D01*
X150763887Y-96967989D01*
X150779539Y-96985259D01*
X150793423Y-97003979D01*
X150805405Y-97023970D01*
X150815370Y-97045040D01*
X150823222Y-97066984D01*
X150828886Y-97089593D01*
X150832305Y-97112648D01*
X150833449Y-97135927D01*
X150832305Y-97159206D01*
X150828886Y-97182261D01*
X150823222Y-97204870D01*
X150815370Y-97226814D01*
X150805405Y-97247884D01*
X150793423Y-97267875D01*
X150779539Y-97286595D01*
X150763887Y-97303865D01*
X150357301Y-97710451D01*
X150340031Y-97726103D01*
X150321311Y-97739987D01*
X150301320Y-97751969D01*
X150280250Y-97761934D01*
X150258306Y-97769786D01*
X150235697Y-97775450D01*
X150212642Y-97778869D01*
X150189363Y-97780013D01*
X150166084Y-97778869D01*
X150143029Y-97775450D01*
X150120420Y-97769786D01*
X150098476Y-97761934D01*
X150077406Y-97751969D01*
X150057415Y-97739987D01*
X150038695Y-97726103D01*
X150021425Y-97710451D01*
X149685549Y-97374575D01*
X149669897Y-97357305D01*
X149656013Y-97338585D01*
X149644031Y-97318594D01*
X149634066Y-97297524D01*
X149626214Y-97275580D01*
X149620550Y-97252971D01*
X149617131Y-97229916D01*
X149615987Y-97206637D01*
X149617131Y-97183358D01*
X149620550Y-97160303D01*
X149626214Y-97137694D01*
X149634066Y-97115750D01*
X149644031Y-97094680D01*
X149656013Y-97074689D01*
X149669897Y-97055969D01*
X149685549Y-97038699D01*
X150092135Y-96632113D01*
X150109405Y-96616461D01*
X150128125Y-96602577D01*
X150148116Y-96590595D01*
X150169186Y-96580630D01*
X150191130Y-96572778D01*
X150213739Y-96567114D01*
X150236794Y-96563695D01*
X150260073Y-96562551D01*
X150283352Y-96563695D01*
X150283352Y-96563695D01*
G37*
D11*
X150224718Y-97171282D03*
D14*
X164592000Y-91186000D03*
D15*
X165862000Y-91186000D03*
X164592000Y-92456000D03*
X165862000Y-92456000D03*
X164592000Y-93726000D03*
X165862000Y-93726000D03*
X164592000Y-94996000D03*
X165862000Y-94996000D03*
X164592000Y-96266000D03*
X165862000Y-96266000D03*
D16*
X125329000Y-91281000D03*
X125329000Y-96121000D03*
D17*
X122329000Y-90971000D03*
X122329000Y-96431000D03*
D18*
X152146000Y-90932000D03*
X153489503Y-89588497D03*
D19*
X148987282Y-98408718D03*
X126945000Y-92400998D03*
X147066000Y-99568000D03*
X136906000Y-88772996D03*
X146050000Y-94361000D03*
X142747993Y-85852007D03*
X145654994Y-85964994D03*
X134366000Y-98351594D03*
X135382000Y-97992808D03*
X135188730Y-95946758D03*
X137160000Y-98298000D03*
X152908000Y-97917000D03*
X147209902Y-92795300D03*
X154813000Y-97917000D03*
X146394011Y-92247010D03*
X138938000Y-98298000D03*
X137922000Y-97282000D03*
X160020000Y-99314000D03*
X143129000Y-95250000D03*
X146544816Y-93515081D03*
X140815840Y-98125990D03*
X136928222Y-90047216D03*
X145034000Y-92202000D03*
X147701002Y-88360010D03*
X145024964Y-93290954D03*
X150241002Y-90043000D03*
X133436274Y-97734109D03*
X135115420Y-94969492D03*
X147066000Y-95504000D03*
D20*
X126945000Y-91835313D02*
X126945000Y-92400998D01*
X126746000Y-91636313D02*
X126945000Y-91835313D01*
X126746000Y-88272000D02*
X126746000Y-91636313D01*
X125730000Y-86106000D02*
X125730000Y-87256000D01*
X125730000Y-87256000D02*
X126746000Y-88272000D01*
D21*
X162052000Y-100076000D02*
X165862000Y-96266000D01*
X147066000Y-99568000D02*
X147574000Y-100076000D01*
X147574000Y-100076000D02*
X162052000Y-100076000D01*
X144780000Y-99568000D02*
X147066000Y-99568000D01*
X144018000Y-98806000D02*
X144780000Y-99568000D01*
X140462000Y-98806000D02*
X144018000Y-98806000D01*
X128270000Y-86106000D02*
X128270000Y-86614000D01*
X128270000Y-86614000D02*
X140462000Y-98806000D01*
D20*
X138430000Y-86600000D02*
X142367000Y-90537000D01*
X138430000Y-86106000D02*
X138430000Y-86600000D01*
X144272000Y-90537000D02*
X143270000Y-90537000D01*
X143270000Y-90537000D02*
X142367000Y-90537000D01*
X142653002Y-94519998D02*
X145891002Y-94519998D01*
X145891002Y-94519998D02*
X146050000Y-94361000D01*
X136906000Y-88772996D02*
X142653002Y-94519998D01*
X164592000Y-90297000D02*
X164592000Y-91186000D01*
X161925000Y-87630000D02*
X164592000Y-90297000D01*
X144101418Y-87630000D02*
X161925000Y-87630000D01*
X143270000Y-90537000D02*
X143270000Y-88461418D01*
X143270000Y-88461418D02*
X144101418Y-87630000D01*
D21*
X142748000Y-85852000D02*
X142747993Y-85852007D01*
X145654994Y-85964994D02*
X145542000Y-85852000D01*
X145542000Y-85852000D02*
X142748000Y-85852000D01*
X128270000Y-101346000D02*
X130891998Y-98724002D01*
X133800315Y-98351594D02*
X134366000Y-98351594D01*
X133427907Y-98724002D02*
X133800315Y-98351594D01*
X130891998Y-98724002D02*
X133427907Y-98724002D01*
X135382000Y-98558493D02*
X135382000Y-97992808D01*
X133350000Y-101346000D02*
X135382000Y-99314000D01*
X135382000Y-99314000D02*
X135382000Y-98558493D01*
X136099987Y-98273807D02*
X136099987Y-96858015D01*
X136099987Y-96858015D02*
X135588729Y-96346757D01*
X135890000Y-98483794D02*
X136099987Y-98273807D01*
X135588729Y-96346757D02*
X135188730Y-95946758D01*
X135890000Y-101346000D02*
X135890000Y-98483794D01*
X140208000Y-101346000D02*
X137160000Y-98298000D01*
X140970000Y-101346000D02*
X140208000Y-101346000D01*
X152331602Y-97917000D02*
X147609901Y-93195299D01*
X152908000Y-97917000D02*
X152331602Y-97917000D01*
X147609901Y-93195299D02*
X147209902Y-92795300D01*
X154813000Y-97917000D02*
X148743011Y-91847011D01*
X148743011Y-91847011D02*
X146794010Y-91847011D01*
X146794010Y-91847011D02*
X146394011Y-92247010D01*
X158750000Y-101346000D02*
X157619999Y-102476001D01*
X146926001Y-102476001D02*
X143764000Y-99314000D01*
X139337999Y-98697999D02*
X138938000Y-98298000D01*
X157619999Y-102476001D02*
X146926001Y-102476001D01*
X143764000Y-99314000D02*
X139954000Y-99314000D01*
X139954000Y-99314000D02*
X139337999Y-98697999D01*
X137922000Y-97282000D02*
X137922000Y-98298000D01*
X137922000Y-98298000D02*
X139446000Y-99822000D01*
X139446000Y-99822000D02*
X143510000Y-99822000D01*
X143510000Y-99822000D02*
X146544012Y-102856012D01*
X161290000Y-102362000D02*
X161290000Y-101346000D01*
X146544012Y-102856012D02*
X160795988Y-102856012D01*
X160795988Y-102856012D02*
X161290000Y-102362000D01*
X143764000Y-95250000D02*
X143694685Y-95250000D01*
X147828000Y-99314000D02*
X143764000Y-95250000D01*
X143694685Y-95250000D02*
X143129000Y-95250000D01*
X160020000Y-99314000D02*
X147828000Y-99314000D01*
X165862000Y-90478894D02*
X165862000Y-91186000D01*
X137160000Y-86508402D02*
X137160000Y-85598000D01*
X136853201Y-86815201D02*
X137160000Y-86508402D01*
X137160000Y-85598000D02*
X137795989Y-84962011D01*
X137795989Y-84962011D02*
X164358413Y-84962011D01*
X164358413Y-84962011D02*
X165862000Y-86465598D01*
X165862000Y-86465598D02*
X165862000Y-90478894D01*
X136292402Y-87376000D02*
X136853201Y-86815201D01*
X130810000Y-86106000D02*
X132080000Y-87376000D01*
X132080000Y-87376000D02*
X136292402Y-87376000D01*
X145297598Y-93980000D02*
X145762517Y-93515081D01*
X145762517Y-93515081D02*
X146544816Y-93515081D01*
X136853201Y-86815201D02*
X136599201Y-87069201D01*
X136599201Y-87069201D02*
X143510000Y-93980000D01*
X143510000Y-93980000D02*
X145297598Y-93980000D01*
X137414000Y-84582000D02*
X136739999Y-85256001D01*
X164592000Y-84582000D02*
X137414000Y-84582000D01*
X166642001Y-86632001D02*
X164592000Y-84582000D01*
X166642001Y-91675999D02*
X166642001Y-86632001D01*
X136739999Y-85256001D02*
X135890000Y-86106000D01*
X165862000Y-92456000D02*
X166642001Y-91675999D01*
X137328221Y-90447215D02*
X136928222Y-90047216D01*
X140815840Y-93934834D02*
X137328221Y-90447215D01*
X140815840Y-98125990D02*
X140815840Y-93934834D01*
X140970000Y-87390000D02*
X142367000Y-88787000D01*
X140970000Y-86106000D02*
X140970000Y-87390000D01*
X147274012Y-88787000D02*
X147301003Y-88760009D01*
X147301003Y-88760009D02*
X147701002Y-88360010D01*
X144272000Y-88787000D02*
X147274012Y-88787000D01*
X145034000Y-92202000D02*
X145034000Y-91027012D01*
X145034000Y-91027012D02*
X147301003Y-88760009D01*
X145714001Y-91902997D02*
X147573998Y-90043000D01*
X145714001Y-92601917D02*
X145714001Y-91902997D01*
X145024964Y-93290954D02*
X145714001Y-92601917D01*
X147573998Y-90043000D02*
X149675317Y-90043000D01*
X149675317Y-90043000D02*
X150241002Y-90043000D01*
X132870589Y-97734109D02*
X133436274Y-97734109D01*
X125730000Y-100296000D02*
X128291891Y-97734109D01*
X125730000Y-101346000D02*
X125730000Y-100296000D01*
X128291891Y-97734109D02*
X132870589Y-97734109D01*
X136479998Y-96231622D02*
X135217868Y-94969492D01*
X135217868Y-94969492D02*
X135115420Y-94969492D01*
X136479998Y-99395998D02*
X136479998Y-96231622D01*
X138430000Y-101346000D02*
X136479998Y-99395998D01*
X150224718Y-97171282D02*
X148733282Y-97171282D01*
X148733282Y-97171282D02*
X147066000Y-95504000D01*
M02*
