G04 #@! TF.GenerationSoftware,KiCad,Pcbnew,(5.1.2)-2*
G04 #@! TF.CreationDate,2019-11-25T16:57:55+01:00*
G04 #@! TF.ProjectId,nanoSAMD21E18v1,6e616e6f-5341-44d4-9432-314531387631,rev?*
G04 #@! TF.SameCoordinates,Original*
G04 #@! TF.FileFunction,Soldermask,Top*
G04 #@! TF.FilePolarity,Negative*
%FSLAX46Y46*%
G04 Gerber Fmt 4.6, Leading zero omitted, Abs format (unit mm)*
G04 Created by KiCad (PCBNEW (5.1.2)-2) date 2019-11-25 16:57:55*
%MOMM*%
%LPD*%
G04 APERTURE LIST*
%ADD10C,0.100000*%
G04 APERTURE END LIST*
D10*
G36*
X146069499Y-102094445D02*
G01*
X146106995Y-102105820D01*
X146141554Y-102124292D01*
X146171847Y-102149153D01*
X146196708Y-102179446D01*
X146215180Y-102214005D01*
X146226555Y-102251501D01*
X146231000Y-102296638D01*
X146231000Y-102935362D01*
X146226555Y-102980499D01*
X146215180Y-103017995D01*
X146196708Y-103052554D01*
X146171847Y-103082847D01*
X146141554Y-103107708D01*
X146106995Y-103126180D01*
X146069499Y-103137555D01*
X146024362Y-103142000D01*
X145285638Y-103142000D01*
X145240501Y-103137555D01*
X145203005Y-103126180D01*
X145168446Y-103107708D01*
X145138153Y-103082847D01*
X145113292Y-103052554D01*
X145094820Y-103017995D01*
X145083445Y-102980499D01*
X145079000Y-102935362D01*
X145079000Y-102296638D01*
X145083445Y-102251501D01*
X145094820Y-102214005D01*
X145113292Y-102179446D01*
X145138153Y-102149153D01*
X145168446Y-102124292D01*
X145203005Y-102105820D01*
X145240501Y-102094445D01*
X145285638Y-102090000D01*
X146024362Y-102090000D01*
X146069499Y-102094445D01*
X146069499Y-102094445D01*
G37*
G36*
X144319499Y-102094445D02*
G01*
X144356995Y-102105820D01*
X144391554Y-102124292D01*
X144421847Y-102149153D01*
X144446708Y-102179446D01*
X144465180Y-102214005D01*
X144476555Y-102251501D01*
X144481000Y-102296638D01*
X144481000Y-102935362D01*
X144476555Y-102980499D01*
X144465180Y-103017995D01*
X144446708Y-103052554D01*
X144421847Y-103082847D01*
X144391554Y-103107708D01*
X144356995Y-103126180D01*
X144319499Y-103137555D01*
X144274362Y-103142000D01*
X143535638Y-103142000D01*
X143490501Y-103137555D01*
X143453005Y-103126180D01*
X143418446Y-103107708D01*
X143388153Y-103082847D01*
X143363292Y-103052554D01*
X143344820Y-103017995D01*
X143333445Y-102980499D01*
X143329000Y-102935362D01*
X143329000Y-102296638D01*
X143333445Y-102251501D01*
X143344820Y-102214005D01*
X143363292Y-102179446D01*
X143388153Y-102149153D01*
X143418446Y-102124292D01*
X143453005Y-102105820D01*
X143490501Y-102094445D01*
X143535638Y-102090000D01*
X144274362Y-102090000D01*
X144319499Y-102094445D01*
X144319499Y-102094445D01*
G37*
G36*
X151240443Y-100451519D02*
G01*
X151306627Y-100458037D01*
X151476466Y-100509557D01*
X151632991Y-100593222D01*
X151668729Y-100622552D01*
X151770186Y-100705814D01*
X151853448Y-100807271D01*
X151882778Y-100843009D01*
X151966443Y-100999534D01*
X152017963Y-101169373D01*
X152035359Y-101346000D01*
X152017963Y-101522627D01*
X151966443Y-101692466D01*
X151882778Y-101848991D01*
X151853448Y-101884729D01*
X151770186Y-101986186D01*
X151668729Y-102069448D01*
X151632991Y-102098778D01*
X151476466Y-102182443D01*
X151306627Y-102233963D01*
X151240443Y-102240481D01*
X151174260Y-102247000D01*
X151085740Y-102247000D01*
X151019557Y-102240481D01*
X150953373Y-102233963D01*
X150783534Y-102182443D01*
X150627009Y-102098778D01*
X150591271Y-102069448D01*
X150489814Y-101986186D01*
X150406552Y-101884729D01*
X150377222Y-101848991D01*
X150293557Y-101692466D01*
X150242037Y-101522627D01*
X150224641Y-101346000D01*
X150242037Y-101169373D01*
X150293557Y-100999534D01*
X150377222Y-100843009D01*
X150406552Y-100807271D01*
X150489814Y-100705814D01*
X150591271Y-100622552D01*
X150627009Y-100593222D01*
X150783534Y-100509557D01*
X150953373Y-100458037D01*
X151019557Y-100451519D01*
X151085740Y-100445000D01*
X151174260Y-100445000D01*
X151240443Y-100451519D01*
X151240443Y-100451519D01*
G37*
G36*
X163940443Y-100451519D02*
G01*
X164006627Y-100458037D01*
X164176466Y-100509557D01*
X164332991Y-100593222D01*
X164368729Y-100622552D01*
X164470186Y-100705814D01*
X164553448Y-100807271D01*
X164582778Y-100843009D01*
X164666443Y-100999534D01*
X164717963Y-101169373D01*
X164735359Y-101346000D01*
X164717963Y-101522627D01*
X164666443Y-101692466D01*
X164582778Y-101848991D01*
X164553448Y-101884729D01*
X164470186Y-101986186D01*
X164368729Y-102069448D01*
X164332991Y-102098778D01*
X164176466Y-102182443D01*
X164006627Y-102233963D01*
X163940443Y-102240481D01*
X163874260Y-102247000D01*
X163785740Y-102247000D01*
X163719557Y-102240481D01*
X163653373Y-102233963D01*
X163483534Y-102182443D01*
X163327009Y-102098778D01*
X163291271Y-102069448D01*
X163189814Y-101986186D01*
X163106552Y-101884729D01*
X163077222Y-101848991D01*
X162993557Y-101692466D01*
X162942037Y-101522627D01*
X162924641Y-101346000D01*
X162942037Y-101169373D01*
X162993557Y-100999534D01*
X163077222Y-100843009D01*
X163106552Y-100807271D01*
X163189814Y-100705814D01*
X163291271Y-100622552D01*
X163327009Y-100593222D01*
X163483534Y-100509557D01*
X163653373Y-100458037D01*
X163719557Y-100451519D01*
X163785740Y-100445000D01*
X163874260Y-100445000D01*
X163940443Y-100451519D01*
X163940443Y-100451519D01*
G37*
G36*
X161400443Y-100451519D02*
G01*
X161466627Y-100458037D01*
X161636466Y-100509557D01*
X161792991Y-100593222D01*
X161828729Y-100622552D01*
X161930186Y-100705814D01*
X162013448Y-100807271D01*
X162042778Y-100843009D01*
X162126443Y-100999534D01*
X162177963Y-101169373D01*
X162195359Y-101346000D01*
X162177963Y-101522627D01*
X162126443Y-101692466D01*
X162042778Y-101848991D01*
X162013448Y-101884729D01*
X161930186Y-101986186D01*
X161828729Y-102069448D01*
X161792991Y-102098778D01*
X161636466Y-102182443D01*
X161466627Y-102233963D01*
X161400443Y-102240481D01*
X161334260Y-102247000D01*
X161245740Y-102247000D01*
X161179557Y-102240481D01*
X161113373Y-102233963D01*
X160943534Y-102182443D01*
X160787009Y-102098778D01*
X160751271Y-102069448D01*
X160649814Y-101986186D01*
X160566552Y-101884729D01*
X160537222Y-101848991D01*
X160453557Y-101692466D01*
X160402037Y-101522627D01*
X160384641Y-101346000D01*
X160402037Y-101169373D01*
X160453557Y-100999534D01*
X160537222Y-100843009D01*
X160566552Y-100807271D01*
X160649814Y-100705814D01*
X160751271Y-100622552D01*
X160787009Y-100593222D01*
X160943534Y-100509557D01*
X161113373Y-100458037D01*
X161179557Y-100451519D01*
X161245740Y-100445000D01*
X161334260Y-100445000D01*
X161400443Y-100451519D01*
X161400443Y-100451519D01*
G37*
G36*
X158860443Y-100451519D02*
G01*
X158926627Y-100458037D01*
X159096466Y-100509557D01*
X159252991Y-100593222D01*
X159288729Y-100622552D01*
X159390186Y-100705814D01*
X159473448Y-100807271D01*
X159502778Y-100843009D01*
X159586443Y-100999534D01*
X159637963Y-101169373D01*
X159655359Y-101346000D01*
X159637963Y-101522627D01*
X159586443Y-101692466D01*
X159502778Y-101848991D01*
X159473448Y-101884729D01*
X159390186Y-101986186D01*
X159288729Y-102069448D01*
X159252991Y-102098778D01*
X159096466Y-102182443D01*
X158926627Y-102233963D01*
X158860443Y-102240481D01*
X158794260Y-102247000D01*
X158705740Y-102247000D01*
X158639557Y-102240481D01*
X158573373Y-102233963D01*
X158403534Y-102182443D01*
X158247009Y-102098778D01*
X158211271Y-102069448D01*
X158109814Y-101986186D01*
X158026552Y-101884729D01*
X157997222Y-101848991D01*
X157913557Y-101692466D01*
X157862037Y-101522627D01*
X157844641Y-101346000D01*
X157862037Y-101169373D01*
X157913557Y-100999534D01*
X157997222Y-100843009D01*
X158026552Y-100807271D01*
X158109814Y-100705814D01*
X158211271Y-100622552D01*
X158247009Y-100593222D01*
X158403534Y-100509557D01*
X158573373Y-100458037D01*
X158639557Y-100451519D01*
X158705740Y-100445000D01*
X158794260Y-100445000D01*
X158860443Y-100451519D01*
X158860443Y-100451519D01*
G37*
G36*
X156320443Y-100451519D02*
G01*
X156386627Y-100458037D01*
X156556466Y-100509557D01*
X156712991Y-100593222D01*
X156748729Y-100622552D01*
X156850186Y-100705814D01*
X156933448Y-100807271D01*
X156962778Y-100843009D01*
X157046443Y-100999534D01*
X157097963Y-101169373D01*
X157115359Y-101346000D01*
X157097963Y-101522627D01*
X157046443Y-101692466D01*
X156962778Y-101848991D01*
X156933448Y-101884729D01*
X156850186Y-101986186D01*
X156748729Y-102069448D01*
X156712991Y-102098778D01*
X156556466Y-102182443D01*
X156386627Y-102233963D01*
X156320443Y-102240481D01*
X156254260Y-102247000D01*
X156165740Y-102247000D01*
X156099557Y-102240481D01*
X156033373Y-102233963D01*
X155863534Y-102182443D01*
X155707009Y-102098778D01*
X155671271Y-102069448D01*
X155569814Y-101986186D01*
X155486552Y-101884729D01*
X155457222Y-101848991D01*
X155373557Y-101692466D01*
X155322037Y-101522627D01*
X155304641Y-101346000D01*
X155322037Y-101169373D01*
X155373557Y-100999534D01*
X155457222Y-100843009D01*
X155486552Y-100807271D01*
X155569814Y-100705814D01*
X155671271Y-100622552D01*
X155707009Y-100593222D01*
X155863534Y-100509557D01*
X156033373Y-100458037D01*
X156099557Y-100451519D01*
X156165740Y-100445000D01*
X156254260Y-100445000D01*
X156320443Y-100451519D01*
X156320443Y-100451519D01*
G37*
G36*
X153780443Y-100451519D02*
G01*
X153846627Y-100458037D01*
X154016466Y-100509557D01*
X154172991Y-100593222D01*
X154208729Y-100622552D01*
X154310186Y-100705814D01*
X154393448Y-100807271D01*
X154422778Y-100843009D01*
X154506443Y-100999534D01*
X154557963Y-101169373D01*
X154575359Y-101346000D01*
X154557963Y-101522627D01*
X154506443Y-101692466D01*
X154422778Y-101848991D01*
X154393448Y-101884729D01*
X154310186Y-101986186D01*
X154208729Y-102069448D01*
X154172991Y-102098778D01*
X154016466Y-102182443D01*
X153846627Y-102233963D01*
X153780443Y-102240481D01*
X153714260Y-102247000D01*
X153625740Y-102247000D01*
X153559557Y-102240481D01*
X153493373Y-102233963D01*
X153323534Y-102182443D01*
X153167009Y-102098778D01*
X153131271Y-102069448D01*
X153029814Y-101986186D01*
X152946552Y-101884729D01*
X152917222Y-101848991D01*
X152833557Y-101692466D01*
X152782037Y-101522627D01*
X152764641Y-101346000D01*
X152782037Y-101169373D01*
X152833557Y-100999534D01*
X152917222Y-100843009D01*
X152946552Y-100807271D01*
X153029814Y-100705814D01*
X153131271Y-100622552D01*
X153167009Y-100593222D01*
X153323534Y-100509557D01*
X153493373Y-100458037D01*
X153559557Y-100451519D01*
X153625740Y-100445000D01*
X153714260Y-100445000D01*
X153780443Y-100451519D01*
X153780443Y-100451519D01*
G37*
G36*
X149491000Y-102247000D02*
G01*
X147689000Y-102247000D01*
X147689000Y-100445000D01*
X149491000Y-100445000D01*
X149491000Y-102247000D01*
X149491000Y-102247000D01*
G37*
G36*
X141080443Y-100451519D02*
G01*
X141146627Y-100458037D01*
X141316466Y-100509557D01*
X141472991Y-100593222D01*
X141508729Y-100622552D01*
X141610186Y-100705814D01*
X141693448Y-100807271D01*
X141722778Y-100843009D01*
X141806443Y-100999534D01*
X141857963Y-101169373D01*
X141875359Y-101346000D01*
X141857963Y-101522627D01*
X141806443Y-101692466D01*
X141722778Y-101848991D01*
X141693448Y-101884729D01*
X141610186Y-101986186D01*
X141508729Y-102069448D01*
X141472991Y-102098778D01*
X141316466Y-102182443D01*
X141146627Y-102233963D01*
X141080443Y-102240481D01*
X141014260Y-102247000D01*
X140925740Y-102247000D01*
X140859557Y-102240481D01*
X140793373Y-102233963D01*
X140623534Y-102182443D01*
X140467009Y-102098778D01*
X140431271Y-102069448D01*
X140329814Y-101986186D01*
X140246552Y-101884729D01*
X140217222Y-101848991D01*
X140133557Y-101692466D01*
X140082037Y-101522627D01*
X140064641Y-101346000D01*
X140082037Y-101169373D01*
X140133557Y-100999534D01*
X140217222Y-100843009D01*
X140246552Y-100807271D01*
X140329814Y-100705814D01*
X140431271Y-100622552D01*
X140467009Y-100593222D01*
X140623534Y-100509557D01*
X140793373Y-100458037D01*
X140859557Y-100451519D01*
X140925740Y-100445000D01*
X141014260Y-100445000D01*
X141080443Y-100451519D01*
X141080443Y-100451519D01*
G37*
G36*
X138540443Y-100451519D02*
G01*
X138606627Y-100458037D01*
X138776466Y-100509557D01*
X138932991Y-100593222D01*
X138968729Y-100622552D01*
X139070186Y-100705814D01*
X139153448Y-100807271D01*
X139182778Y-100843009D01*
X139266443Y-100999534D01*
X139317963Y-101169373D01*
X139335359Y-101346000D01*
X139317963Y-101522627D01*
X139266443Y-101692466D01*
X139182778Y-101848991D01*
X139153448Y-101884729D01*
X139070186Y-101986186D01*
X138968729Y-102069448D01*
X138932991Y-102098778D01*
X138776466Y-102182443D01*
X138606627Y-102233963D01*
X138540443Y-102240481D01*
X138474260Y-102247000D01*
X138385740Y-102247000D01*
X138319557Y-102240481D01*
X138253373Y-102233963D01*
X138083534Y-102182443D01*
X137927009Y-102098778D01*
X137891271Y-102069448D01*
X137789814Y-101986186D01*
X137706552Y-101884729D01*
X137677222Y-101848991D01*
X137593557Y-101692466D01*
X137542037Y-101522627D01*
X137524641Y-101346000D01*
X137542037Y-101169373D01*
X137593557Y-100999534D01*
X137677222Y-100843009D01*
X137706552Y-100807271D01*
X137789814Y-100705814D01*
X137891271Y-100622552D01*
X137927009Y-100593222D01*
X138083534Y-100509557D01*
X138253373Y-100458037D01*
X138319557Y-100451519D01*
X138385740Y-100445000D01*
X138474260Y-100445000D01*
X138540443Y-100451519D01*
X138540443Y-100451519D01*
G37*
G36*
X136000443Y-100451519D02*
G01*
X136066627Y-100458037D01*
X136236466Y-100509557D01*
X136392991Y-100593222D01*
X136428729Y-100622552D01*
X136530186Y-100705814D01*
X136613448Y-100807271D01*
X136642778Y-100843009D01*
X136726443Y-100999534D01*
X136777963Y-101169373D01*
X136795359Y-101346000D01*
X136777963Y-101522627D01*
X136726443Y-101692466D01*
X136642778Y-101848991D01*
X136613448Y-101884729D01*
X136530186Y-101986186D01*
X136428729Y-102069448D01*
X136392991Y-102098778D01*
X136236466Y-102182443D01*
X136066627Y-102233963D01*
X136000443Y-102240481D01*
X135934260Y-102247000D01*
X135845740Y-102247000D01*
X135779557Y-102240481D01*
X135713373Y-102233963D01*
X135543534Y-102182443D01*
X135387009Y-102098778D01*
X135351271Y-102069448D01*
X135249814Y-101986186D01*
X135166552Y-101884729D01*
X135137222Y-101848991D01*
X135053557Y-101692466D01*
X135002037Y-101522627D01*
X134984641Y-101346000D01*
X135002037Y-101169373D01*
X135053557Y-100999534D01*
X135137222Y-100843009D01*
X135166552Y-100807271D01*
X135249814Y-100705814D01*
X135351271Y-100622552D01*
X135387009Y-100593222D01*
X135543534Y-100509557D01*
X135713373Y-100458037D01*
X135779557Y-100451519D01*
X135845740Y-100445000D01*
X135934260Y-100445000D01*
X136000443Y-100451519D01*
X136000443Y-100451519D01*
G37*
G36*
X133460443Y-100451519D02*
G01*
X133526627Y-100458037D01*
X133696466Y-100509557D01*
X133852991Y-100593222D01*
X133888729Y-100622552D01*
X133990186Y-100705814D01*
X134073448Y-100807271D01*
X134102778Y-100843009D01*
X134186443Y-100999534D01*
X134237963Y-101169373D01*
X134255359Y-101346000D01*
X134237963Y-101522627D01*
X134186443Y-101692466D01*
X134102778Y-101848991D01*
X134073448Y-101884729D01*
X133990186Y-101986186D01*
X133888729Y-102069448D01*
X133852991Y-102098778D01*
X133696466Y-102182443D01*
X133526627Y-102233963D01*
X133460443Y-102240481D01*
X133394260Y-102247000D01*
X133305740Y-102247000D01*
X133239557Y-102240481D01*
X133173373Y-102233963D01*
X133003534Y-102182443D01*
X132847009Y-102098778D01*
X132811271Y-102069448D01*
X132709814Y-101986186D01*
X132626552Y-101884729D01*
X132597222Y-101848991D01*
X132513557Y-101692466D01*
X132462037Y-101522627D01*
X132444641Y-101346000D01*
X132462037Y-101169373D01*
X132513557Y-100999534D01*
X132597222Y-100843009D01*
X132626552Y-100807271D01*
X132709814Y-100705814D01*
X132811271Y-100622552D01*
X132847009Y-100593222D01*
X133003534Y-100509557D01*
X133173373Y-100458037D01*
X133239557Y-100451519D01*
X133305740Y-100445000D01*
X133394260Y-100445000D01*
X133460443Y-100451519D01*
X133460443Y-100451519D01*
G37*
G36*
X130920443Y-100451519D02*
G01*
X130986627Y-100458037D01*
X131156466Y-100509557D01*
X131312991Y-100593222D01*
X131348729Y-100622552D01*
X131450186Y-100705814D01*
X131533448Y-100807271D01*
X131562778Y-100843009D01*
X131646443Y-100999534D01*
X131697963Y-101169373D01*
X131715359Y-101346000D01*
X131697963Y-101522627D01*
X131646443Y-101692466D01*
X131562778Y-101848991D01*
X131533448Y-101884729D01*
X131450186Y-101986186D01*
X131348729Y-102069448D01*
X131312991Y-102098778D01*
X131156466Y-102182443D01*
X130986627Y-102233963D01*
X130920443Y-102240481D01*
X130854260Y-102247000D01*
X130765740Y-102247000D01*
X130699557Y-102240481D01*
X130633373Y-102233963D01*
X130463534Y-102182443D01*
X130307009Y-102098778D01*
X130271271Y-102069448D01*
X130169814Y-101986186D01*
X130086552Y-101884729D01*
X130057222Y-101848991D01*
X129973557Y-101692466D01*
X129922037Y-101522627D01*
X129904641Y-101346000D01*
X129922037Y-101169373D01*
X129973557Y-100999534D01*
X130057222Y-100843009D01*
X130086552Y-100807271D01*
X130169814Y-100705814D01*
X130271271Y-100622552D01*
X130307009Y-100593222D01*
X130463534Y-100509557D01*
X130633373Y-100458037D01*
X130699557Y-100451519D01*
X130765740Y-100445000D01*
X130854260Y-100445000D01*
X130920443Y-100451519D01*
X130920443Y-100451519D01*
G37*
G36*
X128380443Y-100451519D02*
G01*
X128446627Y-100458037D01*
X128616466Y-100509557D01*
X128772991Y-100593222D01*
X128808729Y-100622552D01*
X128910186Y-100705814D01*
X128993448Y-100807271D01*
X129022778Y-100843009D01*
X129106443Y-100999534D01*
X129157963Y-101169373D01*
X129175359Y-101346000D01*
X129157963Y-101522627D01*
X129106443Y-101692466D01*
X129022778Y-101848991D01*
X128993448Y-101884729D01*
X128910186Y-101986186D01*
X128808729Y-102069448D01*
X128772991Y-102098778D01*
X128616466Y-102182443D01*
X128446627Y-102233963D01*
X128380443Y-102240481D01*
X128314260Y-102247000D01*
X128225740Y-102247000D01*
X128159557Y-102240481D01*
X128093373Y-102233963D01*
X127923534Y-102182443D01*
X127767009Y-102098778D01*
X127731271Y-102069448D01*
X127629814Y-101986186D01*
X127546552Y-101884729D01*
X127517222Y-101848991D01*
X127433557Y-101692466D01*
X127382037Y-101522627D01*
X127364641Y-101346000D01*
X127382037Y-101169373D01*
X127433557Y-100999534D01*
X127517222Y-100843009D01*
X127546552Y-100807271D01*
X127629814Y-100705814D01*
X127731271Y-100622552D01*
X127767009Y-100593222D01*
X127923534Y-100509557D01*
X128093373Y-100458037D01*
X128159557Y-100451519D01*
X128225740Y-100445000D01*
X128314260Y-100445000D01*
X128380443Y-100451519D01*
X128380443Y-100451519D01*
G37*
G36*
X126631000Y-102247000D02*
G01*
X124829000Y-102247000D01*
X124829000Y-100445000D01*
X126631000Y-100445000D01*
X126631000Y-102247000D01*
X126631000Y-102247000D01*
G37*
G36*
X146069499Y-100316445D02*
G01*
X146106995Y-100327820D01*
X146141554Y-100346292D01*
X146171847Y-100371153D01*
X146196708Y-100401446D01*
X146215180Y-100436005D01*
X146226555Y-100473501D01*
X146231000Y-100518638D01*
X146231000Y-101157362D01*
X146226555Y-101202499D01*
X146215180Y-101239995D01*
X146196708Y-101274554D01*
X146171847Y-101304847D01*
X146141554Y-101329708D01*
X146106995Y-101348180D01*
X146069499Y-101359555D01*
X146024362Y-101364000D01*
X145285638Y-101364000D01*
X145240501Y-101359555D01*
X145203005Y-101348180D01*
X145168446Y-101329708D01*
X145138153Y-101304847D01*
X145113292Y-101274554D01*
X145094820Y-101239995D01*
X145083445Y-101202499D01*
X145079000Y-101157362D01*
X145079000Y-100518638D01*
X145083445Y-100473501D01*
X145094820Y-100436005D01*
X145113292Y-100401446D01*
X145138153Y-100371153D01*
X145168446Y-100346292D01*
X145203005Y-100327820D01*
X145240501Y-100316445D01*
X145285638Y-100312000D01*
X146024362Y-100312000D01*
X146069499Y-100316445D01*
X146069499Y-100316445D01*
G37*
G36*
X144319499Y-100316445D02*
G01*
X144356995Y-100327820D01*
X144391554Y-100346292D01*
X144421847Y-100371153D01*
X144446708Y-100401446D01*
X144465180Y-100436005D01*
X144476555Y-100473501D01*
X144481000Y-100518638D01*
X144481000Y-101157362D01*
X144476555Y-101202499D01*
X144465180Y-101239995D01*
X144446708Y-101274554D01*
X144421847Y-101304847D01*
X144391554Y-101329708D01*
X144356995Y-101348180D01*
X144319499Y-101359555D01*
X144274362Y-101364000D01*
X143535638Y-101364000D01*
X143490501Y-101359555D01*
X143453005Y-101348180D01*
X143418446Y-101329708D01*
X143388153Y-101304847D01*
X143363292Y-101274554D01*
X143344820Y-101239995D01*
X143333445Y-101202499D01*
X143329000Y-101157362D01*
X143329000Y-100518638D01*
X143333445Y-100473501D01*
X143344820Y-100436005D01*
X143363292Y-100401446D01*
X143388153Y-100371153D01*
X143418446Y-100346292D01*
X143453005Y-100327820D01*
X143490501Y-100316445D01*
X143535638Y-100312000D01*
X144274362Y-100312000D01*
X144319499Y-100316445D01*
X144319499Y-100316445D01*
G37*
G36*
X140627162Y-94380074D02*
G01*
X140627162Y-94380075D01*
X140643426Y-94396339D01*
X140643432Y-94396344D01*
X140731814Y-94484726D01*
X140731814Y-94484725D01*
X141192848Y-94945759D01*
X141192848Y-94945760D01*
X141281230Y-95034142D01*
X141281235Y-95034148D01*
X141297499Y-95050412D01*
X141297499Y-95050411D01*
X141758533Y-95511445D01*
X141758533Y-95511446D01*
X141863184Y-95616097D01*
X141863184Y-95616096D01*
X142324218Y-96077130D01*
X142324218Y-96077131D01*
X142428870Y-96181783D01*
X142428870Y-96181782D01*
X142889904Y-96642816D01*
X142889904Y-96642817D01*
X142994555Y-96747468D01*
X142994555Y-96747467D01*
X143455589Y-97208501D01*
X143455589Y-97208502D01*
X143471853Y-97224766D01*
X143471859Y-97224771D01*
X143560241Y-97313153D01*
X143560241Y-97313152D01*
X144021275Y-97774186D01*
X144021275Y-97774187D01*
X144109657Y-97862569D01*
X144109662Y-97862575D01*
X144125926Y-97878839D01*
X144125926Y-97878838D01*
X144586960Y-98339872D01*
X143383464Y-99543368D01*
X142922430Y-99082334D01*
X142922431Y-99082334D01*
X142834049Y-98993952D01*
X142834044Y-98993946D01*
X142817780Y-98977682D01*
X142817779Y-98977682D01*
X142356745Y-98516648D01*
X142356746Y-98516648D01*
X142340482Y-98500384D01*
X142340476Y-98500379D01*
X142252094Y-98411997D01*
X142252093Y-98411997D01*
X141791059Y-97950963D01*
X141791060Y-97950963D01*
X141686409Y-97846312D01*
X141686408Y-97846312D01*
X141225374Y-97385278D01*
X141225375Y-97385278D01*
X141120723Y-97280626D01*
X141120722Y-97280626D01*
X140659688Y-96819592D01*
X140659689Y-96819592D01*
X140555038Y-96714941D01*
X140555037Y-96714941D01*
X140094003Y-96253907D01*
X140094004Y-96253907D01*
X140005622Y-96165525D01*
X140005617Y-96165519D01*
X139989353Y-96149255D01*
X139989352Y-96149255D01*
X139528318Y-95688221D01*
X139528319Y-95688221D01*
X139512055Y-95671957D01*
X139512049Y-95671952D01*
X139423667Y-95583570D01*
X139423666Y-95583570D01*
X138962632Y-95122536D01*
X140166128Y-93919040D01*
X140627162Y-94380074D01*
X140627162Y-94380074D01*
G37*
G36*
X150597368Y-95122536D02*
G01*
X150136334Y-95583570D01*
X150031682Y-95688221D01*
X149570648Y-96149255D01*
X149465997Y-96253907D01*
X147307907Y-98411997D01*
X147203255Y-98516648D01*
X146742221Y-98977682D01*
X146637570Y-99082334D01*
X146176536Y-99543368D01*
X144973040Y-98339872D01*
X145434074Y-97878838D01*
X145434075Y-97878839D01*
X145450339Y-97862575D01*
X145450348Y-97862564D01*
X145538726Y-97774187D01*
X145538725Y-97774186D01*
X145999759Y-97313152D01*
X145999760Y-97313153D01*
X146088137Y-97224775D01*
X146088148Y-97224766D01*
X146104412Y-97208502D01*
X146104411Y-97208501D01*
X146565445Y-96747467D01*
X146565446Y-96747468D01*
X146653833Y-96659080D01*
X146670097Y-96642817D01*
X146670096Y-96642816D01*
X147131130Y-96181782D01*
X147131131Y-96181783D01*
X147235783Y-96077131D01*
X147235782Y-96077130D01*
X147696816Y-95616096D01*
X147696817Y-95616097D01*
X147785204Y-95527709D01*
X147801468Y-95511446D01*
X147801467Y-95511445D01*
X148262501Y-95050411D01*
X148262502Y-95050412D01*
X148278766Y-95034148D01*
X148278775Y-95034137D01*
X148367153Y-94945760D01*
X148367152Y-94945759D01*
X148828186Y-94484725D01*
X148828187Y-94484726D01*
X148916564Y-94396348D01*
X148916575Y-94396339D01*
X148932839Y-94380075D01*
X148932838Y-94380074D01*
X149393872Y-93919040D01*
X150597368Y-95122536D01*
X150597368Y-95122536D01*
G37*
G36*
X148918354Y-97733263D02*
G01*
X148955850Y-97744638D01*
X148990409Y-97763110D01*
X149025473Y-97791886D01*
X149477114Y-98243527D01*
X149505890Y-98278591D01*
X149524362Y-98313150D01*
X149535737Y-98350646D01*
X149539577Y-98389645D01*
X149535737Y-98428644D01*
X149524362Y-98466140D01*
X149505890Y-98500699D01*
X149477114Y-98535763D01*
X148954763Y-99058114D01*
X148919699Y-99086890D01*
X148885140Y-99105362D01*
X148847644Y-99116737D01*
X148808645Y-99120577D01*
X148769646Y-99116737D01*
X148732150Y-99105362D01*
X148697591Y-99086890D01*
X148662527Y-99058114D01*
X148210886Y-98606473D01*
X148182110Y-98571409D01*
X148163638Y-98536850D01*
X148152263Y-98499354D01*
X148148423Y-98460355D01*
X148152263Y-98421356D01*
X148163638Y-98383860D01*
X148182110Y-98349301D01*
X148210886Y-98314237D01*
X148733237Y-97791886D01*
X148768301Y-97763110D01*
X148802860Y-97744638D01*
X148840356Y-97733263D01*
X148879355Y-97729423D01*
X148918354Y-97733263D01*
X148918354Y-97733263D01*
G37*
G36*
X150155790Y-96495827D02*
G01*
X150193286Y-96507202D01*
X150227845Y-96525674D01*
X150262909Y-96554450D01*
X150714550Y-97006091D01*
X150743326Y-97041155D01*
X150761798Y-97075714D01*
X150773173Y-97113210D01*
X150777013Y-97152209D01*
X150773173Y-97191208D01*
X150761798Y-97228704D01*
X150743326Y-97263263D01*
X150714550Y-97298327D01*
X150192199Y-97820678D01*
X150157135Y-97849454D01*
X150122576Y-97867926D01*
X150085080Y-97879301D01*
X150046081Y-97883141D01*
X150007082Y-97879301D01*
X149969586Y-97867926D01*
X149935027Y-97849454D01*
X149899963Y-97820678D01*
X149448322Y-97369037D01*
X149419546Y-97333973D01*
X149401074Y-97299414D01*
X149389699Y-97261918D01*
X149385859Y-97222919D01*
X149389699Y-97183920D01*
X149401074Y-97146424D01*
X149419546Y-97111865D01*
X149448322Y-97076801D01*
X149970673Y-96554450D01*
X150005737Y-96525674D01*
X150040296Y-96507202D01*
X150077792Y-96495827D01*
X150116791Y-96491987D01*
X150155790Y-96495827D01*
X150155790Y-96495827D01*
G37*
G36*
X125646818Y-95528696D02*
G01*
X125699300Y-95544617D01*
X125723333Y-95549398D01*
X125735586Y-95550000D01*
X126130000Y-95550000D01*
X126130000Y-96085341D01*
X126130602Y-96097593D01*
X126132907Y-96121000D01*
X126130602Y-96144407D01*
X126130000Y-96156659D01*
X126130000Y-97652000D01*
X124534999Y-97652000D01*
X124510613Y-97654402D01*
X124487164Y-97661515D01*
X124481579Y-97664500D01*
X123608000Y-97664500D01*
X123608000Y-97301999D01*
X123605598Y-97277613D01*
X123598485Y-97254164D01*
X123586934Y-97232553D01*
X123571389Y-97213611D01*
X123552447Y-97198066D01*
X123530836Y-97186515D01*
X123507387Y-97179402D01*
X123483001Y-97177000D01*
X122154653Y-97177000D01*
X122152447Y-97175190D01*
X122130836Y-97163639D01*
X122107387Y-97156526D01*
X122095255Y-97154726D01*
X122011679Y-97146495D01*
X121874828Y-97104981D01*
X121874825Y-97104980D01*
X121748706Y-97037568D01*
X121638157Y-96946843D01*
X121547432Y-96836294D01*
X121480020Y-96710175D01*
X121464041Y-96657501D01*
X121438505Y-96573321D01*
X121424488Y-96431000D01*
X121438505Y-96288679D01*
X121480019Y-96151828D01*
X121480020Y-96151825D01*
X121547432Y-96025706D01*
X121638157Y-95915157D01*
X121748706Y-95824432D01*
X121874825Y-95757020D01*
X121883195Y-95754481D01*
X122011679Y-95715505D01*
X122082787Y-95708502D01*
X122118340Y-95705000D01*
X122539660Y-95705000D01*
X122646322Y-95715505D01*
X122659876Y-95719617D01*
X122683909Y-95724398D01*
X122696162Y-95725000D01*
X124403001Y-95725000D01*
X124427387Y-95722598D01*
X124450836Y-95715485D01*
X124472447Y-95703934D01*
X124491389Y-95688389D01*
X124506934Y-95669447D01*
X124518485Y-95647836D01*
X124525598Y-95624387D01*
X124528000Y-95600001D01*
X124528000Y-95550000D01*
X124922414Y-95550000D01*
X124946800Y-95547598D01*
X124958700Y-95544617D01*
X125011182Y-95528696D01*
X125099481Y-95520000D01*
X125558519Y-95520000D01*
X125646818Y-95528696D01*
X125646818Y-95528696D01*
G37*
G36*
X130349499Y-96252445D02*
G01*
X130386995Y-96263820D01*
X130421554Y-96282292D01*
X130451847Y-96307153D01*
X130476708Y-96337446D01*
X130495180Y-96372005D01*
X130506555Y-96409501D01*
X130511000Y-96454638D01*
X130511000Y-97093362D01*
X130506555Y-97138499D01*
X130495180Y-97175995D01*
X130476708Y-97210554D01*
X130451847Y-97240847D01*
X130421554Y-97265708D01*
X130386995Y-97284180D01*
X130349499Y-97295555D01*
X130304362Y-97300000D01*
X129565638Y-97300000D01*
X129520501Y-97295555D01*
X129483005Y-97284180D01*
X129448446Y-97265708D01*
X129418153Y-97240847D01*
X129393292Y-97210554D01*
X129374820Y-97175995D01*
X129363445Y-97138499D01*
X129359000Y-97093362D01*
X129359000Y-96454638D01*
X129363445Y-96409501D01*
X129374820Y-96372005D01*
X129393292Y-96337446D01*
X129418153Y-96307153D01*
X129448446Y-96282292D01*
X129483005Y-96263820D01*
X129520501Y-96252445D01*
X129565638Y-96248000D01*
X130304362Y-96248000D01*
X130349499Y-96252445D01*
X130349499Y-96252445D01*
G37*
G36*
X132099499Y-96252445D02*
G01*
X132136995Y-96263820D01*
X132171554Y-96282292D01*
X132201847Y-96307153D01*
X132226708Y-96337446D01*
X132245180Y-96372005D01*
X132256555Y-96409501D01*
X132261000Y-96454638D01*
X132261000Y-97093362D01*
X132256555Y-97138499D01*
X132245180Y-97175995D01*
X132226708Y-97210554D01*
X132201847Y-97240847D01*
X132171554Y-97265708D01*
X132136995Y-97284180D01*
X132099499Y-97295555D01*
X132054362Y-97300000D01*
X131315638Y-97300000D01*
X131270501Y-97295555D01*
X131233005Y-97284180D01*
X131198446Y-97265708D01*
X131168153Y-97240847D01*
X131143292Y-97210554D01*
X131124820Y-97175995D01*
X131113445Y-97138499D01*
X131109000Y-97093362D01*
X131109000Y-96454638D01*
X131113445Y-96409501D01*
X131124820Y-96372005D01*
X131143292Y-96337446D01*
X131168153Y-96307153D01*
X131198446Y-96282292D01*
X131233005Y-96263820D01*
X131270501Y-96252445D01*
X131315638Y-96248000D01*
X132054362Y-96248000D01*
X132099499Y-96252445D01*
X132099499Y-96252445D01*
G37*
G36*
X165143000Y-90863265D02*
G01*
X165145402Y-90887651D01*
X165152515Y-90911100D01*
X165164066Y-90932711D01*
X165179611Y-90951653D01*
X165198553Y-90967198D01*
X165220164Y-90978749D01*
X165243613Y-90985862D01*
X165267999Y-90988264D01*
X165292385Y-90985862D01*
X165315834Y-90978749D01*
X165337445Y-90967198D01*
X165356387Y-90951653D01*
X165371932Y-90932711D01*
X165378233Y-90922198D01*
X165401644Y-90878400D01*
X165470499Y-90794499D01*
X165473103Y-90792362D01*
X165554400Y-90725643D01*
X165623522Y-90688697D01*
X165650121Y-90674479D01*
X165753985Y-90642973D01*
X165834933Y-90635000D01*
X165889067Y-90635000D01*
X165970015Y-90642973D01*
X166073879Y-90674479D01*
X166100478Y-90688697D01*
X166169600Y-90725643D01*
X166253501Y-90794499D01*
X166322357Y-90878400D01*
X166358995Y-90946945D01*
X166373521Y-90974121D01*
X166405027Y-91077985D01*
X166415666Y-91186000D01*
X166405027Y-91294015D01*
X166373521Y-91397879D01*
X166373191Y-91398496D01*
X166322357Y-91493600D01*
X166253501Y-91577501D01*
X166169600Y-91646357D01*
X166101055Y-91682995D01*
X166073879Y-91697521D01*
X166061131Y-91701388D01*
X166038504Y-91710760D01*
X166018130Y-91724374D01*
X166000803Y-91741701D01*
X165987189Y-91762075D01*
X165977812Y-91784714D01*
X165973031Y-91808747D01*
X165973031Y-91833251D01*
X165977811Y-91857285D01*
X165987188Y-91879924D01*
X166000802Y-91900298D01*
X166018129Y-91917625D01*
X166038503Y-91931239D01*
X166061131Y-91940612D01*
X166073879Y-91944479D01*
X166089369Y-91952759D01*
X166169600Y-91995643D01*
X166253501Y-92064499D01*
X166322357Y-92148400D01*
X166358995Y-92216945D01*
X166373521Y-92244121D01*
X166405027Y-92347985D01*
X166415666Y-92456000D01*
X166405027Y-92564015D01*
X166373521Y-92667879D01*
X166373519Y-92667882D01*
X166322357Y-92763600D01*
X166253501Y-92847501D01*
X166169600Y-92916357D01*
X166101055Y-92952995D01*
X166073879Y-92967521D01*
X166061131Y-92971388D01*
X166038504Y-92980760D01*
X166018130Y-92994374D01*
X166000803Y-93011701D01*
X165987189Y-93032075D01*
X165977812Y-93054714D01*
X165973031Y-93078747D01*
X165973031Y-93103251D01*
X165977811Y-93127285D01*
X165987188Y-93149924D01*
X166000802Y-93170298D01*
X166018129Y-93187625D01*
X166038503Y-93201239D01*
X166061131Y-93210612D01*
X166073879Y-93214479D01*
X166101055Y-93229005D01*
X166169600Y-93265643D01*
X166253501Y-93334499D01*
X166322357Y-93418400D01*
X166339247Y-93450000D01*
X166373521Y-93514121D01*
X166405027Y-93617985D01*
X166415666Y-93726000D01*
X166405027Y-93834015D01*
X166373521Y-93937879D01*
X166369725Y-93944981D01*
X166322357Y-94033600D01*
X166253501Y-94117501D01*
X166169600Y-94186357D01*
X166101055Y-94222995D01*
X166073879Y-94237521D01*
X166061131Y-94241388D01*
X166038504Y-94250760D01*
X166018130Y-94264374D01*
X166000803Y-94281701D01*
X165987189Y-94302075D01*
X165977812Y-94324714D01*
X165973031Y-94348747D01*
X165973031Y-94373251D01*
X165977811Y-94397285D01*
X165987188Y-94419924D01*
X166000802Y-94440298D01*
X166018129Y-94457625D01*
X166038503Y-94471239D01*
X166061131Y-94480612D01*
X166073879Y-94484479D01*
X166084885Y-94490362D01*
X166169600Y-94535643D01*
X166253501Y-94604499D01*
X166322357Y-94688400D01*
X166355283Y-94750000D01*
X166373521Y-94784121D01*
X166405027Y-94887985D01*
X166415666Y-94996000D01*
X166405027Y-95104015D01*
X166373521Y-95207879D01*
X166367807Y-95218568D01*
X166322357Y-95303600D01*
X166253501Y-95387501D01*
X166169600Y-95456357D01*
X166101055Y-95492995D01*
X166073879Y-95507521D01*
X166061131Y-95511388D01*
X166038504Y-95520760D01*
X166018130Y-95534374D01*
X166000803Y-95551701D01*
X165987189Y-95572075D01*
X165977812Y-95594714D01*
X165973031Y-95618747D01*
X165973031Y-95643251D01*
X165977811Y-95667285D01*
X165987188Y-95689924D01*
X166000802Y-95710298D01*
X166018129Y-95727625D01*
X166038503Y-95741239D01*
X166061131Y-95750612D01*
X166073879Y-95754479D01*
X166100312Y-95768608D01*
X166169600Y-95805643D01*
X166253501Y-95874499D01*
X166322357Y-95958400D01*
X166346294Y-96003184D01*
X166373521Y-96054121D01*
X166405027Y-96157985D01*
X166415666Y-96266000D01*
X166405027Y-96374015D01*
X166373521Y-96477879D01*
X166373519Y-96477882D01*
X166322357Y-96573600D01*
X166253501Y-96657501D01*
X166169600Y-96726357D01*
X166101055Y-96762995D01*
X166073879Y-96777521D01*
X165970015Y-96809027D01*
X165889067Y-96817000D01*
X165834933Y-96817000D01*
X165753985Y-96809027D01*
X165650121Y-96777521D01*
X165622945Y-96762995D01*
X165554400Y-96726357D01*
X165470499Y-96657501D01*
X165401643Y-96573600D01*
X165350481Y-96477882D01*
X165350479Y-96477879D01*
X165346612Y-96465131D01*
X165337240Y-96442504D01*
X165323626Y-96422130D01*
X165306299Y-96404803D01*
X165285925Y-96391189D01*
X165263286Y-96381812D01*
X165239253Y-96377031D01*
X165214749Y-96377031D01*
X165190715Y-96381811D01*
X165168076Y-96391188D01*
X165147702Y-96404802D01*
X165130375Y-96422129D01*
X165116761Y-96442503D01*
X165107388Y-96465131D01*
X165103521Y-96477879D01*
X165103519Y-96477882D01*
X165052357Y-96573600D01*
X164983501Y-96657501D01*
X164899600Y-96726357D01*
X164831055Y-96762995D01*
X164803879Y-96777521D01*
X164700015Y-96809027D01*
X164619067Y-96817000D01*
X164564933Y-96817000D01*
X164483985Y-96809027D01*
X164380121Y-96777521D01*
X164352945Y-96762995D01*
X164284400Y-96726357D01*
X164200499Y-96657501D01*
X164131643Y-96573600D01*
X164080481Y-96477882D01*
X164080479Y-96477879D01*
X164048973Y-96374015D01*
X164038334Y-96266000D01*
X164048973Y-96157985D01*
X164080479Y-96054121D01*
X164107706Y-96003184D01*
X164131643Y-95958400D01*
X164200499Y-95874499D01*
X164284400Y-95805643D01*
X164353688Y-95768608D01*
X164380121Y-95754479D01*
X164392869Y-95750612D01*
X164415496Y-95741240D01*
X164435870Y-95727626D01*
X164453197Y-95710299D01*
X164466811Y-95689925D01*
X164476188Y-95667286D01*
X164480969Y-95643253D01*
X164480969Y-95618749D01*
X164480969Y-95618747D01*
X164703031Y-95618747D01*
X164703031Y-95643251D01*
X164707811Y-95667285D01*
X164717188Y-95689924D01*
X164730802Y-95710298D01*
X164748129Y-95727625D01*
X164768503Y-95741239D01*
X164791131Y-95750612D01*
X164803879Y-95754479D01*
X164830312Y-95768608D01*
X164899600Y-95805643D01*
X164983501Y-95874499D01*
X165052357Y-95958400D01*
X165076294Y-96003184D01*
X165103521Y-96054121D01*
X165107388Y-96066869D01*
X165116760Y-96089496D01*
X165130374Y-96109870D01*
X165147701Y-96127197D01*
X165168075Y-96140811D01*
X165190714Y-96150188D01*
X165214747Y-96154969D01*
X165239251Y-96154969D01*
X165263285Y-96150189D01*
X165285924Y-96140812D01*
X165306298Y-96127198D01*
X165323625Y-96109871D01*
X165337239Y-96089497D01*
X165346612Y-96066869D01*
X165350479Y-96054121D01*
X165377706Y-96003184D01*
X165401643Y-95958400D01*
X165470499Y-95874499D01*
X165554400Y-95805643D01*
X165623688Y-95768608D01*
X165650121Y-95754479D01*
X165662869Y-95750612D01*
X165685496Y-95741240D01*
X165705870Y-95727626D01*
X165723197Y-95710299D01*
X165736811Y-95689925D01*
X165746188Y-95667286D01*
X165750969Y-95643253D01*
X165750969Y-95618749D01*
X165746189Y-95594715D01*
X165736812Y-95572076D01*
X165723198Y-95551702D01*
X165705871Y-95534375D01*
X165685497Y-95520761D01*
X165662869Y-95511388D01*
X165650121Y-95507521D01*
X165622945Y-95492995D01*
X165554400Y-95456357D01*
X165470499Y-95387501D01*
X165401643Y-95303600D01*
X165356193Y-95218568D01*
X165350479Y-95207879D01*
X165346612Y-95195131D01*
X165337240Y-95172504D01*
X165323626Y-95152130D01*
X165306299Y-95134803D01*
X165285925Y-95121189D01*
X165263286Y-95111812D01*
X165239253Y-95107031D01*
X165214749Y-95107031D01*
X165190715Y-95111811D01*
X165168076Y-95121188D01*
X165147702Y-95134802D01*
X165130375Y-95152129D01*
X165116761Y-95172503D01*
X165107388Y-95195131D01*
X165103521Y-95207879D01*
X165097807Y-95218568D01*
X165052357Y-95303600D01*
X164983501Y-95387501D01*
X164899600Y-95456357D01*
X164831055Y-95492995D01*
X164803879Y-95507521D01*
X164791131Y-95511388D01*
X164768504Y-95520760D01*
X164748130Y-95534374D01*
X164730803Y-95551701D01*
X164717189Y-95572075D01*
X164707812Y-95594714D01*
X164703031Y-95618747D01*
X164480969Y-95618747D01*
X164476189Y-95594715D01*
X164466812Y-95572076D01*
X164453198Y-95551702D01*
X164435871Y-95534375D01*
X164415497Y-95520761D01*
X164392869Y-95511388D01*
X164380121Y-95507521D01*
X164352945Y-95492995D01*
X164284400Y-95456357D01*
X164200499Y-95387501D01*
X164131643Y-95303600D01*
X164086193Y-95218568D01*
X164080479Y-95207879D01*
X164048973Y-95104015D01*
X164038334Y-94996000D01*
X164048973Y-94887985D01*
X164080479Y-94784121D01*
X164098717Y-94750000D01*
X164131643Y-94688400D01*
X164200499Y-94604499D01*
X164284400Y-94535643D01*
X164369115Y-94490362D01*
X164380121Y-94484479D01*
X164392869Y-94480612D01*
X164415496Y-94471240D01*
X164435870Y-94457626D01*
X164453197Y-94440299D01*
X164466811Y-94419925D01*
X164476188Y-94397286D01*
X164480969Y-94373253D01*
X164480969Y-94348749D01*
X164480969Y-94348747D01*
X164703031Y-94348747D01*
X164703031Y-94373251D01*
X164707811Y-94397285D01*
X164717188Y-94419924D01*
X164730802Y-94440298D01*
X164748129Y-94457625D01*
X164768503Y-94471239D01*
X164791131Y-94480612D01*
X164803879Y-94484479D01*
X164814885Y-94490362D01*
X164899600Y-94535643D01*
X164983501Y-94604499D01*
X165052357Y-94688400D01*
X165085283Y-94750000D01*
X165103521Y-94784121D01*
X165107388Y-94796869D01*
X165116760Y-94819496D01*
X165130374Y-94839870D01*
X165147701Y-94857197D01*
X165168075Y-94870811D01*
X165190714Y-94880188D01*
X165214747Y-94884969D01*
X165239251Y-94884969D01*
X165263285Y-94880189D01*
X165285924Y-94870812D01*
X165306298Y-94857198D01*
X165323625Y-94839871D01*
X165337239Y-94819497D01*
X165346612Y-94796869D01*
X165350479Y-94784121D01*
X165368717Y-94750000D01*
X165401643Y-94688400D01*
X165470499Y-94604499D01*
X165554400Y-94535643D01*
X165639115Y-94490362D01*
X165650121Y-94484479D01*
X165662869Y-94480612D01*
X165685496Y-94471240D01*
X165705870Y-94457626D01*
X165723197Y-94440299D01*
X165736811Y-94419925D01*
X165746188Y-94397286D01*
X165750969Y-94373253D01*
X165750969Y-94348749D01*
X165746189Y-94324715D01*
X165736812Y-94302076D01*
X165723198Y-94281702D01*
X165705871Y-94264375D01*
X165685497Y-94250761D01*
X165662869Y-94241388D01*
X165650121Y-94237521D01*
X165622945Y-94222995D01*
X165554400Y-94186357D01*
X165470499Y-94117501D01*
X165401643Y-94033600D01*
X165354275Y-93944981D01*
X165350479Y-93937879D01*
X165346612Y-93925131D01*
X165337240Y-93902504D01*
X165323626Y-93882130D01*
X165306299Y-93864803D01*
X165285925Y-93851189D01*
X165263286Y-93841812D01*
X165239253Y-93837031D01*
X165214749Y-93837031D01*
X165190715Y-93841811D01*
X165168076Y-93851188D01*
X165147702Y-93864802D01*
X165130375Y-93882129D01*
X165116761Y-93902503D01*
X165107388Y-93925131D01*
X165103521Y-93937879D01*
X165099725Y-93944981D01*
X165052357Y-94033600D01*
X164983501Y-94117501D01*
X164899600Y-94186357D01*
X164831055Y-94222995D01*
X164803879Y-94237521D01*
X164791131Y-94241388D01*
X164768504Y-94250760D01*
X164748130Y-94264374D01*
X164730803Y-94281701D01*
X164717189Y-94302075D01*
X164707812Y-94324714D01*
X164703031Y-94348747D01*
X164480969Y-94348747D01*
X164476189Y-94324715D01*
X164466812Y-94302076D01*
X164453198Y-94281702D01*
X164435871Y-94264375D01*
X164415497Y-94250761D01*
X164392869Y-94241388D01*
X164380121Y-94237521D01*
X164352945Y-94222995D01*
X164284400Y-94186357D01*
X164200499Y-94117501D01*
X164131643Y-94033600D01*
X164084275Y-93944981D01*
X164080479Y-93937879D01*
X164048973Y-93834015D01*
X164038334Y-93726000D01*
X164048973Y-93617985D01*
X164080479Y-93514121D01*
X164114753Y-93450000D01*
X164131643Y-93418400D01*
X164200499Y-93334499D01*
X164284400Y-93265643D01*
X164352945Y-93229005D01*
X164380121Y-93214479D01*
X164392869Y-93210612D01*
X164415496Y-93201240D01*
X164435870Y-93187626D01*
X164453197Y-93170299D01*
X164466811Y-93149925D01*
X164476188Y-93127286D01*
X164480969Y-93103253D01*
X164480969Y-93078749D01*
X164480969Y-93078747D01*
X164703031Y-93078747D01*
X164703031Y-93103251D01*
X164707811Y-93127285D01*
X164717188Y-93149924D01*
X164730802Y-93170298D01*
X164748129Y-93187625D01*
X164768503Y-93201239D01*
X164791131Y-93210612D01*
X164803879Y-93214479D01*
X164831055Y-93229005D01*
X164899600Y-93265643D01*
X164983501Y-93334499D01*
X165052357Y-93418400D01*
X165069247Y-93450000D01*
X165103521Y-93514121D01*
X165107388Y-93526869D01*
X165116760Y-93549496D01*
X165130374Y-93569870D01*
X165147701Y-93587197D01*
X165168075Y-93600811D01*
X165190714Y-93610188D01*
X165214747Y-93614969D01*
X165239251Y-93614969D01*
X165263285Y-93610189D01*
X165285924Y-93600812D01*
X165306298Y-93587198D01*
X165323625Y-93569871D01*
X165337239Y-93549497D01*
X165346612Y-93526869D01*
X165350479Y-93514121D01*
X165384753Y-93450000D01*
X165401643Y-93418400D01*
X165470499Y-93334499D01*
X165554400Y-93265643D01*
X165622945Y-93229005D01*
X165650121Y-93214479D01*
X165662869Y-93210612D01*
X165685496Y-93201240D01*
X165705870Y-93187626D01*
X165723197Y-93170299D01*
X165736811Y-93149925D01*
X165746188Y-93127286D01*
X165750969Y-93103253D01*
X165750969Y-93078749D01*
X165746189Y-93054715D01*
X165736812Y-93032076D01*
X165723198Y-93011702D01*
X165705871Y-92994375D01*
X165685497Y-92980761D01*
X165662869Y-92971388D01*
X165650121Y-92967521D01*
X165622945Y-92952995D01*
X165554400Y-92916357D01*
X165470499Y-92847501D01*
X165401643Y-92763600D01*
X165350481Y-92667882D01*
X165350479Y-92667879D01*
X165346612Y-92655131D01*
X165337240Y-92632504D01*
X165323626Y-92612130D01*
X165306299Y-92594803D01*
X165285925Y-92581189D01*
X165263286Y-92571812D01*
X165239253Y-92567031D01*
X165214749Y-92567031D01*
X165190715Y-92571811D01*
X165168076Y-92581188D01*
X165147702Y-92594802D01*
X165130375Y-92612129D01*
X165116761Y-92632503D01*
X165107388Y-92655131D01*
X165103521Y-92667879D01*
X165103519Y-92667882D01*
X165052357Y-92763600D01*
X164983501Y-92847501D01*
X164899600Y-92916357D01*
X164831055Y-92952995D01*
X164803879Y-92967521D01*
X164791131Y-92971388D01*
X164768504Y-92980760D01*
X164748130Y-92994374D01*
X164730803Y-93011701D01*
X164717189Y-93032075D01*
X164707812Y-93054714D01*
X164703031Y-93078747D01*
X164480969Y-93078747D01*
X164476189Y-93054715D01*
X164466812Y-93032076D01*
X164453198Y-93011702D01*
X164435871Y-92994375D01*
X164415497Y-92980761D01*
X164392869Y-92971388D01*
X164380121Y-92967521D01*
X164352945Y-92952995D01*
X164284400Y-92916357D01*
X164200499Y-92847501D01*
X164131643Y-92763600D01*
X164080481Y-92667882D01*
X164080479Y-92667879D01*
X164048973Y-92564015D01*
X164038334Y-92456000D01*
X164048973Y-92347985D01*
X164080479Y-92244121D01*
X164095005Y-92216945D01*
X164131643Y-92148400D01*
X164200499Y-92064499D01*
X164218913Y-92049387D01*
X164284400Y-91995644D01*
X164328193Y-91972236D01*
X164348563Y-91958625D01*
X164365890Y-91941298D01*
X164379504Y-91920924D01*
X164388881Y-91898285D01*
X164393662Y-91874252D01*
X164393662Y-91861999D01*
X164789736Y-91861999D01*
X164792138Y-91886385D01*
X164799251Y-91909834D01*
X164810802Y-91931445D01*
X164826347Y-91950387D01*
X164845289Y-91965932D01*
X164855802Y-91972233D01*
X164899600Y-91995644D01*
X164965087Y-92049387D01*
X164983501Y-92064499D01*
X165052357Y-92148400D01*
X165088995Y-92216945D01*
X165103521Y-92244121D01*
X165107388Y-92256869D01*
X165116760Y-92279496D01*
X165130374Y-92299870D01*
X165147701Y-92317197D01*
X165168075Y-92330811D01*
X165190714Y-92340188D01*
X165214747Y-92344969D01*
X165239251Y-92344969D01*
X165263285Y-92340189D01*
X165285924Y-92330812D01*
X165306298Y-92317198D01*
X165323625Y-92299871D01*
X165337239Y-92279497D01*
X165346612Y-92256869D01*
X165350479Y-92244121D01*
X165365005Y-92216945D01*
X165401643Y-92148400D01*
X165470499Y-92064499D01*
X165554400Y-91995643D01*
X165634631Y-91952759D01*
X165650121Y-91944479D01*
X165662869Y-91940612D01*
X165685496Y-91931240D01*
X165705870Y-91917626D01*
X165723197Y-91900299D01*
X165736811Y-91879925D01*
X165746188Y-91857286D01*
X165750969Y-91833253D01*
X165750969Y-91808749D01*
X165746189Y-91784715D01*
X165736812Y-91762076D01*
X165723198Y-91741702D01*
X165705871Y-91724375D01*
X165685497Y-91710761D01*
X165662869Y-91701388D01*
X165650121Y-91697521D01*
X165622945Y-91682995D01*
X165554400Y-91646357D01*
X165470499Y-91577501D01*
X165401644Y-91493600D01*
X165378236Y-91449807D01*
X165364625Y-91429437D01*
X165347298Y-91412110D01*
X165326924Y-91398496D01*
X165304285Y-91389119D01*
X165280252Y-91384338D01*
X165255748Y-91384338D01*
X165231714Y-91389118D01*
X165209076Y-91398495D01*
X165188701Y-91412109D01*
X165171374Y-91429436D01*
X165157760Y-91449810D01*
X165148383Y-91472449D01*
X165143602Y-91496482D01*
X165143000Y-91508735D01*
X165143000Y-91737000D01*
X164914735Y-91737000D01*
X164890349Y-91739402D01*
X164866900Y-91746515D01*
X164845289Y-91758066D01*
X164826347Y-91773611D01*
X164810802Y-91792553D01*
X164799251Y-91814164D01*
X164792138Y-91837613D01*
X164789736Y-91861999D01*
X164393662Y-91861999D01*
X164393662Y-91849748D01*
X164388882Y-91825714D01*
X164379505Y-91803076D01*
X164365891Y-91782701D01*
X164348564Y-91765374D01*
X164328190Y-91751760D01*
X164305551Y-91742383D01*
X164281518Y-91737602D01*
X164269265Y-91737000D01*
X164041000Y-91737000D01*
X164041000Y-90635000D01*
X165143000Y-90635000D01*
X165143000Y-90863265D01*
X165143000Y-90863265D01*
G37*
G36*
X133968499Y-95299445D02*
G01*
X134005995Y-95310820D01*
X134040554Y-95329292D01*
X134070847Y-95354153D01*
X134095708Y-95384446D01*
X134114180Y-95419005D01*
X134125555Y-95456501D01*
X134130000Y-95501638D01*
X134130000Y-96240362D01*
X134125555Y-96285499D01*
X134114180Y-96322995D01*
X134095708Y-96357554D01*
X134070847Y-96387847D01*
X134040554Y-96412708D01*
X134005995Y-96431180D01*
X133968499Y-96442555D01*
X133923362Y-96447000D01*
X133284638Y-96447000D01*
X133239501Y-96442555D01*
X133202005Y-96431180D01*
X133167446Y-96412708D01*
X133137153Y-96387847D01*
X133112292Y-96357554D01*
X133093820Y-96322995D01*
X133082445Y-96285499D01*
X133078000Y-96240362D01*
X133078000Y-95501638D01*
X133082445Y-95456501D01*
X133093820Y-95419005D01*
X133112292Y-95384446D01*
X133137153Y-95354153D01*
X133167446Y-95329292D01*
X133202005Y-95310820D01*
X133239501Y-95299445D01*
X133284638Y-95295000D01*
X133923362Y-95295000D01*
X133968499Y-95299445D01*
X133968499Y-95299445D01*
G37*
G36*
X153276362Y-94414981D02*
G01*
X153313858Y-94426356D01*
X153348417Y-94444828D01*
X153383481Y-94473604D01*
X153905832Y-94995955D01*
X153934608Y-95031019D01*
X153953080Y-95065578D01*
X153964455Y-95103074D01*
X153968295Y-95142073D01*
X153964455Y-95181072D01*
X153953080Y-95218568D01*
X153934608Y-95253127D01*
X153905832Y-95288191D01*
X153454191Y-95739832D01*
X153419127Y-95768608D01*
X153384568Y-95787080D01*
X153347072Y-95798455D01*
X153308073Y-95802295D01*
X153269074Y-95798455D01*
X153231578Y-95787080D01*
X153197019Y-95768608D01*
X153161955Y-95739832D01*
X152639604Y-95217481D01*
X152610828Y-95182417D01*
X152592356Y-95147858D01*
X152580981Y-95110362D01*
X152577141Y-95071363D01*
X152580981Y-95032364D01*
X152592356Y-94994868D01*
X152610828Y-94960309D01*
X152639604Y-94925245D01*
X153091245Y-94473604D01*
X153126309Y-94444828D01*
X153160868Y-94426356D01*
X153198364Y-94414981D01*
X153237363Y-94411141D01*
X153276362Y-94414981D01*
X153276362Y-94414981D01*
G37*
G36*
X123360000Y-95427000D02*
G01*
X120758000Y-95427000D01*
X120758000Y-93895000D01*
X123360000Y-93895000D01*
X123360000Y-95427000D01*
X123360000Y-95427000D01*
G37*
G36*
X124487164Y-89790485D02*
G01*
X124510613Y-89797598D01*
X124534999Y-89800000D01*
X126110000Y-89800000D01*
X126110000Y-91107379D01*
X126112402Y-91131765D01*
X126115383Y-91143665D01*
X126121304Y-91163182D01*
X126132907Y-91281000D01*
X126121304Y-91398818D01*
X126115383Y-91418335D01*
X126110602Y-91442368D01*
X126110000Y-91454621D01*
X126110000Y-91952759D01*
X126106066Y-91957553D01*
X126094515Y-91979164D01*
X126087402Y-92002613D01*
X126085000Y-92026999D01*
X126085000Y-95252000D01*
X124333000Y-95252000D01*
X124333000Y-92150000D01*
X124383001Y-92150000D01*
X124407387Y-92147598D01*
X124430836Y-92140485D01*
X124452447Y-92128934D01*
X124471389Y-92113389D01*
X124486934Y-92094447D01*
X124498485Y-92072836D01*
X124505598Y-92049387D01*
X124508000Y-92025001D01*
X124508000Y-91839499D01*
X124505598Y-91815113D01*
X124498485Y-91791664D01*
X124486934Y-91770053D01*
X124471389Y-91751111D01*
X124452447Y-91735566D01*
X124430836Y-91724015D01*
X124407387Y-91716902D01*
X124383001Y-91714500D01*
X123545775Y-91714500D01*
X123530836Y-91706515D01*
X123507387Y-91699402D01*
X123483001Y-91697000D01*
X122108950Y-91697000D01*
X122107387Y-91696526D01*
X122095255Y-91694726D01*
X122011679Y-91686495D01*
X121874828Y-91644981D01*
X121874825Y-91644980D01*
X121748706Y-91577568D01*
X121638157Y-91486843D01*
X121547432Y-91376294D01*
X121480020Y-91250175D01*
X121466013Y-91204000D01*
X121438505Y-91113321D01*
X121424488Y-90971000D01*
X121438505Y-90828679D01*
X121480019Y-90691828D01*
X121480020Y-90691825D01*
X121547432Y-90565706D01*
X121638157Y-90455157D01*
X121748706Y-90364432D01*
X121874825Y-90297020D01*
X121874828Y-90297019D01*
X122011679Y-90255505D01*
X122095254Y-90247274D01*
X122106686Y-90245000D01*
X123483001Y-90245000D01*
X123507387Y-90242598D01*
X123530836Y-90235485D01*
X123552447Y-90223934D01*
X123571389Y-90208389D01*
X123586934Y-90189447D01*
X123598485Y-90167836D01*
X123605598Y-90144387D01*
X123608000Y-90120001D01*
X123608000Y-89787500D01*
X124481579Y-89787500D01*
X124487164Y-89790485D01*
X124487164Y-89790485D01*
G37*
G36*
X130037000Y-95052000D02*
G01*
X128875000Y-95052000D01*
X128875000Y-92400000D01*
X130037000Y-92400000D01*
X130037000Y-95052000D01*
X130037000Y-95052000D01*
G37*
G36*
X132237000Y-95052000D02*
G01*
X131075000Y-95052000D01*
X131075000Y-94300000D01*
X132237000Y-94300000D01*
X132237000Y-95052000D01*
X132237000Y-95052000D01*
G37*
G36*
X133968499Y-93549445D02*
G01*
X134005995Y-93560820D01*
X134040554Y-93579292D01*
X134070847Y-93604153D01*
X134095708Y-93634446D01*
X134114180Y-93669005D01*
X134125555Y-93706501D01*
X134130000Y-93751638D01*
X134130000Y-94490362D01*
X134125555Y-94535499D01*
X134114180Y-94572995D01*
X134095708Y-94607554D01*
X134070847Y-94637847D01*
X134040554Y-94662708D01*
X134005995Y-94681180D01*
X133968499Y-94692555D01*
X133923362Y-94697000D01*
X133284638Y-94697000D01*
X133239501Y-94692555D01*
X133202005Y-94681180D01*
X133167446Y-94662708D01*
X133137153Y-94637847D01*
X133112292Y-94607554D01*
X133093820Y-94572995D01*
X133082445Y-94535499D01*
X133078000Y-94490362D01*
X133078000Y-93751638D01*
X133082445Y-93706501D01*
X133093820Y-93669005D01*
X133112292Y-93634446D01*
X133137153Y-93604153D01*
X133167446Y-93579292D01*
X133202005Y-93560820D01*
X133239501Y-93549445D01*
X133284638Y-93545000D01*
X133923362Y-93545000D01*
X133968499Y-93549445D01*
X133968499Y-93549445D01*
G37*
G36*
X152038926Y-93177545D02*
G01*
X152076422Y-93188920D01*
X152110981Y-93207392D01*
X152146045Y-93236168D01*
X152668396Y-93758519D01*
X152697172Y-93793583D01*
X152715644Y-93828142D01*
X152727019Y-93865638D01*
X152730859Y-93904637D01*
X152727019Y-93943636D01*
X152715644Y-93981132D01*
X152697172Y-94015691D01*
X152668396Y-94050755D01*
X152216755Y-94502396D01*
X152181691Y-94531172D01*
X152147132Y-94549644D01*
X152109636Y-94561019D01*
X152070637Y-94564859D01*
X152031638Y-94561019D01*
X151994142Y-94549644D01*
X151959583Y-94531172D01*
X151924519Y-94502396D01*
X151402168Y-93980045D01*
X151373392Y-93944981D01*
X151354920Y-93910422D01*
X151343545Y-93872926D01*
X151339705Y-93833927D01*
X151343545Y-93794928D01*
X151354920Y-93757432D01*
X151373392Y-93722873D01*
X151402168Y-93687809D01*
X151853809Y-93236168D01*
X151888873Y-93207392D01*
X151923432Y-93188920D01*
X151960928Y-93177545D01*
X151999927Y-93173705D01*
X152038926Y-93177545D01*
X152038926Y-93177545D01*
G37*
G36*
X144586960Y-89112128D02*
G01*
X144109662Y-89589426D01*
X144021275Y-89677814D01*
X143560241Y-90138848D01*
X143471853Y-90227235D01*
X142994555Y-90704533D01*
X142906167Y-90792920D01*
X142889904Y-90809184D01*
X141863184Y-91835904D01*
X141774796Y-91924291D01*
X141758533Y-91940555D01*
X141281235Y-92417853D01*
X141192848Y-92506241D01*
X140731814Y-92967275D01*
X140643426Y-93055662D01*
X140166128Y-93532960D01*
X138962632Y-92329464D01*
X139423666Y-91868430D01*
X139423667Y-91868431D01*
X139512044Y-91780053D01*
X139512055Y-91780044D01*
X139528319Y-91763780D01*
X139528318Y-91763779D01*
X139989352Y-91302745D01*
X139989353Y-91302746D01*
X140005617Y-91286482D01*
X140005626Y-91286471D01*
X140094004Y-91198094D01*
X140094003Y-91198093D01*
X140555037Y-90737059D01*
X140555038Y-90737060D01*
X140659689Y-90632409D01*
X140659688Y-90632408D01*
X141120722Y-90171374D01*
X141120723Y-90171375D01*
X141225375Y-90066723D01*
X141225374Y-90066722D01*
X141686408Y-89605688D01*
X141686409Y-89605689D01*
X141791060Y-89501038D01*
X141791059Y-89501037D01*
X142252093Y-89040003D01*
X142252094Y-89040004D01*
X142340471Y-88951626D01*
X142340482Y-88951617D01*
X142356746Y-88935353D01*
X142356745Y-88935352D01*
X142817779Y-88474318D01*
X142817780Y-88474319D01*
X142834044Y-88458055D01*
X142834053Y-88458044D01*
X142922431Y-88369667D01*
X142922430Y-88369666D01*
X143383464Y-87908632D01*
X144586960Y-89112128D01*
X144586960Y-89112128D01*
G37*
G36*
X146637570Y-88369666D02*
G01*
X146637570Y-88369667D01*
X146725952Y-88458049D01*
X146725957Y-88458055D01*
X146742221Y-88474319D01*
X146742221Y-88474318D01*
X147203255Y-88935352D01*
X147203255Y-88935353D01*
X147219519Y-88951617D01*
X147219525Y-88951622D01*
X147307907Y-89040004D01*
X147307907Y-89040003D01*
X147768941Y-89501037D01*
X147768941Y-89501038D01*
X147873592Y-89605689D01*
X147873592Y-89605688D01*
X148334626Y-90066722D01*
X148334626Y-90066723D01*
X148439278Y-90171375D01*
X148439278Y-90171374D01*
X148900312Y-90632408D01*
X148900312Y-90632409D01*
X149004963Y-90737060D01*
X149004963Y-90737059D01*
X149465997Y-91198093D01*
X149465997Y-91198094D01*
X149554379Y-91286476D01*
X149554384Y-91286482D01*
X149570648Y-91302746D01*
X149570648Y-91302745D01*
X150031682Y-91763779D01*
X150031682Y-91763780D01*
X150047946Y-91780044D01*
X150047952Y-91780049D01*
X150136334Y-91868431D01*
X150136334Y-91868430D01*
X150597368Y-92329464D01*
X149393872Y-93532960D01*
X148932838Y-93071926D01*
X148932839Y-93071926D01*
X148916575Y-93055662D01*
X148916569Y-93055657D01*
X148828187Y-92967275D01*
X148828186Y-92967275D01*
X148367152Y-92506241D01*
X148367153Y-92506241D01*
X148278771Y-92417859D01*
X148278766Y-92417853D01*
X148262502Y-92401589D01*
X148262501Y-92401589D01*
X147801467Y-91940555D01*
X147801468Y-91940555D01*
X147696817Y-91835904D01*
X147696816Y-91835904D01*
X147235782Y-91374870D01*
X147235783Y-91374870D01*
X147131131Y-91270218D01*
X147131130Y-91270218D01*
X146670096Y-90809184D01*
X146670097Y-90809184D01*
X146565446Y-90704533D01*
X146565445Y-90704533D01*
X146104411Y-90243499D01*
X146104412Y-90243499D01*
X146088148Y-90227235D01*
X146088142Y-90227230D01*
X145999760Y-90138848D01*
X145999759Y-90138848D01*
X145538725Y-89677814D01*
X145538726Y-89677814D01*
X145450344Y-89589432D01*
X145450339Y-89589426D01*
X145434075Y-89573162D01*
X145434074Y-89573162D01*
X144973040Y-89112128D01*
X146176536Y-87908632D01*
X146637570Y-88369666D01*
X146637570Y-88369666D01*
G37*
G36*
X123360000Y-93507000D02*
G01*
X120758000Y-93507000D01*
X120758000Y-91975000D01*
X123360000Y-91975000D01*
X123360000Y-93507000D01*
X123360000Y-93507000D01*
G37*
G36*
X132237000Y-93152000D02*
G01*
X131075000Y-93152000D01*
X131075000Y-92400000D01*
X132237000Y-92400000D01*
X132237000Y-93152000D01*
X132237000Y-93152000D01*
G37*
G36*
X133968499Y-91743445D02*
G01*
X134005995Y-91754820D01*
X134040554Y-91773292D01*
X134070847Y-91798153D01*
X134095708Y-91828446D01*
X134114180Y-91863005D01*
X134125555Y-91900501D01*
X134130000Y-91945638D01*
X134130000Y-92684362D01*
X134125555Y-92729499D01*
X134114180Y-92766995D01*
X134095708Y-92801554D01*
X134070847Y-92831847D01*
X134040554Y-92856708D01*
X134005995Y-92875180D01*
X133968499Y-92886555D01*
X133923362Y-92891000D01*
X133284638Y-92891000D01*
X133239501Y-92886555D01*
X133202005Y-92875180D01*
X133167446Y-92856708D01*
X133137153Y-92831847D01*
X133112292Y-92801554D01*
X133093820Y-92766995D01*
X133082445Y-92729499D01*
X133078000Y-92684362D01*
X133078000Y-91945638D01*
X133082445Y-91900501D01*
X133093820Y-91863005D01*
X133112292Y-91828446D01*
X133137153Y-91798153D01*
X133167446Y-91773292D01*
X133202005Y-91754820D01*
X133239501Y-91743445D01*
X133284638Y-91739000D01*
X133923362Y-91739000D01*
X133968499Y-91743445D01*
X133968499Y-91743445D01*
G37*
G36*
X135746499Y-91743445D02*
G01*
X135783995Y-91754820D01*
X135818554Y-91773292D01*
X135848847Y-91798153D01*
X135873708Y-91828446D01*
X135892180Y-91863005D01*
X135903555Y-91900501D01*
X135908000Y-91945638D01*
X135908000Y-92684362D01*
X135903555Y-92729499D01*
X135892180Y-92766995D01*
X135873708Y-92801554D01*
X135848847Y-92831847D01*
X135818554Y-92856708D01*
X135783995Y-92875180D01*
X135746499Y-92886555D01*
X135701362Y-92891000D01*
X135062638Y-92891000D01*
X135017501Y-92886555D01*
X134980005Y-92875180D01*
X134945446Y-92856708D01*
X134915153Y-92831847D01*
X134890292Y-92801554D01*
X134871820Y-92766995D01*
X134860445Y-92729499D01*
X134856000Y-92684362D01*
X134856000Y-91945638D01*
X134860445Y-91900501D01*
X134871820Y-91863005D01*
X134890292Y-91828446D01*
X134915153Y-91798153D01*
X134945446Y-91773292D01*
X134980005Y-91754820D01*
X135017501Y-91743445D01*
X135062638Y-91739000D01*
X135701362Y-91739000D01*
X135746499Y-91743445D01*
X135746499Y-91743445D01*
G37*
G36*
X157848362Y-90096981D02*
G01*
X157885858Y-90108356D01*
X157920417Y-90126828D01*
X157955481Y-90155604D01*
X158477832Y-90677955D01*
X158506608Y-90713019D01*
X158525080Y-90747578D01*
X158536455Y-90785074D01*
X158540295Y-90824073D01*
X158536455Y-90863072D01*
X158525080Y-90900568D01*
X158506608Y-90935127D01*
X158477832Y-90970191D01*
X158026191Y-91421832D01*
X157991127Y-91450608D01*
X157956568Y-91469080D01*
X157919072Y-91480455D01*
X157880073Y-91484295D01*
X157841074Y-91480455D01*
X157803578Y-91469080D01*
X157769019Y-91450608D01*
X157733955Y-91421832D01*
X157211604Y-90899481D01*
X157182828Y-90864417D01*
X157164356Y-90829858D01*
X157152981Y-90792362D01*
X157149141Y-90753363D01*
X157152981Y-90714364D01*
X157164356Y-90676868D01*
X157182828Y-90642309D01*
X157211604Y-90607245D01*
X157663245Y-90155604D01*
X157698309Y-90126828D01*
X157732868Y-90108356D01*
X157770364Y-90096981D01*
X157809363Y-90093141D01*
X157848362Y-90096981D01*
X157848362Y-90096981D01*
G37*
G36*
X152306721Y-90402174D02*
G01*
X152406995Y-90443709D01*
X152406996Y-90443710D01*
X152497242Y-90504010D01*
X152573990Y-90580758D01*
X152573991Y-90580760D01*
X152634291Y-90671005D01*
X152675826Y-90771279D01*
X152697000Y-90877730D01*
X152697000Y-90986270D01*
X152675826Y-91092721D01*
X152634291Y-91192995D01*
X152604345Y-91237812D01*
X152573990Y-91283242D01*
X152497242Y-91359990D01*
X152464330Y-91381981D01*
X152406995Y-91420291D01*
X152306721Y-91461826D01*
X152200270Y-91483000D01*
X152091730Y-91483000D01*
X151985279Y-91461826D01*
X151885005Y-91420291D01*
X151827670Y-91381981D01*
X151794758Y-91359990D01*
X151718010Y-91283242D01*
X151687655Y-91237812D01*
X151657709Y-91192995D01*
X151616174Y-91092721D01*
X151595000Y-90986270D01*
X151595000Y-90877730D01*
X151616174Y-90771279D01*
X151657709Y-90671005D01*
X151718009Y-90580760D01*
X151718010Y-90580758D01*
X151794758Y-90504010D01*
X151885004Y-90443710D01*
X151885005Y-90443709D01*
X151985279Y-90402174D01*
X152091730Y-90381000D01*
X152200270Y-90381000D01*
X152306721Y-90402174D01*
X152306721Y-90402174D01*
G37*
G36*
X160321499Y-90156445D02*
G01*
X160358995Y-90167820D01*
X160393554Y-90186292D01*
X160423847Y-90211153D01*
X160448708Y-90241446D01*
X160467180Y-90276005D01*
X160478555Y-90313501D01*
X160483000Y-90358638D01*
X160483000Y-90997362D01*
X160478555Y-91042499D01*
X160467180Y-91079995D01*
X160448708Y-91114554D01*
X160423847Y-91144847D01*
X160393554Y-91169708D01*
X160358995Y-91188180D01*
X160321499Y-91199555D01*
X160276362Y-91204000D01*
X159537638Y-91204000D01*
X159492501Y-91199555D01*
X159455005Y-91188180D01*
X159420446Y-91169708D01*
X159390153Y-91144847D01*
X159365292Y-91114554D01*
X159346820Y-91079995D01*
X159335445Y-91042499D01*
X159331000Y-90997362D01*
X159331000Y-90358638D01*
X159335445Y-90313501D01*
X159346820Y-90276005D01*
X159365292Y-90241446D01*
X159390153Y-90211153D01*
X159420446Y-90186292D01*
X159455005Y-90167820D01*
X159492501Y-90156445D01*
X159537638Y-90152000D01*
X160276362Y-90152000D01*
X160321499Y-90156445D01*
X160321499Y-90156445D01*
G37*
G36*
X162071499Y-90156445D02*
G01*
X162108995Y-90167820D01*
X162143554Y-90186292D01*
X162173847Y-90211153D01*
X162198708Y-90241446D01*
X162217180Y-90276005D01*
X162228555Y-90313501D01*
X162233000Y-90358638D01*
X162233000Y-90997362D01*
X162228555Y-91042499D01*
X162217180Y-91079995D01*
X162198708Y-91114554D01*
X162173847Y-91144847D01*
X162143554Y-91169708D01*
X162108995Y-91188180D01*
X162071499Y-91199555D01*
X162026362Y-91204000D01*
X161287638Y-91204000D01*
X161242501Y-91199555D01*
X161205005Y-91188180D01*
X161170446Y-91169708D01*
X161140153Y-91144847D01*
X161115292Y-91114554D01*
X161096820Y-91079995D01*
X161085445Y-91042499D01*
X161081000Y-90997362D01*
X161081000Y-90358638D01*
X161085445Y-90313501D01*
X161096820Y-90276005D01*
X161115292Y-90241446D01*
X161140153Y-90211153D01*
X161170446Y-90186292D01*
X161205005Y-90167820D01*
X161242501Y-90156445D01*
X161287638Y-90152000D01*
X162026362Y-90152000D01*
X162071499Y-90156445D01*
X162071499Y-90156445D01*
G37*
G36*
X130349499Y-90156445D02*
G01*
X130386995Y-90167820D01*
X130421554Y-90186292D01*
X130451847Y-90211153D01*
X130476708Y-90241446D01*
X130495180Y-90276005D01*
X130506555Y-90313501D01*
X130511000Y-90358638D01*
X130511000Y-90997362D01*
X130506555Y-91042499D01*
X130495180Y-91079995D01*
X130476708Y-91114554D01*
X130451847Y-91144847D01*
X130421554Y-91169708D01*
X130386995Y-91188180D01*
X130349499Y-91199555D01*
X130304362Y-91204000D01*
X129565638Y-91204000D01*
X129520501Y-91199555D01*
X129483005Y-91188180D01*
X129448446Y-91169708D01*
X129418153Y-91144847D01*
X129393292Y-91114554D01*
X129374820Y-91079995D01*
X129363445Y-91042499D01*
X129359000Y-90997362D01*
X129359000Y-90358638D01*
X129363445Y-90313501D01*
X129374820Y-90276005D01*
X129393292Y-90241446D01*
X129418153Y-90211153D01*
X129448446Y-90186292D01*
X129483005Y-90167820D01*
X129520501Y-90156445D01*
X129565638Y-90152000D01*
X130304362Y-90152000D01*
X130349499Y-90156445D01*
X130349499Y-90156445D01*
G37*
G36*
X132099499Y-90156445D02*
G01*
X132136995Y-90167820D01*
X132171554Y-90186292D01*
X132201847Y-90211153D01*
X132226708Y-90241446D01*
X132245180Y-90276005D01*
X132256555Y-90313501D01*
X132261000Y-90358638D01*
X132261000Y-90997362D01*
X132256555Y-91042499D01*
X132245180Y-91079995D01*
X132226708Y-91114554D01*
X132201847Y-91144847D01*
X132171554Y-91169708D01*
X132136995Y-91188180D01*
X132099499Y-91199555D01*
X132054362Y-91204000D01*
X131315638Y-91204000D01*
X131270501Y-91199555D01*
X131233005Y-91188180D01*
X131198446Y-91169708D01*
X131168153Y-91144847D01*
X131143292Y-91114554D01*
X131124820Y-91079995D01*
X131113445Y-91042499D01*
X131109000Y-90997362D01*
X131109000Y-90358638D01*
X131113445Y-90313501D01*
X131124820Y-90276005D01*
X131143292Y-90241446D01*
X131168153Y-90211153D01*
X131198446Y-90186292D01*
X131233005Y-90167820D01*
X131270501Y-90156445D01*
X131315638Y-90152000D01*
X132054362Y-90152000D01*
X132099499Y-90156445D01*
X132099499Y-90156445D01*
G37*
G36*
X135746499Y-89993445D02*
G01*
X135783995Y-90004820D01*
X135818554Y-90023292D01*
X135848847Y-90048153D01*
X135873708Y-90078446D01*
X135892180Y-90113005D01*
X135903555Y-90150501D01*
X135908000Y-90195638D01*
X135908000Y-90934362D01*
X135903555Y-90979499D01*
X135892180Y-91016995D01*
X135873708Y-91051554D01*
X135848847Y-91081847D01*
X135818554Y-91106708D01*
X135783995Y-91125180D01*
X135746499Y-91136555D01*
X135701362Y-91141000D01*
X135062638Y-91141000D01*
X135017501Y-91136555D01*
X134980005Y-91125180D01*
X134945446Y-91106708D01*
X134915153Y-91081847D01*
X134890292Y-91051554D01*
X134871820Y-91016995D01*
X134860445Y-90979499D01*
X134856000Y-90934362D01*
X134856000Y-90195638D01*
X134860445Y-90150501D01*
X134871820Y-90113005D01*
X134890292Y-90078446D01*
X134915153Y-90048153D01*
X134945446Y-90023292D01*
X134980005Y-90004820D01*
X135017501Y-89993445D01*
X135062638Y-89989000D01*
X135701362Y-89989000D01*
X135746499Y-89993445D01*
X135746499Y-89993445D01*
G37*
G36*
X133968499Y-89993445D02*
G01*
X134005995Y-90004820D01*
X134040554Y-90023292D01*
X134070847Y-90048153D01*
X134095708Y-90078446D01*
X134114180Y-90113005D01*
X134125555Y-90150501D01*
X134130000Y-90195638D01*
X134130000Y-90934362D01*
X134125555Y-90979499D01*
X134114180Y-91016995D01*
X134095708Y-91051554D01*
X134070847Y-91081847D01*
X134040554Y-91106708D01*
X134005995Y-91125180D01*
X133968499Y-91136555D01*
X133923362Y-91141000D01*
X133284638Y-91141000D01*
X133239501Y-91136555D01*
X133202005Y-91125180D01*
X133167446Y-91106708D01*
X133137153Y-91081847D01*
X133112292Y-91051554D01*
X133093820Y-91016995D01*
X133082445Y-90979499D01*
X133078000Y-90934362D01*
X133078000Y-90195638D01*
X133082445Y-90150501D01*
X133093820Y-90113005D01*
X133112292Y-90078446D01*
X133137153Y-90048153D01*
X133167446Y-90023292D01*
X133202005Y-90004820D01*
X133239501Y-89993445D01*
X133284638Y-89989000D01*
X133923362Y-89989000D01*
X133968499Y-89993445D01*
X133968499Y-89993445D01*
G37*
G36*
X128380499Y-89965445D02*
G01*
X128417995Y-89976820D01*
X128452554Y-89995292D01*
X128482847Y-90020153D01*
X128507708Y-90050446D01*
X128526180Y-90085005D01*
X128537555Y-90122501D01*
X128542000Y-90167638D01*
X128542000Y-90906362D01*
X128537555Y-90951499D01*
X128526180Y-90988995D01*
X128507708Y-91023554D01*
X128482847Y-91053847D01*
X128452554Y-91078708D01*
X128417995Y-91097180D01*
X128380499Y-91108555D01*
X128335362Y-91113000D01*
X127696638Y-91113000D01*
X127651501Y-91108555D01*
X127614005Y-91097180D01*
X127579446Y-91078708D01*
X127549153Y-91053847D01*
X127524292Y-91023554D01*
X127505820Y-90988995D01*
X127494445Y-90951499D01*
X127490000Y-90906362D01*
X127490000Y-90167638D01*
X127494445Y-90122501D01*
X127505820Y-90085005D01*
X127524292Y-90050446D01*
X127549153Y-90020153D01*
X127579446Y-89995292D01*
X127614005Y-89976820D01*
X127651501Y-89965445D01*
X127696638Y-89961000D01*
X128335362Y-89961000D01*
X128380499Y-89965445D01*
X128380499Y-89965445D01*
G37*
G36*
X156610926Y-88859545D02*
G01*
X156648422Y-88870920D01*
X156682981Y-88889392D01*
X156718045Y-88918168D01*
X157240396Y-89440519D01*
X157269172Y-89475583D01*
X157287644Y-89510142D01*
X157299019Y-89547638D01*
X157302859Y-89586637D01*
X157299019Y-89625636D01*
X157287644Y-89663132D01*
X157269172Y-89697691D01*
X157240396Y-89732755D01*
X156788755Y-90184396D01*
X156753691Y-90213172D01*
X156719132Y-90231644D01*
X156681636Y-90243019D01*
X156642637Y-90246859D01*
X156603638Y-90243019D01*
X156566142Y-90231644D01*
X156531583Y-90213172D01*
X156496519Y-90184396D01*
X155974168Y-89662045D01*
X155945392Y-89626981D01*
X155926920Y-89592422D01*
X155915545Y-89554926D01*
X155911705Y-89515927D01*
X155915545Y-89476928D01*
X155926920Y-89439432D01*
X155945392Y-89404873D01*
X155974168Y-89369809D01*
X156425809Y-88918168D01*
X156460873Y-88889392D01*
X156495432Y-88870920D01*
X156532928Y-88859545D01*
X156571927Y-88855705D01*
X156610926Y-88859545D01*
X156610926Y-88859545D01*
G37*
G36*
X153650224Y-89058671D02*
G01*
X153750498Y-89100206D01*
X153750499Y-89100207D01*
X153840745Y-89160507D01*
X153917493Y-89237255D01*
X153923413Y-89246115D01*
X153977794Y-89327502D01*
X154019329Y-89427776D01*
X154040503Y-89534227D01*
X154040503Y-89642767D01*
X154019329Y-89749218D01*
X153977794Y-89849492D01*
X153977793Y-89849493D01*
X153917493Y-89939739D01*
X153840745Y-90016487D01*
X153815548Y-90033323D01*
X153750498Y-90076788D01*
X153650224Y-90118323D01*
X153543773Y-90139497D01*
X153435233Y-90139497D01*
X153328782Y-90118323D01*
X153228508Y-90076788D01*
X153163458Y-90033323D01*
X153138261Y-90016487D01*
X153061513Y-89939739D01*
X153001213Y-89849493D01*
X153001212Y-89849492D01*
X152959677Y-89749218D01*
X152938503Y-89642767D01*
X152938503Y-89534227D01*
X152959677Y-89427776D01*
X153001212Y-89327502D01*
X153055593Y-89246115D01*
X153061513Y-89237255D01*
X153138261Y-89160507D01*
X153228507Y-89100207D01*
X153228508Y-89100206D01*
X153328782Y-89058671D01*
X153435233Y-89037497D01*
X153543773Y-89037497D01*
X153650224Y-89058671D01*
X153650224Y-89058671D01*
G37*
G36*
X162071499Y-88378445D02*
G01*
X162108995Y-88389820D01*
X162143554Y-88408292D01*
X162173847Y-88433153D01*
X162198708Y-88463446D01*
X162217180Y-88498005D01*
X162228555Y-88535501D01*
X162233000Y-88580638D01*
X162233000Y-89219362D01*
X162228555Y-89264499D01*
X162217180Y-89301995D01*
X162198708Y-89336554D01*
X162173847Y-89366847D01*
X162143554Y-89391708D01*
X162108995Y-89410180D01*
X162071499Y-89421555D01*
X162026362Y-89426000D01*
X161287638Y-89426000D01*
X161242501Y-89421555D01*
X161205005Y-89410180D01*
X161170446Y-89391708D01*
X161140153Y-89366847D01*
X161115292Y-89336554D01*
X161096820Y-89301995D01*
X161085445Y-89264499D01*
X161081000Y-89219362D01*
X161081000Y-88580638D01*
X161085445Y-88535501D01*
X161096820Y-88498005D01*
X161115292Y-88463446D01*
X161140153Y-88433153D01*
X161170446Y-88408292D01*
X161205005Y-88389820D01*
X161242501Y-88378445D01*
X161287638Y-88374000D01*
X162026362Y-88374000D01*
X162071499Y-88378445D01*
X162071499Y-88378445D01*
G37*
G36*
X160321499Y-88378445D02*
G01*
X160358995Y-88389820D01*
X160393554Y-88408292D01*
X160423847Y-88433153D01*
X160448708Y-88463446D01*
X160467180Y-88498005D01*
X160478555Y-88535501D01*
X160483000Y-88580638D01*
X160483000Y-89219362D01*
X160478555Y-89264499D01*
X160467180Y-89301995D01*
X160448708Y-89336554D01*
X160423847Y-89366847D01*
X160393554Y-89391708D01*
X160358995Y-89410180D01*
X160321499Y-89421555D01*
X160276362Y-89426000D01*
X159537638Y-89426000D01*
X159492501Y-89421555D01*
X159455005Y-89410180D01*
X159420446Y-89391708D01*
X159390153Y-89366847D01*
X159365292Y-89336554D01*
X159346820Y-89301995D01*
X159335445Y-89264499D01*
X159331000Y-89219362D01*
X159331000Y-88580638D01*
X159335445Y-88535501D01*
X159346820Y-88498005D01*
X159365292Y-88463446D01*
X159390153Y-88433153D01*
X159420446Y-88408292D01*
X159455005Y-88389820D01*
X159492501Y-88378445D01*
X159537638Y-88374000D01*
X160276362Y-88374000D01*
X160321499Y-88378445D01*
X160321499Y-88378445D01*
G37*
G36*
X132099499Y-88378445D02*
G01*
X132136995Y-88389820D01*
X132171554Y-88408292D01*
X132201847Y-88433153D01*
X132226708Y-88463446D01*
X132245180Y-88498005D01*
X132256555Y-88535501D01*
X132261000Y-88580638D01*
X132261000Y-89219362D01*
X132256555Y-89264499D01*
X132245180Y-89301995D01*
X132226708Y-89336554D01*
X132201847Y-89366847D01*
X132171554Y-89391708D01*
X132136995Y-89410180D01*
X132099499Y-89421555D01*
X132054362Y-89426000D01*
X131315638Y-89426000D01*
X131270501Y-89421555D01*
X131233005Y-89410180D01*
X131198446Y-89391708D01*
X131168153Y-89366847D01*
X131143292Y-89336554D01*
X131124820Y-89301995D01*
X131113445Y-89264499D01*
X131109000Y-89219362D01*
X131109000Y-88580638D01*
X131113445Y-88535501D01*
X131124820Y-88498005D01*
X131143292Y-88463446D01*
X131168153Y-88433153D01*
X131198446Y-88408292D01*
X131233005Y-88389820D01*
X131270501Y-88378445D01*
X131315638Y-88374000D01*
X132054362Y-88374000D01*
X132099499Y-88378445D01*
X132099499Y-88378445D01*
G37*
G36*
X130349499Y-88378445D02*
G01*
X130386995Y-88389820D01*
X130421554Y-88408292D01*
X130451847Y-88433153D01*
X130476708Y-88463446D01*
X130495180Y-88498005D01*
X130506555Y-88535501D01*
X130511000Y-88580638D01*
X130511000Y-89219362D01*
X130506555Y-89264499D01*
X130495180Y-89301995D01*
X130476708Y-89336554D01*
X130451847Y-89366847D01*
X130421554Y-89391708D01*
X130386995Y-89410180D01*
X130349499Y-89421555D01*
X130304362Y-89426000D01*
X129565638Y-89426000D01*
X129520501Y-89421555D01*
X129483005Y-89410180D01*
X129448446Y-89391708D01*
X129418153Y-89366847D01*
X129393292Y-89336554D01*
X129374820Y-89301995D01*
X129363445Y-89264499D01*
X129359000Y-89219362D01*
X129359000Y-88580638D01*
X129363445Y-88535501D01*
X129374820Y-88498005D01*
X129393292Y-88463446D01*
X129418153Y-88433153D01*
X129448446Y-88408292D01*
X129483005Y-88389820D01*
X129520501Y-88378445D01*
X129565638Y-88374000D01*
X130304362Y-88374000D01*
X130349499Y-88378445D01*
X130349499Y-88378445D01*
G37*
G36*
X128380499Y-88215445D02*
G01*
X128417995Y-88226820D01*
X128452554Y-88245292D01*
X128482847Y-88270153D01*
X128507708Y-88300446D01*
X128526180Y-88335005D01*
X128537555Y-88372501D01*
X128542000Y-88417638D01*
X128542000Y-89156362D01*
X128537555Y-89201499D01*
X128526180Y-89238995D01*
X128507708Y-89273554D01*
X128482847Y-89303847D01*
X128452554Y-89328708D01*
X128417995Y-89347180D01*
X128380499Y-89358555D01*
X128335362Y-89363000D01*
X127696638Y-89363000D01*
X127651501Y-89358555D01*
X127614005Y-89347180D01*
X127579446Y-89328708D01*
X127549153Y-89303847D01*
X127524292Y-89273554D01*
X127505820Y-89238995D01*
X127494445Y-89201499D01*
X127490000Y-89156362D01*
X127490000Y-88417638D01*
X127494445Y-88372501D01*
X127505820Y-88335005D01*
X127524292Y-88300446D01*
X127549153Y-88270153D01*
X127579446Y-88245292D01*
X127614005Y-88226820D01*
X127651501Y-88215445D01*
X127696638Y-88211000D01*
X128335362Y-88211000D01*
X128380499Y-88215445D01*
X128380499Y-88215445D01*
G37*
G36*
X146069499Y-86092445D02*
G01*
X146106995Y-86103820D01*
X146141554Y-86122292D01*
X146171847Y-86147153D01*
X146196708Y-86177446D01*
X146215180Y-86212005D01*
X146226555Y-86249501D01*
X146231000Y-86294638D01*
X146231000Y-86933362D01*
X146226555Y-86978499D01*
X146215180Y-87015995D01*
X146196708Y-87050554D01*
X146171847Y-87080847D01*
X146141554Y-87105708D01*
X146106995Y-87124180D01*
X146069499Y-87135555D01*
X146024362Y-87140000D01*
X145285638Y-87140000D01*
X145240501Y-87135555D01*
X145203005Y-87124180D01*
X145168446Y-87105708D01*
X145138153Y-87080847D01*
X145113292Y-87050554D01*
X145094820Y-87015995D01*
X145083445Y-86978499D01*
X145079000Y-86933362D01*
X145079000Y-86294638D01*
X145083445Y-86249501D01*
X145094820Y-86212005D01*
X145113292Y-86177446D01*
X145138153Y-86147153D01*
X145168446Y-86122292D01*
X145203005Y-86103820D01*
X145240501Y-86092445D01*
X145285638Y-86088000D01*
X146024362Y-86088000D01*
X146069499Y-86092445D01*
X146069499Y-86092445D01*
G37*
G36*
X144319499Y-86092445D02*
G01*
X144356995Y-86103820D01*
X144391554Y-86122292D01*
X144421847Y-86147153D01*
X144446708Y-86177446D01*
X144465180Y-86212005D01*
X144476555Y-86249501D01*
X144481000Y-86294638D01*
X144481000Y-86933362D01*
X144476555Y-86978499D01*
X144465180Y-87015995D01*
X144446708Y-87050554D01*
X144421847Y-87080847D01*
X144391554Y-87105708D01*
X144356995Y-87124180D01*
X144319499Y-87135555D01*
X144274362Y-87140000D01*
X143535638Y-87140000D01*
X143490501Y-87135555D01*
X143453005Y-87124180D01*
X143418446Y-87105708D01*
X143388153Y-87080847D01*
X143363292Y-87050554D01*
X143344820Y-87015995D01*
X143333445Y-86978499D01*
X143329000Y-86933362D01*
X143329000Y-86294638D01*
X143333445Y-86249501D01*
X143344820Y-86212005D01*
X143363292Y-86177446D01*
X143388153Y-86147153D01*
X143418446Y-86122292D01*
X143453005Y-86103820D01*
X143490501Y-86092445D01*
X143535638Y-86088000D01*
X144274362Y-86088000D01*
X144319499Y-86092445D01*
X144319499Y-86092445D01*
G37*
G36*
X136000443Y-85211519D02*
G01*
X136066627Y-85218037D01*
X136236466Y-85269557D01*
X136392991Y-85353222D01*
X136428729Y-85382552D01*
X136530186Y-85465814D01*
X136613448Y-85567271D01*
X136642778Y-85603009D01*
X136726443Y-85759534D01*
X136777963Y-85929373D01*
X136795359Y-86106000D01*
X136777963Y-86282627D01*
X136726443Y-86452466D01*
X136642778Y-86608991D01*
X136613448Y-86644729D01*
X136530186Y-86746186D01*
X136428729Y-86829448D01*
X136392991Y-86858778D01*
X136236466Y-86942443D01*
X136066627Y-86993963D01*
X136000442Y-87000482D01*
X135934260Y-87007000D01*
X135845740Y-87007000D01*
X135779558Y-87000482D01*
X135713373Y-86993963D01*
X135543534Y-86942443D01*
X135387009Y-86858778D01*
X135351271Y-86829448D01*
X135249814Y-86746186D01*
X135166552Y-86644729D01*
X135137222Y-86608991D01*
X135053557Y-86452466D01*
X135002037Y-86282627D01*
X134984641Y-86106000D01*
X135002037Y-85929373D01*
X135053557Y-85759534D01*
X135137222Y-85603009D01*
X135166552Y-85567271D01*
X135249814Y-85465814D01*
X135351271Y-85382552D01*
X135387009Y-85353222D01*
X135543534Y-85269557D01*
X135713373Y-85218037D01*
X135779557Y-85211519D01*
X135845740Y-85205000D01*
X135934260Y-85205000D01*
X136000443Y-85211519D01*
X136000443Y-85211519D01*
G37*
G36*
X151240443Y-85211519D02*
G01*
X151306627Y-85218037D01*
X151476466Y-85269557D01*
X151632991Y-85353222D01*
X151668729Y-85382552D01*
X151770186Y-85465814D01*
X151853448Y-85567271D01*
X151882778Y-85603009D01*
X151966443Y-85759534D01*
X152017963Y-85929373D01*
X152035359Y-86106000D01*
X152017963Y-86282627D01*
X151966443Y-86452466D01*
X151882778Y-86608991D01*
X151853448Y-86644729D01*
X151770186Y-86746186D01*
X151668729Y-86829448D01*
X151632991Y-86858778D01*
X151476466Y-86942443D01*
X151306627Y-86993963D01*
X151240442Y-87000482D01*
X151174260Y-87007000D01*
X151085740Y-87007000D01*
X151019558Y-87000482D01*
X150953373Y-86993963D01*
X150783534Y-86942443D01*
X150627009Y-86858778D01*
X150591271Y-86829448D01*
X150489814Y-86746186D01*
X150406552Y-86644729D01*
X150377222Y-86608991D01*
X150293557Y-86452466D01*
X150242037Y-86282627D01*
X150224641Y-86106000D01*
X150242037Y-85929373D01*
X150293557Y-85759534D01*
X150377222Y-85603009D01*
X150406552Y-85567271D01*
X150489814Y-85465814D01*
X150591271Y-85382552D01*
X150627009Y-85353222D01*
X150783534Y-85269557D01*
X150953373Y-85218037D01*
X151019557Y-85211519D01*
X151085740Y-85205000D01*
X151174260Y-85205000D01*
X151240443Y-85211519D01*
X151240443Y-85211519D01*
G37*
G36*
X153780443Y-85211519D02*
G01*
X153846627Y-85218037D01*
X154016466Y-85269557D01*
X154172991Y-85353222D01*
X154208729Y-85382552D01*
X154310186Y-85465814D01*
X154393448Y-85567271D01*
X154422778Y-85603009D01*
X154506443Y-85759534D01*
X154557963Y-85929373D01*
X154575359Y-86106000D01*
X154557963Y-86282627D01*
X154506443Y-86452466D01*
X154422778Y-86608991D01*
X154393448Y-86644729D01*
X154310186Y-86746186D01*
X154208729Y-86829448D01*
X154172991Y-86858778D01*
X154016466Y-86942443D01*
X153846627Y-86993963D01*
X153780442Y-87000482D01*
X153714260Y-87007000D01*
X153625740Y-87007000D01*
X153559558Y-87000482D01*
X153493373Y-86993963D01*
X153323534Y-86942443D01*
X153167009Y-86858778D01*
X153131271Y-86829448D01*
X153029814Y-86746186D01*
X152946552Y-86644729D01*
X152917222Y-86608991D01*
X152833557Y-86452466D01*
X152782037Y-86282627D01*
X152764641Y-86106000D01*
X152782037Y-85929373D01*
X152833557Y-85759534D01*
X152917222Y-85603009D01*
X152946552Y-85567271D01*
X153029814Y-85465814D01*
X153131271Y-85382552D01*
X153167009Y-85353222D01*
X153323534Y-85269557D01*
X153493373Y-85218037D01*
X153559557Y-85211519D01*
X153625740Y-85205000D01*
X153714260Y-85205000D01*
X153780443Y-85211519D01*
X153780443Y-85211519D01*
G37*
G36*
X156320443Y-85211519D02*
G01*
X156386627Y-85218037D01*
X156556466Y-85269557D01*
X156712991Y-85353222D01*
X156748729Y-85382552D01*
X156850186Y-85465814D01*
X156933448Y-85567271D01*
X156962778Y-85603009D01*
X157046443Y-85759534D01*
X157097963Y-85929373D01*
X157115359Y-86106000D01*
X157097963Y-86282627D01*
X157046443Y-86452466D01*
X156962778Y-86608991D01*
X156933448Y-86644729D01*
X156850186Y-86746186D01*
X156748729Y-86829448D01*
X156712991Y-86858778D01*
X156556466Y-86942443D01*
X156386627Y-86993963D01*
X156320442Y-87000482D01*
X156254260Y-87007000D01*
X156165740Y-87007000D01*
X156099558Y-87000482D01*
X156033373Y-86993963D01*
X155863534Y-86942443D01*
X155707009Y-86858778D01*
X155671271Y-86829448D01*
X155569814Y-86746186D01*
X155486552Y-86644729D01*
X155457222Y-86608991D01*
X155373557Y-86452466D01*
X155322037Y-86282627D01*
X155304641Y-86106000D01*
X155322037Y-85929373D01*
X155373557Y-85759534D01*
X155457222Y-85603009D01*
X155486552Y-85567271D01*
X155569814Y-85465814D01*
X155671271Y-85382552D01*
X155707009Y-85353222D01*
X155863534Y-85269557D01*
X156033373Y-85218037D01*
X156099557Y-85211519D01*
X156165740Y-85205000D01*
X156254260Y-85205000D01*
X156320443Y-85211519D01*
X156320443Y-85211519D01*
G37*
G36*
X158860443Y-85211519D02*
G01*
X158926627Y-85218037D01*
X159096466Y-85269557D01*
X159252991Y-85353222D01*
X159288729Y-85382552D01*
X159390186Y-85465814D01*
X159473448Y-85567271D01*
X159502778Y-85603009D01*
X159586443Y-85759534D01*
X159637963Y-85929373D01*
X159655359Y-86106000D01*
X159637963Y-86282627D01*
X159586443Y-86452466D01*
X159502778Y-86608991D01*
X159473448Y-86644729D01*
X159390186Y-86746186D01*
X159288729Y-86829448D01*
X159252991Y-86858778D01*
X159096466Y-86942443D01*
X158926627Y-86993963D01*
X158860442Y-87000482D01*
X158794260Y-87007000D01*
X158705740Y-87007000D01*
X158639558Y-87000482D01*
X158573373Y-86993963D01*
X158403534Y-86942443D01*
X158247009Y-86858778D01*
X158211271Y-86829448D01*
X158109814Y-86746186D01*
X158026552Y-86644729D01*
X157997222Y-86608991D01*
X157913557Y-86452466D01*
X157862037Y-86282627D01*
X157844641Y-86106000D01*
X157862037Y-85929373D01*
X157913557Y-85759534D01*
X157997222Y-85603009D01*
X158026552Y-85567271D01*
X158109814Y-85465814D01*
X158211271Y-85382552D01*
X158247009Y-85353222D01*
X158403534Y-85269557D01*
X158573373Y-85218037D01*
X158639557Y-85211519D01*
X158705740Y-85205000D01*
X158794260Y-85205000D01*
X158860443Y-85211519D01*
X158860443Y-85211519D01*
G37*
G36*
X161400443Y-85211519D02*
G01*
X161466627Y-85218037D01*
X161636466Y-85269557D01*
X161792991Y-85353222D01*
X161828729Y-85382552D01*
X161930186Y-85465814D01*
X162013448Y-85567271D01*
X162042778Y-85603009D01*
X162126443Y-85759534D01*
X162177963Y-85929373D01*
X162195359Y-86106000D01*
X162177963Y-86282627D01*
X162126443Y-86452466D01*
X162042778Y-86608991D01*
X162013448Y-86644729D01*
X161930186Y-86746186D01*
X161828729Y-86829448D01*
X161792991Y-86858778D01*
X161636466Y-86942443D01*
X161466627Y-86993963D01*
X161400442Y-87000482D01*
X161334260Y-87007000D01*
X161245740Y-87007000D01*
X161179558Y-87000482D01*
X161113373Y-86993963D01*
X160943534Y-86942443D01*
X160787009Y-86858778D01*
X160751271Y-86829448D01*
X160649814Y-86746186D01*
X160566552Y-86644729D01*
X160537222Y-86608991D01*
X160453557Y-86452466D01*
X160402037Y-86282627D01*
X160384641Y-86106000D01*
X160402037Y-85929373D01*
X160453557Y-85759534D01*
X160537222Y-85603009D01*
X160566552Y-85567271D01*
X160649814Y-85465814D01*
X160751271Y-85382552D01*
X160787009Y-85353222D01*
X160943534Y-85269557D01*
X161113373Y-85218037D01*
X161179557Y-85211519D01*
X161245740Y-85205000D01*
X161334260Y-85205000D01*
X161400443Y-85211519D01*
X161400443Y-85211519D01*
G37*
G36*
X163940443Y-85211519D02*
G01*
X164006627Y-85218037D01*
X164176466Y-85269557D01*
X164332991Y-85353222D01*
X164368729Y-85382552D01*
X164470186Y-85465814D01*
X164553448Y-85567271D01*
X164582778Y-85603009D01*
X164666443Y-85759534D01*
X164717963Y-85929373D01*
X164735359Y-86106000D01*
X164717963Y-86282627D01*
X164666443Y-86452466D01*
X164582778Y-86608991D01*
X164553448Y-86644729D01*
X164470186Y-86746186D01*
X164368729Y-86829448D01*
X164332991Y-86858778D01*
X164176466Y-86942443D01*
X164006627Y-86993963D01*
X163940442Y-87000482D01*
X163874260Y-87007000D01*
X163785740Y-87007000D01*
X163719558Y-87000482D01*
X163653373Y-86993963D01*
X163483534Y-86942443D01*
X163327009Y-86858778D01*
X163291271Y-86829448D01*
X163189814Y-86746186D01*
X163106552Y-86644729D01*
X163077222Y-86608991D01*
X162993557Y-86452466D01*
X162942037Y-86282627D01*
X162924641Y-86106000D01*
X162942037Y-85929373D01*
X162993557Y-85759534D01*
X163077222Y-85603009D01*
X163106552Y-85567271D01*
X163189814Y-85465814D01*
X163291271Y-85382552D01*
X163327009Y-85353222D01*
X163483534Y-85269557D01*
X163653373Y-85218037D01*
X163719557Y-85211519D01*
X163785740Y-85205000D01*
X163874260Y-85205000D01*
X163940443Y-85211519D01*
X163940443Y-85211519D01*
G37*
G36*
X149491000Y-87007000D02*
G01*
X147689000Y-87007000D01*
X147689000Y-85205000D01*
X149491000Y-85205000D01*
X149491000Y-87007000D01*
X149491000Y-87007000D01*
G37*
G36*
X138540443Y-85211519D02*
G01*
X138606627Y-85218037D01*
X138776466Y-85269557D01*
X138932991Y-85353222D01*
X138968729Y-85382552D01*
X139070186Y-85465814D01*
X139153448Y-85567271D01*
X139182778Y-85603009D01*
X139266443Y-85759534D01*
X139317963Y-85929373D01*
X139335359Y-86106000D01*
X139317963Y-86282627D01*
X139266443Y-86452466D01*
X139182778Y-86608991D01*
X139153448Y-86644729D01*
X139070186Y-86746186D01*
X138968729Y-86829448D01*
X138932991Y-86858778D01*
X138776466Y-86942443D01*
X138606627Y-86993963D01*
X138540442Y-87000482D01*
X138474260Y-87007000D01*
X138385740Y-87007000D01*
X138319558Y-87000482D01*
X138253373Y-86993963D01*
X138083534Y-86942443D01*
X137927009Y-86858778D01*
X137891271Y-86829448D01*
X137789814Y-86746186D01*
X137706552Y-86644729D01*
X137677222Y-86608991D01*
X137593557Y-86452466D01*
X137542037Y-86282627D01*
X137524641Y-86106000D01*
X137542037Y-85929373D01*
X137593557Y-85759534D01*
X137677222Y-85603009D01*
X137706552Y-85567271D01*
X137789814Y-85465814D01*
X137891271Y-85382552D01*
X137927009Y-85353222D01*
X138083534Y-85269557D01*
X138253373Y-85218037D01*
X138319557Y-85211519D01*
X138385740Y-85205000D01*
X138474260Y-85205000D01*
X138540443Y-85211519D01*
X138540443Y-85211519D01*
G37*
G36*
X133460443Y-85211519D02*
G01*
X133526627Y-85218037D01*
X133696466Y-85269557D01*
X133852991Y-85353222D01*
X133888729Y-85382552D01*
X133990186Y-85465814D01*
X134073448Y-85567271D01*
X134102778Y-85603009D01*
X134186443Y-85759534D01*
X134237963Y-85929373D01*
X134255359Y-86106000D01*
X134237963Y-86282627D01*
X134186443Y-86452466D01*
X134102778Y-86608991D01*
X134073448Y-86644729D01*
X133990186Y-86746186D01*
X133888729Y-86829448D01*
X133852991Y-86858778D01*
X133696466Y-86942443D01*
X133526627Y-86993963D01*
X133460442Y-87000482D01*
X133394260Y-87007000D01*
X133305740Y-87007000D01*
X133239558Y-87000482D01*
X133173373Y-86993963D01*
X133003534Y-86942443D01*
X132847009Y-86858778D01*
X132811271Y-86829448D01*
X132709814Y-86746186D01*
X132626552Y-86644729D01*
X132597222Y-86608991D01*
X132513557Y-86452466D01*
X132462037Y-86282627D01*
X132444641Y-86106000D01*
X132462037Y-85929373D01*
X132513557Y-85759534D01*
X132597222Y-85603009D01*
X132626552Y-85567271D01*
X132709814Y-85465814D01*
X132811271Y-85382552D01*
X132847009Y-85353222D01*
X133003534Y-85269557D01*
X133173373Y-85218037D01*
X133239557Y-85211519D01*
X133305740Y-85205000D01*
X133394260Y-85205000D01*
X133460443Y-85211519D01*
X133460443Y-85211519D01*
G37*
G36*
X130920443Y-85211519D02*
G01*
X130986627Y-85218037D01*
X131156466Y-85269557D01*
X131312991Y-85353222D01*
X131348729Y-85382552D01*
X131450186Y-85465814D01*
X131533448Y-85567271D01*
X131562778Y-85603009D01*
X131646443Y-85759534D01*
X131697963Y-85929373D01*
X131715359Y-86106000D01*
X131697963Y-86282627D01*
X131646443Y-86452466D01*
X131562778Y-86608991D01*
X131533448Y-86644729D01*
X131450186Y-86746186D01*
X131348729Y-86829448D01*
X131312991Y-86858778D01*
X131156466Y-86942443D01*
X130986627Y-86993963D01*
X130920442Y-87000482D01*
X130854260Y-87007000D01*
X130765740Y-87007000D01*
X130699558Y-87000482D01*
X130633373Y-86993963D01*
X130463534Y-86942443D01*
X130307009Y-86858778D01*
X130271271Y-86829448D01*
X130169814Y-86746186D01*
X130086552Y-86644729D01*
X130057222Y-86608991D01*
X129973557Y-86452466D01*
X129922037Y-86282627D01*
X129904641Y-86106000D01*
X129922037Y-85929373D01*
X129973557Y-85759534D01*
X130057222Y-85603009D01*
X130086552Y-85567271D01*
X130169814Y-85465814D01*
X130271271Y-85382552D01*
X130307009Y-85353222D01*
X130463534Y-85269557D01*
X130633373Y-85218037D01*
X130699557Y-85211519D01*
X130765740Y-85205000D01*
X130854260Y-85205000D01*
X130920443Y-85211519D01*
X130920443Y-85211519D01*
G37*
G36*
X128380443Y-85211519D02*
G01*
X128446627Y-85218037D01*
X128616466Y-85269557D01*
X128772991Y-85353222D01*
X128808729Y-85382552D01*
X128910186Y-85465814D01*
X128993448Y-85567271D01*
X129022778Y-85603009D01*
X129106443Y-85759534D01*
X129157963Y-85929373D01*
X129175359Y-86106000D01*
X129157963Y-86282627D01*
X129106443Y-86452466D01*
X129022778Y-86608991D01*
X128993448Y-86644729D01*
X128910186Y-86746186D01*
X128808729Y-86829448D01*
X128772991Y-86858778D01*
X128616466Y-86942443D01*
X128446627Y-86993963D01*
X128380442Y-87000482D01*
X128314260Y-87007000D01*
X128225740Y-87007000D01*
X128159558Y-87000482D01*
X128093373Y-86993963D01*
X127923534Y-86942443D01*
X127767009Y-86858778D01*
X127731271Y-86829448D01*
X127629814Y-86746186D01*
X127546552Y-86644729D01*
X127517222Y-86608991D01*
X127433557Y-86452466D01*
X127382037Y-86282627D01*
X127364641Y-86106000D01*
X127382037Y-85929373D01*
X127433557Y-85759534D01*
X127517222Y-85603009D01*
X127546552Y-85567271D01*
X127629814Y-85465814D01*
X127731271Y-85382552D01*
X127767009Y-85353222D01*
X127923534Y-85269557D01*
X128093373Y-85218037D01*
X128159557Y-85211519D01*
X128225740Y-85205000D01*
X128314260Y-85205000D01*
X128380443Y-85211519D01*
X128380443Y-85211519D01*
G37*
G36*
X126631000Y-87007000D02*
G01*
X124829000Y-87007000D01*
X124829000Y-85205000D01*
X126631000Y-85205000D01*
X126631000Y-87007000D01*
X126631000Y-87007000D01*
G37*
G36*
X141080443Y-85211519D02*
G01*
X141146627Y-85218037D01*
X141316466Y-85269557D01*
X141472991Y-85353222D01*
X141508729Y-85382552D01*
X141610186Y-85465814D01*
X141693448Y-85567271D01*
X141722778Y-85603009D01*
X141806443Y-85759534D01*
X141857963Y-85929373D01*
X141875359Y-86106000D01*
X141857963Y-86282627D01*
X141806443Y-86452466D01*
X141722778Y-86608991D01*
X141693448Y-86644729D01*
X141610186Y-86746186D01*
X141508729Y-86829448D01*
X141472991Y-86858778D01*
X141316466Y-86942443D01*
X141146627Y-86993963D01*
X141080442Y-87000482D01*
X141014260Y-87007000D01*
X140925740Y-87007000D01*
X140859558Y-87000482D01*
X140793373Y-86993963D01*
X140623534Y-86942443D01*
X140467009Y-86858778D01*
X140431271Y-86829448D01*
X140329814Y-86746186D01*
X140246552Y-86644729D01*
X140217222Y-86608991D01*
X140133557Y-86452466D01*
X140082037Y-86282627D01*
X140064641Y-86106000D01*
X140082037Y-85929373D01*
X140133557Y-85759534D01*
X140217222Y-85603009D01*
X140246552Y-85567271D01*
X140329814Y-85465814D01*
X140431271Y-85382552D01*
X140467009Y-85353222D01*
X140623534Y-85269557D01*
X140793373Y-85218037D01*
X140859557Y-85211519D01*
X140925740Y-85205000D01*
X141014260Y-85205000D01*
X141080443Y-85211519D01*
X141080443Y-85211519D01*
G37*
G36*
X146069499Y-84314445D02*
G01*
X146106995Y-84325820D01*
X146141554Y-84344292D01*
X146171847Y-84369153D01*
X146196708Y-84399446D01*
X146215180Y-84434005D01*
X146226555Y-84471501D01*
X146231000Y-84516638D01*
X146231000Y-85155362D01*
X146226555Y-85200499D01*
X146215180Y-85237995D01*
X146196708Y-85272554D01*
X146171847Y-85302847D01*
X146141554Y-85327708D01*
X146106995Y-85346180D01*
X146069499Y-85357555D01*
X146024362Y-85362000D01*
X145285638Y-85362000D01*
X145240501Y-85357555D01*
X145203005Y-85346180D01*
X145168446Y-85327708D01*
X145138153Y-85302847D01*
X145113292Y-85272554D01*
X145094820Y-85237995D01*
X145083445Y-85200499D01*
X145079000Y-85155362D01*
X145079000Y-84516638D01*
X145083445Y-84471501D01*
X145094820Y-84434005D01*
X145113292Y-84399446D01*
X145138153Y-84369153D01*
X145168446Y-84344292D01*
X145203005Y-84325820D01*
X145240501Y-84314445D01*
X145285638Y-84310000D01*
X146024362Y-84310000D01*
X146069499Y-84314445D01*
X146069499Y-84314445D01*
G37*
G36*
X144319499Y-84314445D02*
G01*
X144356995Y-84325820D01*
X144391554Y-84344292D01*
X144421847Y-84369153D01*
X144446708Y-84399446D01*
X144465180Y-84434005D01*
X144476555Y-84471501D01*
X144481000Y-84516638D01*
X144481000Y-85155362D01*
X144476555Y-85200499D01*
X144465180Y-85237995D01*
X144446708Y-85272554D01*
X144421847Y-85302847D01*
X144391554Y-85327708D01*
X144356995Y-85346180D01*
X144319499Y-85357555D01*
X144274362Y-85362000D01*
X143535638Y-85362000D01*
X143490501Y-85357555D01*
X143453005Y-85346180D01*
X143418446Y-85327708D01*
X143388153Y-85302847D01*
X143363292Y-85272554D01*
X143344820Y-85237995D01*
X143333445Y-85200499D01*
X143329000Y-85155362D01*
X143329000Y-84516638D01*
X143333445Y-84471501D01*
X143344820Y-84434005D01*
X143363292Y-84399446D01*
X143388153Y-84369153D01*
X143418446Y-84344292D01*
X143453005Y-84325820D01*
X143490501Y-84314445D01*
X143535638Y-84310000D01*
X144274362Y-84310000D01*
X144319499Y-84314445D01*
X144319499Y-84314445D01*
G37*
M02*
