%TF.GenerationSoftware,KiCad,Pcbnew,(5.1.2)-2*%
%TF.CreationDate,2019-11-25T16:57:59+01:00*%
%TF.ProjectId,nanoSAMD21E18v1,6e616e6f-5341-44d4-9432-314531387631,rev?*%
%TF.SameCoordinates,Original*%
%TF.FileFunction,Plated,1,2,PTH,Mixed*%
%TF.FilePolarity,Positive*%
%FSLAX46Y46*%
G04 Gerber Fmt 4.6, Leading zero omitted, Abs format (unit mm)*
G04 Created by KiCad (PCBNEW (5.1.2)-2) date 2019-11-25 16:57:59*
%MOMM*%
%LPD*%
G04 APERTURE LIST*
%TA.AperFunction,ViaDrill*%
%ADD10C,0.400000*%
%TD*%
%TA.AperFunction,ComponentDrill*%
%ADD11C,0.500000*%
%TD*%
%TA.AperFunction,Slot*%
%ADD12C,0.650000*%
%TD*%
%TA.AperFunction,ComponentDrill*%
%ADD13C,0.650000*%
%TD*%
%TA.AperFunction,Slot*%
%ADD14C,0.700000*%
%TD*%
%TA.AperFunction,ComponentDrill*%
%ADD15C,1.000000*%
%TD*%
G04 APERTURE END LIST*
D10*
X126945000Y-92400998D03*
X133436274Y-97734109D03*
X134366000Y-98351594D03*
X135115420Y-94969492D03*
X135188730Y-95946758D03*
X135382000Y-97992808D03*
X136906000Y-88772996D03*
X136928222Y-90047216D03*
X137160000Y-98298000D03*
X137922000Y-97282000D03*
X138938000Y-98298000D03*
X140815840Y-98125990D03*
X142747993Y-85852007D03*
X143129000Y-95250000D03*
X145024964Y-93290954D03*
X145034000Y-92202000D03*
X145654994Y-85964994D03*
X146050000Y-94361000D03*
X146394011Y-92247010D03*
X146544816Y-93515081D03*
X147066000Y-95504000D03*
X147066000Y-99568000D03*
X147209902Y-92795300D03*
X147701002Y-88360010D03*
X148987282Y-98408718D03*
X150241002Y-90043000D03*
X152908000Y-97917000D03*
X154813000Y-97917000D03*
X160020000Y-99314000D03*
D11*
%TO.C,Y1*%
X152146000Y-90932000D03*
X153489503Y-89588497D03*
D12*
%TO.C,J6*%
X125529000Y-91281000D02*
X125129000Y-91281000D01*
X125529000Y-96121000D02*
X125129000Y-96121000D01*
D13*
%TO.C,J5*%
X164592000Y-91186000D03*
X164592000Y-92456000D03*
X164592000Y-93726000D03*
X164592000Y-94996000D03*
X164592000Y-96266000D03*
X165862000Y-91186000D03*
X165862000Y-92456000D03*
X165862000Y-93726000D03*
X165862000Y-94996000D03*
X165862000Y-96266000D03*
D14*
%TO.C,J6*%
X122579000Y-90971000D02*
X122079000Y-90971000D01*
X122579000Y-96431000D02*
X122079000Y-96431000D01*
D15*
%TO.C,J1*%
X125730000Y-101346000D03*
X128270000Y-101346000D03*
X130810000Y-101346000D03*
X133350000Y-101346000D03*
X135890000Y-101346000D03*
X138430000Y-101346000D03*
X140970000Y-101346000D03*
%TO.C,J4*%
X148590000Y-86106000D03*
X151130000Y-86106000D03*
X153670000Y-86106000D03*
X156210000Y-86106000D03*
X158750000Y-86106000D03*
X161290000Y-86106000D03*
X163830000Y-86106000D03*
%TO.C,J2*%
X148590000Y-101346000D03*
X151130000Y-101346000D03*
X153670000Y-101346000D03*
X156210000Y-101346000D03*
X158750000Y-101346000D03*
X161290000Y-101346000D03*
X163830000Y-101346000D03*
%TO.C,J3*%
X125730000Y-86106000D03*
X128270000Y-86106000D03*
X130810000Y-86106000D03*
X133350000Y-86106000D03*
X135890000Y-86106000D03*
X138430000Y-86106000D03*
X140970000Y-86106000D03*
M02*
