G04 #@! TF.GenerationSoftware,KiCad,Pcbnew,(5.1.2)-2*
G04 #@! TF.CreationDate,2019-11-25T16:57:55+01:00*
G04 #@! TF.ProjectId,nanoSAMD21E18v1,6e616e6f-5341-44d4-9432-314531387631,rev?*
G04 #@! TF.SameCoordinates,Original*
G04 #@! TF.FileFunction,Legend,Bot*
G04 #@! TF.FilePolarity,Positive*
%FSLAX46Y46*%
G04 Gerber Fmt 4.6, Leading zero omitted, Abs format (unit mm)*
G04 Created by KiCad (PCBNEW (5.1.2)-2) date 2019-11-25 16:57:55*
%MOMM*%
%LPD*%
G04 APERTURE LIST*
%ADD10C,0.150000*%
%ADD11C,0.120000*%
%ADD12C,0.010000*%
G04 APERTURE END LIST*
D10*
X162557785Y-93946571D02*
X162343500Y-94032285D01*
X161986357Y-94032285D01*
X161843500Y-93946571D01*
X161772071Y-93860857D01*
X161700642Y-93689428D01*
X161700642Y-93518000D01*
X161772071Y-93346571D01*
X161843500Y-93260857D01*
X161986357Y-93175142D01*
X162272071Y-93089428D01*
X162414928Y-93003714D01*
X162486357Y-92918000D01*
X162557785Y-92746571D01*
X162557785Y-92575142D01*
X162486357Y-92403714D01*
X162414928Y-92318000D01*
X162272071Y-92232285D01*
X161914928Y-92232285D01*
X161700642Y-92318000D01*
X161129214Y-93518000D02*
X160414928Y-93518000D01*
X161272071Y-94032285D02*
X160772071Y-92232285D01*
X160272071Y-94032285D01*
X159772071Y-94032285D02*
X159772071Y-92232285D01*
X159272071Y-93518000D01*
X158772071Y-92232285D01*
X158772071Y-94032285D01*
X158057785Y-94032285D02*
X158057785Y-92232285D01*
X157700642Y-92232285D01*
X157486357Y-92318000D01*
X157343500Y-92489428D01*
X157272071Y-92660857D01*
X157200642Y-93003714D01*
X157200642Y-93260857D01*
X157272071Y-93603714D01*
X157343500Y-93775142D01*
X157486357Y-93946571D01*
X157700642Y-94032285D01*
X158057785Y-94032285D01*
X156629214Y-92403714D02*
X156557785Y-92318000D01*
X156414928Y-92232285D01*
X156057785Y-92232285D01*
X155914928Y-92318000D01*
X155843500Y-92403714D01*
X155772071Y-92575142D01*
X155772071Y-92746571D01*
X155843500Y-93003714D01*
X156700642Y-94032285D01*
X155772071Y-94032285D01*
X154343500Y-94032285D02*
X155200642Y-94032285D01*
X154772071Y-94032285D02*
X154772071Y-92232285D01*
X154914928Y-92489428D01*
X155057785Y-92660857D01*
X155200642Y-92746571D01*
X153700642Y-93089428D02*
X153200642Y-93089428D01*
X152986357Y-94032285D02*
X153700642Y-94032285D01*
X153700642Y-92232285D01*
X152986357Y-92232285D01*
X162030714Y-94477000D02*
X162173571Y-94391285D01*
X162387857Y-94391285D01*
X162602142Y-94477000D01*
X162745000Y-94648428D01*
X162816428Y-94819857D01*
X162887857Y-95162714D01*
X162887857Y-95419857D01*
X162816428Y-95762714D01*
X162745000Y-95934142D01*
X162602142Y-96105571D01*
X162387857Y-96191285D01*
X162245000Y-96191285D01*
X162030714Y-96105571D01*
X161959285Y-96019857D01*
X161959285Y-95419857D01*
X162245000Y-95419857D01*
X161316428Y-95248428D02*
X160816428Y-95248428D01*
X160602142Y-96191285D02*
X161316428Y-96191285D01*
X161316428Y-94391285D01*
X160602142Y-94391285D01*
X159959285Y-96191285D02*
X159959285Y-94391285D01*
X159245000Y-96191285D02*
X159245000Y-94391285D01*
X158530714Y-95505571D02*
X157387857Y-95505571D01*
X156673571Y-96191285D02*
X156673571Y-94391285D01*
X155959285Y-94391285D02*
X155959285Y-95848428D01*
X155887857Y-96019857D01*
X155816428Y-96105571D01*
X155673571Y-96191285D01*
X155387857Y-96191285D01*
X155245000Y-96105571D01*
X155173571Y-96019857D01*
X155102142Y-95848428D01*
X155102142Y-94391285D01*
X154602142Y-94391285D02*
X153745000Y-94391285D01*
X154173571Y-96191285D02*
X154173571Y-94391285D01*
X150959285Y-96191285D02*
X150959285Y-94391285D01*
X150102142Y-96191285D01*
X150102142Y-94391285D01*
X148745000Y-96191285D02*
X148745000Y-95248428D01*
X148816428Y-95077000D01*
X148959285Y-94991285D01*
X149245000Y-94991285D01*
X149387857Y-95077000D01*
X148745000Y-96105571D02*
X148887857Y-96191285D01*
X149245000Y-96191285D01*
X149387857Y-96105571D01*
X149459285Y-95934142D01*
X149459285Y-95762714D01*
X149387857Y-95591285D01*
X149245000Y-95505571D01*
X148887857Y-95505571D01*
X148745000Y-95419857D01*
X148030714Y-94991285D02*
X148030714Y-96191285D01*
X148030714Y-95162714D02*
X147959285Y-95077000D01*
X147816428Y-94991285D01*
X147602142Y-94991285D01*
X147459285Y-95077000D01*
X147387857Y-95248428D01*
X147387857Y-96191285D01*
X146887857Y-94991285D02*
X146316428Y-94991285D01*
X146673571Y-94391285D02*
X146673571Y-95934142D01*
X146602142Y-96105571D01*
X146459285Y-96191285D01*
X146316428Y-96191285D01*
X145245000Y-96105571D02*
X145387857Y-96191285D01*
X145673571Y-96191285D01*
X145816428Y-96105571D01*
X145887857Y-95934142D01*
X145887857Y-95248428D01*
X145816428Y-95077000D01*
X145673571Y-94991285D01*
X145387857Y-94991285D01*
X145245000Y-95077000D01*
X145173571Y-95248428D01*
X145173571Y-95419857D01*
X145887857Y-95591285D01*
X144602142Y-96105571D02*
X144459285Y-96191285D01*
X144173571Y-96191285D01*
X144030714Y-96105571D01*
X143959285Y-95934142D01*
X143959285Y-95848428D01*
X144030714Y-95677000D01*
X144173571Y-95591285D01*
X144387857Y-95591285D01*
X144530714Y-95505571D01*
X144602142Y-95334142D01*
X144602142Y-95248428D01*
X144530714Y-95077000D01*
X144387857Y-94991285D01*
X144173571Y-94991285D01*
X144030714Y-95077000D01*
X142316428Y-94991285D02*
X141959285Y-96191285D01*
X141602142Y-94991285D01*
X140245000Y-96191285D02*
X141102142Y-96191285D01*
X140673571Y-96191285D02*
X140673571Y-94391285D01*
X140816428Y-94648428D01*
X140959285Y-94819857D01*
X141102142Y-94905571D01*
X139602142Y-96019857D02*
X139530714Y-96105571D01*
X139602142Y-96191285D01*
X139673571Y-96105571D01*
X139602142Y-96019857D01*
X139602142Y-96191285D01*
X138602142Y-94391285D02*
X138459285Y-94391285D01*
X138316428Y-94477000D01*
X138245000Y-94562714D01*
X138173571Y-94734142D01*
X138102142Y-95077000D01*
X138102142Y-95505571D01*
X138173571Y-95848428D01*
X138245000Y-96019857D01*
X138316428Y-96105571D01*
X138459285Y-96191285D01*
X138602142Y-96191285D01*
X138745000Y-96105571D01*
X138816428Y-96019857D01*
X138887857Y-95848428D01*
X138959285Y-95505571D01*
X138959285Y-95077000D01*
X138887857Y-94734142D01*
X138816428Y-94562714D01*
X138745000Y-94477000D01*
X138602142Y-94391285D01*
X162486357Y-91873285D02*
X162486357Y-90073285D01*
X161629214Y-91873285D01*
X161629214Y-90073285D01*
X160272071Y-91873285D02*
X160272071Y-90930428D01*
X160343500Y-90759000D01*
X160486357Y-90673285D01*
X160772071Y-90673285D01*
X160914928Y-90759000D01*
X160272071Y-91787571D02*
X160414928Y-91873285D01*
X160772071Y-91873285D01*
X160914928Y-91787571D01*
X160986357Y-91616142D01*
X160986357Y-91444714D01*
X160914928Y-91273285D01*
X160772071Y-91187571D01*
X160414928Y-91187571D01*
X160272071Y-91101857D01*
X159557785Y-90673285D02*
X159557785Y-91873285D01*
X159557785Y-90844714D02*
X159486357Y-90759000D01*
X159343500Y-90673285D01*
X159129214Y-90673285D01*
X158986357Y-90759000D01*
X158914928Y-90930428D01*
X158914928Y-91873285D01*
X157986357Y-91873285D02*
X158129214Y-91787571D01*
X158200642Y-91701857D01*
X158272071Y-91530428D01*
X158272071Y-91016142D01*
X158200642Y-90844714D01*
X158129214Y-90759000D01*
X157986357Y-90673285D01*
X157772071Y-90673285D01*
X157629214Y-90759000D01*
X157557785Y-90844714D01*
X157486357Y-91016142D01*
X157486357Y-91530428D01*
X157557785Y-91701857D01*
X157629214Y-91787571D01*
X157772071Y-91873285D01*
X157986357Y-91873285D01*
X125182380Y-97917095D02*
X125182380Y-98488523D01*
X126182380Y-98202809D02*
X125182380Y-98202809D01*
X125182380Y-98726619D02*
X126182380Y-99393285D01*
X125182380Y-99393285D02*
X126182380Y-98726619D01*
X128722380Y-98385333D02*
X128246190Y-98052000D01*
X128722380Y-97813904D02*
X127722380Y-97813904D01*
X127722380Y-98194857D01*
X127770000Y-98290095D01*
X127817619Y-98337714D01*
X127912857Y-98385333D01*
X128055714Y-98385333D01*
X128150952Y-98337714D01*
X128198571Y-98290095D01*
X128246190Y-98194857D01*
X128246190Y-97813904D01*
X127722380Y-98718666D02*
X128722380Y-99385333D01*
X127722380Y-99385333D02*
X128722380Y-98718666D01*
X130262380Y-98075809D02*
X130262380Y-98266285D01*
X130310000Y-98361523D01*
X130405238Y-98456761D01*
X130595714Y-98504380D01*
X130929047Y-98504380D01*
X131119523Y-98456761D01*
X131214761Y-98361523D01*
X131262380Y-98266285D01*
X131262380Y-98075809D01*
X131214761Y-97980571D01*
X131119523Y-97885333D01*
X130929047Y-97837714D01*
X130595714Y-97837714D01*
X130405238Y-97885333D01*
X130310000Y-97980571D01*
X130262380Y-98075809D01*
X130595714Y-98837714D02*
X131262380Y-99075809D01*
X130595714Y-99313904D01*
X132897619Y-98774285D02*
X132850000Y-98821904D01*
X132802380Y-98917142D01*
X132802380Y-99155238D01*
X132850000Y-99250476D01*
X132897619Y-99298095D01*
X132992857Y-99345714D01*
X133088095Y-99345714D01*
X133230952Y-99298095D01*
X133802380Y-98726666D01*
X133802380Y-99345714D01*
X135342380Y-98726666D02*
X135342380Y-99345714D01*
X135723333Y-99012380D01*
X135723333Y-99155238D01*
X135770952Y-99250476D01*
X135818571Y-99298095D01*
X135913809Y-99345714D01*
X136151904Y-99345714D01*
X136247142Y-99298095D01*
X136294761Y-99250476D01*
X136342380Y-99155238D01*
X136342380Y-98869523D01*
X136294761Y-98774285D01*
X136247142Y-98726666D01*
X138215714Y-99250476D02*
X138882380Y-99250476D01*
X137834761Y-99012380D02*
X138549047Y-98774285D01*
X138549047Y-99393333D01*
X140549380Y-99298095D02*
X140549380Y-98821904D01*
X141025571Y-98774285D01*
X140977952Y-98821904D01*
X140930333Y-98917142D01*
X140930333Y-99155238D01*
X140977952Y-99250476D01*
X141025571Y-99298095D01*
X141120809Y-99345714D01*
X141358904Y-99345714D01*
X141454142Y-99298095D01*
X141501761Y-99250476D01*
X141549380Y-99155238D01*
X141549380Y-98917142D01*
X141501761Y-98821904D01*
X141454142Y-98774285D01*
X148169380Y-99758476D02*
X148169380Y-99568000D01*
X148217000Y-99472761D01*
X148264619Y-99425142D01*
X148407476Y-99329904D01*
X148597952Y-99282285D01*
X148978904Y-99282285D01*
X149074142Y-99329904D01*
X149121761Y-99377523D01*
X149169380Y-99472761D01*
X149169380Y-99663238D01*
X149121761Y-99758476D01*
X149074142Y-99806095D01*
X148978904Y-99853714D01*
X148740809Y-99853714D01*
X148645571Y-99806095D01*
X148597952Y-99758476D01*
X148550333Y-99663238D01*
X148550333Y-99472761D01*
X148597952Y-99377523D01*
X148645571Y-99329904D01*
X148740809Y-99282285D01*
X150582380Y-98726666D02*
X150582380Y-99393333D01*
X151582380Y-98964761D01*
X164282380Y-98361523D02*
X164282380Y-97790095D01*
X164282380Y-98075809D02*
X163282380Y-98075809D01*
X163425238Y-97980571D01*
X163520476Y-97885333D01*
X163568095Y-97790095D01*
X163377619Y-98742476D02*
X163330000Y-98790095D01*
X163282380Y-98885333D01*
X163282380Y-99123428D01*
X163330000Y-99218666D01*
X163377619Y-99266285D01*
X163472857Y-99313904D01*
X163568095Y-99313904D01*
X163710952Y-99266285D01*
X164282380Y-98694857D01*
X164282380Y-99313904D01*
X161742380Y-98488523D02*
X161742380Y-97917095D01*
X161742380Y-98202809D02*
X160742380Y-98202809D01*
X160885238Y-98107571D01*
X160980476Y-98012333D01*
X161028095Y-97917095D01*
X161742380Y-99440904D02*
X161742380Y-98869476D01*
X161742380Y-99155190D02*
X160742380Y-99155190D01*
X160885238Y-99059952D01*
X160980476Y-98964714D01*
X161028095Y-98869476D01*
X159202380Y-98361523D02*
X159202380Y-97790095D01*
X159202380Y-98075809D02*
X158202380Y-98075809D01*
X158345238Y-97980571D01*
X158440476Y-97885333D01*
X158488095Y-97790095D01*
X158202380Y-98980571D02*
X158202380Y-99075809D01*
X158250000Y-99171047D01*
X158297619Y-99218666D01*
X158392857Y-99266285D01*
X158583333Y-99313904D01*
X158821428Y-99313904D01*
X159011904Y-99266285D01*
X159107142Y-99218666D01*
X159154761Y-99171047D01*
X159202380Y-99075809D01*
X159202380Y-98980571D01*
X159154761Y-98885333D01*
X159107142Y-98837714D01*
X159011904Y-98790095D01*
X158821428Y-98742476D01*
X158583333Y-98742476D01*
X158392857Y-98790095D01*
X158297619Y-98837714D01*
X158250000Y-98885333D01*
X158202380Y-98980571D01*
X156535380Y-98869523D02*
X156535380Y-99060000D01*
X156487761Y-99155238D01*
X156440142Y-99202857D01*
X156297285Y-99298095D01*
X156106809Y-99345714D01*
X155725857Y-99345714D01*
X155630619Y-99298095D01*
X155583000Y-99250476D01*
X155535380Y-99155238D01*
X155535380Y-98964761D01*
X155583000Y-98869523D01*
X155630619Y-98821904D01*
X155725857Y-98774285D01*
X155963952Y-98774285D01*
X156059190Y-98821904D01*
X156106809Y-98869523D01*
X156154428Y-98964761D01*
X156154428Y-99155238D01*
X156106809Y-99250476D01*
X156059190Y-99298095D01*
X155963952Y-99345714D01*
X153550952Y-98964761D02*
X153503333Y-98869523D01*
X153455714Y-98821904D01*
X153360476Y-98774285D01*
X153312857Y-98774285D01*
X153217619Y-98821904D01*
X153170000Y-98869523D01*
X153122380Y-98964761D01*
X153122380Y-99155238D01*
X153170000Y-99250476D01*
X153217619Y-99298095D01*
X153312857Y-99345714D01*
X153360476Y-99345714D01*
X153455714Y-99298095D01*
X153503333Y-99250476D01*
X153550952Y-99155238D01*
X153550952Y-98964761D01*
X153598571Y-98869523D01*
X153646190Y-98821904D01*
X153741428Y-98774285D01*
X153931904Y-98774285D01*
X154027142Y-98821904D01*
X154074761Y-98869523D01*
X154122380Y-98964761D01*
X154122380Y-99155238D01*
X154074761Y-99250476D01*
X154027142Y-99298095D01*
X153931904Y-99345714D01*
X153741428Y-99345714D01*
X153646190Y-99298095D01*
X153598571Y-99250476D01*
X153550952Y-99155238D01*
X125055380Y-88630142D02*
X125055380Y-88153952D01*
X125531571Y-88106333D01*
X125483952Y-88153952D01*
X125436333Y-88249190D01*
X125436333Y-88487285D01*
X125483952Y-88582523D01*
X125531571Y-88630142D01*
X125626809Y-88677761D01*
X125864904Y-88677761D01*
X125960142Y-88630142D01*
X126007761Y-88582523D01*
X126055380Y-88487285D01*
X126055380Y-88249190D01*
X126007761Y-88153952D01*
X125960142Y-88106333D01*
X125388714Y-89011095D02*
X126055380Y-89249190D01*
X125388714Y-89487285D01*
X128849380Y-88701809D02*
X128373190Y-88368476D01*
X128849380Y-88130380D02*
X127849380Y-88130380D01*
X127849380Y-88511333D01*
X127897000Y-88606571D01*
X127944619Y-88654190D01*
X128039857Y-88701809D01*
X128182714Y-88701809D01*
X128277952Y-88654190D01*
X128325571Y-88606571D01*
X128373190Y-88511333D01*
X128373190Y-88130380D01*
X128325571Y-89130380D02*
X128325571Y-89463714D01*
X128849380Y-89606571D02*
X128849380Y-89130380D01*
X127849380Y-89130380D01*
X127849380Y-89606571D01*
X128801761Y-89987523D02*
X128849380Y-90130380D01*
X128849380Y-90368476D01*
X128801761Y-90463714D01*
X128754142Y-90511333D01*
X128658904Y-90558952D01*
X128563666Y-90558952D01*
X128468428Y-90511333D01*
X128420809Y-90463714D01*
X128373190Y-90368476D01*
X128325571Y-90178000D01*
X128277952Y-90082761D01*
X128230333Y-90035142D01*
X128135095Y-89987523D01*
X128039857Y-89987523D01*
X127944619Y-90035142D01*
X127897000Y-90082761D01*
X127849380Y-90178000D01*
X127849380Y-90416095D01*
X127897000Y-90558952D01*
X128325571Y-90987523D02*
X128325571Y-91320857D01*
X128849380Y-91463714D02*
X128849380Y-90987523D01*
X127849380Y-90987523D01*
X127849380Y-91463714D01*
X127849380Y-91749428D02*
X127849380Y-92320857D01*
X128849380Y-92035142D02*
X127849380Y-92035142D01*
X128849380Y-92654190D02*
X127849380Y-92654190D01*
X128849380Y-93225619D01*
X127849380Y-93225619D01*
X131214761Y-88050952D02*
X131262380Y-88193809D01*
X131262380Y-88431904D01*
X131214761Y-88527142D01*
X131167142Y-88574761D01*
X131071904Y-88622380D01*
X130976666Y-88622380D01*
X130881428Y-88574761D01*
X130833809Y-88527142D01*
X130786190Y-88431904D01*
X130738571Y-88241428D01*
X130690952Y-88146190D01*
X130643333Y-88098571D01*
X130548095Y-88050952D01*
X130452857Y-88050952D01*
X130357619Y-88098571D01*
X130310000Y-88146190D01*
X130262380Y-88241428D01*
X130262380Y-88479523D01*
X130310000Y-88622380D01*
X130262380Y-88955714D02*
X131262380Y-89193809D01*
X130548095Y-89384285D01*
X131262380Y-89574761D01*
X130262380Y-89812857D01*
X131262380Y-90193809D02*
X130262380Y-90193809D01*
X130262380Y-90431904D01*
X130310000Y-90574761D01*
X130405238Y-90670000D01*
X130500476Y-90717619D01*
X130690952Y-90765238D01*
X130833809Y-90765238D01*
X131024285Y-90717619D01*
X131119523Y-90670000D01*
X131214761Y-90574761D01*
X131262380Y-90431904D01*
X131262380Y-90193809D01*
X131262380Y-91193809D02*
X130262380Y-91193809D01*
X130262380Y-91860476D02*
X130262380Y-92050952D01*
X130310000Y-92146190D01*
X130405238Y-92241428D01*
X130595714Y-92289047D01*
X130929047Y-92289047D01*
X131119523Y-92241428D01*
X131214761Y-92146190D01*
X131262380Y-92050952D01*
X131262380Y-91860476D01*
X131214761Y-91765238D01*
X131119523Y-91670000D01*
X130929047Y-91622380D01*
X130595714Y-91622380D01*
X130405238Y-91670000D01*
X130310000Y-91765238D01*
X130262380Y-91860476D01*
X132802380Y-88344428D02*
X132802380Y-88439666D01*
X132850000Y-88534904D01*
X132897619Y-88582523D01*
X132992857Y-88630142D01*
X133183333Y-88677761D01*
X133421428Y-88677761D01*
X133611904Y-88630142D01*
X133707142Y-88582523D01*
X133754761Y-88534904D01*
X133802380Y-88439666D01*
X133802380Y-88344428D01*
X133754761Y-88249190D01*
X133707142Y-88201571D01*
X133611904Y-88153952D01*
X133421428Y-88106333D01*
X133183333Y-88106333D01*
X132992857Y-88153952D01*
X132897619Y-88201571D01*
X132850000Y-88249190D01*
X132802380Y-88344428D01*
X133135714Y-89011095D02*
X133802380Y-89249190D01*
X133135714Y-89487285D01*
X136294761Y-88035095D02*
X136342380Y-88177952D01*
X136342380Y-88416047D01*
X136294761Y-88511285D01*
X136247142Y-88558904D01*
X136151904Y-88606523D01*
X136056666Y-88606523D01*
X135961428Y-88558904D01*
X135913809Y-88511285D01*
X135866190Y-88416047D01*
X135818571Y-88225571D01*
X135770952Y-88130333D01*
X135723333Y-88082714D01*
X135628095Y-88035095D01*
X135532857Y-88035095D01*
X135437619Y-88082714D01*
X135390000Y-88130333D01*
X135342380Y-88225571D01*
X135342380Y-88463666D01*
X135390000Y-88606523D01*
X135342380Y-88939857D02*
X136342380Y-89177952D01*
X135628095Y-89368428D01*
X136342380Y-89558904D01*
X135342380Y-89797000D01*
X136247142Y-90749380D02*
X136294761Y-90701761D01*
X136342380Y-90558904D01*
X136342380Y-90463666D01*
X136294761Y-90320809D01*
X136199523Y-90225571D01*
X136104285Y-90177952D01*
X135913809Y-90130333D01*
X135770952Y-90130333D01*
X135580476Y-90177952D01*
X135485238Y-90225571D01*
X135390000Y-90320809D01*
X135342380Y-90463666D01*
X135342380Y-90558904D01*
X135390000Y-90701761D01*
X135437619Y-90749380D01*
X136342380Y-91654142D02*
X136342380Y-91177952D01*
X135342380Y-91177952D01*
X136342380Y-91987476D02*
X135342380Y-91987476D01*
X136342380Y-92558904D02*
X135770952Y-92130333D01*
X135342380Y-92558904D02*
X135913809Y-91987476D01*
X137882380Y-88106428D02*
X137882380Y-88725476D01*
X138263333Y-88392142D01*
X138263333Y-88535000D01*
X138310952Y-88630238D01*
X138358571Y-88677857D01*
X138453809Y-88725476D01*
X138691904Y-88725476D01*
X138787142Y-88677857D01*
X138834761Y-88630238D01*
X138882380Y-88535000D01*
X138882380Y-88249285D01*
X138834761Y-88154047D01*
X138787142Y-88106428D01*
X138787142Y-89154047D02*
X138834761Y-89201666D01*
X138882380Y-89154047D01*
X138834761Y-89106428D01*
X138787142Y-89154047D01*
X138882380Y-89154047D01*
X137882380Y-89535000D02*
X137882380Y-90154047D01*
X138263333Y-89820714D01*
X138263333Y-89963571D01*
X138310952Y-90058809D01*
X138358571Y-90106428D01*
X138453809Y-90154047D01*
X138691904Y-90154047D01*
X138787142Y-90106428D01*
X138834761Y-90058809D01*
X138882380Y-89963571D01*
X138882380Y-89677857D01*
X138834761Y-89582619D01*
X138787142Y-89535000D01*
X138215714Y-90487380D02*
X138882380Y-90725476D01*
X138215714Y-90963571D01*
X141374761Y-88090523D02*
X141422380Y-88233380D01*
X141422380Y-88471476D01*
X141374761Y-88566714D01*
X141327142Y-88614333D01*
X141231904Y-88661952D01*
X141136666Y-88661952D01*
X141041428Y-88614333D01*
X140993809Y-88566714D01*
X140946190Y-88471476D01*
X140898571Y-88281000D01*
X140850952Y-88185761D01*
X140803333Y-88138142D01*
X140708095Y-88090523D01*
X140612857Y-88090523D01*
X140517619Y-88138142D01*
X140470000Y-88185761D01*
X140422380Y-88281000D01*
X140422380Y-88519095D01*
X140470000Y-88661952D01*
X141327142Y-89661952D02*
X141374761Y-89614333D01*
X141422380Y-89471476D01*
X141422380Y-89376238D01*
X141374761Y-89233380D01*
X141279523Y-89138142D01*
X141184285Y-89090523D01*
X140993809Y-89042904D01*
X140850952Y-89042904D01*
X140660476Y-89090523D01*
X140565238Y-89138142D01*
X140470000Y-89233380D01*
X140422380Y-89376238D01*
X140422380Y-89471476D01*
X140470000Y-89614333D01*
X140517619Y-89661952D01*
X141422380Y-90566714D02*
X141422380Y-90090523D01*
X140422380Y-90090523D01*
X149121761Y-88066714D02*
X149169380Y-88209571D01*
X149169380Y-88447666D01*
X149121761Y-88542904D01*
X149074142Y-88590523D01*
X148978904Y-88638142D01*
X148883666Y-88638142D01*
X148788428Y-88590523D01*
X148740809Y-88542904D01*
X148693190Y-88447666D01*
X148645571Y-88257190D01*
X148597952Y-88161952D01*
X148550333Y-88114333D01*
X148455095Y-88066714D01*
X148359857Y-88066714D01*
X148264619Y-88114333D01*
X148217000Y-88161952D01*
X148169380Y-88257190D01*
X148169380Y-88495285D01*
X148217000Y-88638142D01*
X149169380Y-89066714D02*
X148169380Y-89066714D01*
X148169380Y-89304809D01*
X148217000Y-89447666D01*
X148312238Y-89542904D01*
X148407476Y-89590523D01*
X148597952Y-89638142D01*
X148740809Y-89638142D01*
X148931285Y-89590523D01*
X149026523Y-89542904D01*
X149121761Y-89447666D01*
X149169380Y-89304809D01*
X149169380Y-89066714D01*
X148883666Y-90019095D02*
X148883666Y-90495285D01*
X149169380Y-89923857D02*
X148169380Y-90257190D01*
X149169380Y-90590523D01*
X151296666Y-88185714D02*
X151296666Y-88661904D01*
X151582380Y-88090476D02*
X150582380Y-88423809D01*
X151582380Y-88757142D01*
X150915714Y-89519047D02*
X151582380Y-89519047D01*
X150534761Y-89280952D02*
X151249047Y-89042857D01*
X151249047Y-89661904D01*
X153836666Y-87423714D02*
X153836666Y-87899904D01*
X154122380Y-87328476D02*
X153122380Y-87661809D01*
X154122380Y-87995142D01*
X153122380Y-88233238D02*
X153122380Y-88852285D01*
X153503333Y-88518952D01*
X153503333Y-88661809D01*
X153550952Y-88757047D01*
X153598571Y-88804666D01*
X153693809Y-88852285D01*
X153931904Y-88852285D01*
X154027142Y-88804666D01*
X154074761Y-88757047D01*
X154122380Y-88661809D01*
X154122380Y-88376095D01*
X154074761Y-88280857D01*
X154027142Y-88233238D01*
X156662380Y-88709571D02*
X156186190Y-88376238D01*
X156662380Y-88138142D02*
X155662380Y-88138142D01*
X155662380Y-88519095D01*
X155710000Y-88614333D01*
X155757619Y-88661952D01*
X155852857Y-88709571D01*
X155995714Y-88709571D01*
X156090952Y-88661952D01*
X156138571Y-88614333D01*
X156186190Y-88519095D01*
X156186190Y-88138142D01*
X156138571Y-89138142D02*
X156138571Y-89471476D01*
X156662380Y-89614333D02*
X156662380Y-89138142D01*
X155662380Y-89138142D01*
X155662380Y-89614333D01*
X156138571Y-90376238D02*
X156138571Y-90042904D01*
X156662380Y-90042904D02*
X155662380Y-90042904D01*
X155662380Y-90519095D01*
X158916666Y-88185714D02*
X158916666Y-88661904D01*
X159202380Y-88090476D02*
X158202380Y-88423809D01*
X159202380Y-88757142D01*
X158202380Y-89280952D02*
X158202380Y-89376190D01*
X158250000Y-89471428D01*
X158297619Y-89519047D01*
X158392857Y-89566666D01*
X158583333Y-89614285D01*
X158821428Y-89614285D01*
X159011904Y-89566666D01*
X159107142Y-89519047D01*
X159154761Y-89471428D01*
X159202380Y-89376190D01*
X159202380Y-89280952D01*
X159154761Y-89185714D01*
X159107142Y-89138095D01*
X159011904Y-89090476D01*
X158821428Y-89042857D01*
X158583333Y-89042857D01*
X158392857Y-89090476D01*
X158297619Y-89138095D01*
X158250000Y-89185714D01*
X158202380Y-89280952D01*
X161742380Y-88709523D02*
X161742380Y-88138095D01*
X161742380Y-88423809D02*
X160742380Y-88423809D01*
X160885238Y-88328571D01*
X160980476Y-88233333D01*
X161028095Y-88138095D01*
X160742380Y-89042857D02*
X160742380Y-89661904D01*
X161123333Y-89328571D01*
X161123333Y-89471428D01*
X161170952Y-89566666D01*
X161218571Y-89614285D01*
X161313809Y-89661904D01*
X161551904Y-89661904D01*
X161647142Y-89614285D01*
X161694761Y-89566666D01*
X161742380Y-89471428D01*
X161742380Y-89185714D01*
X161694761Y-89090476D01*
X161647142Y-89042857D01*
X163282380Y-88344428D02*
X163282380Y-88439666D01*
X163330000Y-88534904D01*
X163377619Y-88582523D01*
X163472857Y-88630142D01*
X163663333Y-88677761D01*
X163901428Y-88677761D01*
X164091904Y-88630142D01*
X164187142Y-88582523D01*
X164234761Y-88534904D01*
X164282380Y-88439666D01*
X164282380Y-88344428D01*
X164234761Y-88249190D01*
X164187142Y-88201571D01*
X164091904Y-88153952D01*
X163901428Y-88106333D01*
X163663333Y-88106333D01*
X163472857Y-88153952D01*
X163377619Y-88201571D01*
X163330000Y-88249190D01*
X163282380Y-88344428D01*
X163615714Y-89011095D02*
X164282380Y-89249190D01*
X163615714Y-89487285D01*
D11*
X142877000Y-89490733D02*
X142877000Y-89833267D01*
X141857000Y-89490733D02*
X141857000Y-89833267D01*
X144782000Y-89490733D02*
X144782000Y-89833267D01*
X143762000Y-89490733D02*
X143762000Y-89833267D01*
D12*
G36*
X128270000Y-92662375D02*
G01*
X128285875Y-92678250D01*
X128301750Y-92662375D01*
X128285875Y-92646500D01*
X128270000Y-92662375D01*
X128270000Y-92662375D01*
G37*
X128270000Y-92662375D02*
X128285875Y-92678250D01*
X128301750Y-92662375D01*
X128285875Y-92646500D01*
X128270000Y-92662375D01*
G36*
X134313414Y-92665951D02*
G01*
X134318375Y-92678250D01*
X134346906Y-92708538D01*
X134351999Y-92710000D01*
X134365636Y-92685435D01*
X134366000Y-92678250D01*
X134341593Y-92647720D01*
X134332377Y-92646500D01*
X134313414Y-92665951D01*
X134313414Y-92665951D01*
G37*
X134313414Y-92665951D02*
X134318375Y-92678250D01*
X134346906Y-92708538D01*
X134351999Y-92710000D01*
X134365636Y-92685435D01*
X134366000Y-92678250D01*
X134341593Y-92647720D01*
X134332377Y-92646500D01*
X134313414Y-92665951D01*
G36*
X129969272Y-93350255D02*
G01*
X129885648Y-93359747D01*
X129843392Y-93374247D01*
X129842282Y-93375687D01*
X129858235Y-93405683D01*
X129917046Y-93459620D01*
X130007663Y-93527883D01*
X130052152Y-93558250D01*
X130280987Y-93710125D01*
X129809875Y-93746309D01*
X130103563Y-93752029D01*
X130231282Y-93753144D01*
X130330929Y-93751401D01*
X130388538Y-93747179D01*
X130397250Y-93744038D01*
X130373103Y-93720908D01*
X130308544Y-93670713D01*
X130215398Y-93602493D01*
X130168854Y-93569413D01*
X129940458Y-93408500D01*
X130168854Y-93408500D01*
X130285198Y-93404407D01*
X130365866Y-93393394D01*
X130397214Y-93377358D01*
X130397250Y-93376750D01*
X130368500Y-93361702D01*
X130293879Y-93351495D01*
X130190835Y-93346163D01*
X130076817Y-93345738D01*
X129969272Y-93350255D01*
X129969272Y-93350255D01*
G37*
X129969272Y-93350255D02*
X129885648Y-93359747D01*
X129843392Y-93374247D01*
X129842282Y-93375687D01*
X129858235Y-93405683D01*
X129917046Y-93459620D01*
X130007663Y-93527883D01*
X130052152Y-93558250D01*
X130280987Y-93710125D01*
X129809875Y-93746309D01*
X130103563Y-93752029D01*
X130231282Y-93753144D01*
X130330929Y-93751401D01*
X130388538Y-93747179D01*
X130397250Y-93744038D01*
X130373103Y-93720908D01*
X130308544Y-93670713D01*
X130215398Y-93602493D01*
X130168854Y-93569413D01*
X129940458Y-93408500D01*
X130168854Y-93408500D01*
X130285198Y-93404407D01*
X130365866Y-93393394D01*
X130397214Y-93377358D01*
X130397250Y-93376750D01*
X130368500Y-93361702D01*
X130293879Y-93351495D01*
X130190835Y-93346163D01*
X130076817Y-93345738D01*
X129969272Y-93350255D01*
G36*
X133137728Y-92916965D02*
G01*
X133061600Y-92957066D01*
X132976319Y-93024214D01*
X132896654Y-93106755D01*
X132837376Y-93193036D01*
X132836757Y-93194222D01*
X132772597Y-93378912D01*
X132766495Y-93561125D01*
X132813364Y-93731674D01*
X132908117Y-93881368D01*
X133045668Y-94001019D01*
X133220932Y-94081437D01*
X133342017Y-94107025D01*
X133426027Y-94119718D01*
X133464996Y-94129743D01*
X133453188Y-94134587D01*
X133397351Y-94149843D01*
X133381750Y-94170500D01*
X133408450Y-94196104D01*
X133477448Y-94199615D01*
X133572098Y-94182551D01*
X133675752Y-94146428D01*
X133683375Y-94143015D01*
X133849953Y-94034574D01*
X133860883Y-94022149D01*
X133720217Y-94022149D01*
X133720020Y-94028926D01*
X133685245Y-94057623D01*
X133639800Y-94086370D01*
X133593551Y-94106427D01*
X133566085Y-94111084D01*
X133574896Y-94095425D01*
X133610482Y-94074592D01*
X133667500Y-94046049D01*
X133720217Y-94022149D01*
X133860883Y-94022149D01*
X133983218Y-93883082D01*
X134006308Y-93837125D01*
X133937375Y-93837125D01*
X133860404Y-93924437D01*
X133798351Y-93990784D01*
X133768220Y-94011384D01*
X133762750Y-94001409D01*
X133784049Y-93975883D01*
X133836624Y-93926067D01*
X133850063Y-93914096D01*
X133937375Y-93837125D01*
X134006308Y-93837125D01*
X134022261Y-93805375D01*
X133953250Y-93805375D01*
X133937375Y-93821250D01*
X133921500Y-93805375D01*
X133937375Y-93789500D01*
X133953250Y-93805375D01*
X134022261Y-93805375D01*
X134054167Y-93741875D01*
X133985000Y-93741875D01*
X133969125Y-93757750D01*
X133953250Y-93741875D01*
X133969125Y-93726000D01*
X133985000Y-93741875D01*
X134054167Y-93741875D01*
X134073539Y-93703322D01*
X134111282Y-93510074D01*
X134111823Y-93485593D01*
X134099972Y-93384552D01*
X134069374Y-93267093D01*
X134027926Y-93156453D01*
X133983526Y-93075867D01*
X133966044Y-93056692D01*
X133918030Y-93029771D01*
X133903127Y-93052486D01*
X133922034Y-93119869D01*
X133949008Y-93177933D01*
X134006321Y-93336480D01*
X134025088Y-93520633D01*
X134021970Y-93614875D01*
X134013663Y-93675348D01*
X133996659Y-93679542D01*
X133982871Y-93662500D01*
X133953020Y-93633770D01*
X133923814Y-93657630D01*
X133911920Y-93675860D01*
X133776822Y-93850358D01*
X133626480Y-93968117D01*
X133464931Y-94027093D01*
X133296215Y-94025242D01*
X133246046Y-94012893D01*
X133155716Y-93971519D01*
X133057767Y-93905187D01*
X132967851Y-93827508D01*
X132901625Y-93752094D01*
X132874743Y-93692554D01*
X132874716Y-93690047D01*
X132884519Y-93670870D01*
X132907306Y-93700868D01*
X132951140Y-93739680D01*
X132993217Y-93735097D01*
X133010847Y-93696761D01*
X133000169Y-93661413D01*
X132964001Y-93532678D01*
X132980199Y-93398488D01*
X133040251Y-93271451D01*
X133066146Y-93242331D01*
X132920344Y-93242331D01*
X132905405Y-93297627D01*
X132883542Y-93384608D01*
X132870073Y-93492765D01*
X132868993Y-93513754D01*
X132864924Y-93586484D01*
X132859219Y-93598819D01*
X132850526Y-93554298D01*
X132846758Y-93454280D01*
X132856512Y-93356974D01*
X132878330Y-93279877D01*
X132904704Y-93234545D01*
X132906634Y-93233174D01*
X132920344Y-93242331D01*
X133066146Y-93242331D01*
X133135647Y-93164175D01*
X133257875Y-93089268D01*
X133398425Y-93059340D01*
X133406644Y-93059249D01*
X133526332Y-93080414D01*
X133643705Y-93135973D01*
X133742900Y-93214026D01*
X133808053Y-93302673D01*
X133825008Y-93373094D01*
X133813986Y-93382662D01*
X133788240Y-93341905D01*
X133780628Y-93325261D01*
X133731211Y-93244399D01*
X133666803Y-93178348D01*
X133604119Y-93141343D01*
X133566011Y-93142481D01*
X133568334Y-93173731D01*
X133605614Y-93233642D01*
X133634685Y-93269262D01*
X133713229Y-93401454D01*
X133730085Y-93544805D01*
X133685757Y-93689645D01*
X133637626Y-93752844D01*
X133572489Y-93805177D01*
X133507973Y-93836554D01*
X133461705Y-93836884D01*
X133451392Y-93823798D01*
X133414725Y-93797692D01*
X133360787Y-93789500D01*
X133284289Y-93766407D01*
X133200468Y-93707839D01*
X133188808Y-93696692D01*
X133121177Y-93617485D01*
X133096724Y-93561451D01*
X133118327Y-93536192D01*
X133127750Y-93535500D01*
X133154032Y-93509068D01*
X133159500Y-93475517D01*
X133186724Y-93380599D01*
X133256621Y-93311134D01*
X133351535Y-93272773D01*
X133453806Y-93271164D01*
X133545776Y-93311955D01*
X133576341Y-93342167D01*
X133621491Y-93430226D01*
X133634385Y-93527248D01*
X133612644Y-93606583D01*
X133601234Y-93620816D01*
X133584553Y-93660104D01*
X133600033Y-93675922D01*
X133630519Y-93667226D01*
X133655051Y-93614295D01*
X133669513Y-93536369D01*
X133669792Y-93452687D01*
X133659034Y-93400066D01*
X133595314Y-93295186D01*
X133500601Y-93233647D01*
X133390675Y-93215839D01*
X133281317Y-93242158D01*
X133188309Y-93312996D01*
X133142284Y-93387187D01*
X133112684Y-93442731D01*
X133098196Y-93441066D01*
X133097243Y-93430438D01*
X133086259Y-93388776D01*
X133064064Y-93394242D01*
X133042304Y-93434721D01*
X133032619Y-93497686D01*
X133048201Y-93578831D01*
X133086812Y-93668062D01*
X133136541Y-93744421D01*
X133185478Y-93786948D01*
X133198721Y-93789986D01*
X133216494Y-93800092D01*
X133191516Y-93820414D01*
X133164005Y-93858328D01*
X133192548Y-93894926D01*
X133269858Y-93924439D01*
X133338219Y-93936543D01*
X133477551Y-93925594D01*
X133610421Y-93867035D01*
X133645985Y-93837125D01*
X133286500Y-93837125D01*
X133270625Y-93853000D01*
X133254750Y-93837125D01*
X133270625Y-93821250D01*
X133286500Y-93837125D01*
X133645985Y-93837125D01*
X133722422Y-93772842D01*
X133799150Y-93654993D01*
X133826250Y-93530804D01*
X133841065Y-93458650D01*
X133873875Y-93440250D01*
X133912842Y-93416018D01*
X133917719Y-93352188D01*
X133889546Y-93262056D01*
X133854801Y-93196948D01*
X133743772Y-93075199D01*
X133621615Y-93011625D01*
X133159500Y-93011625D01*
X133143625Y-93027500D01*
X133127750Y-93011625D01*
X133111875Y-93011625D01*
X133034904Y-93098937D01*
X132972851Y-93165284D01*
X132942720Y-93185884D01*
X132937250Y-93175909D01*
X132958549Y-93150383D01*
X133011124Y-93100567D01*
X133024563Y-93088596D01*
X133111875Y-93011625D01*
X133127750Y-93011625D01*
X133143625Y-92995750D01*
X133159500Y-93011625D01*
X133621615Y-93011625D01*
X133593657Y-92997075D01*
X133416079Y-92967975D01*
X133364797Y-92969233D01*
X133274455Y-92971489D01*
X133219370Y-92966028D01*
X133210602Y-92958256D01*
X133201620Y-92924929D01*
X133189936Y-92915562D01*
X133137728Y-92916965D01*
X133137728Y-92916965D01*
G37*
X133137728Y-92916965D02*
X133061600Y-92957066D01*
X132976319Y-93024214D01*
X132896654Y-93106755D01*
X132837376Y-93193036D01*
X132836757Y-93194222D01*
X132772597Y-93378912D01*
X132766495Y-93561125D01*
X132813364Y-93731674D01*
X132908117Y-93881368D01*
X133045668Y-94001019D01*
X133220932Y-94081437D01*
X133342017Y-94107025D01*
X133426027Y-94119718D01*
X133464996Y-94129743D01*
X133453188Y-94134587D01*
X133397351Y-94149843D01*
X133381750Y-94170500D01*
X133408450Y-94196104D01*
X133477448Y-94199615D01*
X133572098Y-94182551D01*
X133675752Y-94146428D01*
X133683375Y-94143015D01*
X133849953Y-94034574D01*
X133860883Y-94022149D01*
X133720217Y-94022149D01*
X133720020Y-94028926D01*
X133685245Y-94057623D01*
X133639800Y-94086370D01*
X133593551Y-94106427D01*
X133566085Y-94111084D01*
X133574896Y-94095425D01*
X133610482Y-94074592D01*
X133667500Y-94046049D01*
X133720217Y-94022149D01*
X133860883Y-94022149D01*
X133983218Y-93883082D01*
X134006308Y-93837125D01*
X133937375Y-93837125D01*
X133860404Y-93924437D01*
X133798351Y-93990784D01*
X133768220Y-94011384D01*
X133762750Y-94001409D01*
X133784049Y-93975883D01*
X133836624Y-93926067D01*
X133850063Y-93914096D01*
X133937375Y-93837125D01*
X134006308Y-93837125D01*
X134022261Y-93805375D01*
X133953250Y-93805375D01*
X133937375Y-93821250D01*
X133921500Y-93805375D01*
X133937375Y-93789500D01*
X133953250Y-93805375D01*
X134022261Y-93805375D01*
X134054167Y-93741875D01*
X133985000Y-93741875D01*
X133969125Y-93757750D01*
X133953250Y-93741875D01*
X133969125Y-93726000D01*
X133985000Y-93741875D01*
X134054167Y-93741875D01*
X134073539Y-93703322D01*
X134111282Y-93510074D01*
X134111823Y-93485593D01*
X134099972Y-93384552D01*
X134069374Y-93267093D01*
X134027926Y-93156453D01*
X133983526Y-93075867D01*
X133966044Y-93056692D01*
X133918030Y-93029771D01*
X133903127Y-93052486D01*
X133922034Y-93119869D01*
X133949008Y-93177933D01*
X134006321Y-93336480D01*
X134025088Y-93520633D01*
X134021970Y-93614875D01*
X134013663Y-93675348D01*
X133996659Y-93679542D01*
X133982871Y-93662500D01*
X133953020Y-93633770D01*
X133923814Y-93657630D01*
X133911920Y-93675860D01*
X133776822Y-93850358D01*
X133626480Y-93968117D01*
X133464931Y-94027093D01*
X133296215Y-94025242D01*
X133246046Y-94012893D01*
X133155716Y-93971519D01*
X133057767Y-93905187D01*
X132967851Y-93827508D01*
X132901625Y-93752094D01*
X132874743Y-93692554D01*
X132874716Y-93690047D01*
X132884519Y-93670870D01*
X132907306Y-93700868D01*
X132951140Y-93739680D01*
X132993217Y-93735097D01*
X133010847Y-93696761D01*
X133000169Y-93661413D01*
X132964001Y-93532678D01*
X132980199Y-93398488D01*
X133040251Y-93271451D01*
X133066146Y-93242331D01*
X132920344Y-93242331D01*
X132905405Y-93297627D01*
X132883542Y-93384608D01*
X132870073Y-93492765D01*
X132868993Y-93513754D01*
X132864924Y-93586484D01*
X132859219Y-93598819D01*
X132850526Y-93554298D01*
X132846758Y-93454280D01*
X132856512Y-93356974D01*
X132878330Y-93279877D01*
X132904704Y-93234545D01*
X132906634Y-93233174D01*
X132920344Y-93242331D01*
X133066146Y-93242331D01*
X133135647Y-93164175D01*
X133257875Y-93089268D01*
X133398425Y-93059340D01*
X133406644Y-93059249D01*
X133526332Y-93080414D01*
X133643705Y-93135973D01*
X133742900Y-93214026D01*
X133808053Y-93302673D01*
X133825008Y-93373094D01*
X133813986Y-93382662D01*
X133788240Y-93341905D01*
X133780628Y-93325261D01*
X133731211Y-93244399D01*
X133666803Y-93178348D01*
X133604119Y-93141343D01*
X133566011Y-93142481D01*
X133568334Y-93173731D01*
X133605614Y-93233642D01*
X133634685Y-93269262D01*
X133713229Y-93401454D01*
X133730085Y-93544805D01*
X133685757Y-93689645D01*
X133637626Y-93752844D01*
X133572489Y-93805177D01*
X133507973Y-93836554D01*
X133461705Y-93836884D01*
X133451392Y-93823798D01*
X133414725Y-93797692D01*
X133360787Y-93789500D01*
X133284289Y-93766407D01*
X133200468Y-93707839D01*
X133188808Y-93696692D01*
X133121177Y-93617485D01*
X133096724Y-93561451D01*
X133118327Y-93536192D01*
X133127750Y-93535500D01*
X133154032Y-93509068D01*
X133159500Y-93475517D01*
X133186724Y-93380599D01*
X133256621Y-93311134D01*
X133351535Y-93272773D01*
X133453806Y-93271164D01*
X133545776Y-93311955D01*
X133576341Y-93342167D01*
X133621491Y-93430226D01*
X133634385Y-93527248D01*
X133612644Y-93606583D01*
X133601234Y-93620816D01*
X133584553Y-93660104D01*
X133600033Y-93675922D01*
X133630519Y-93667226D01*
X133655051Y-93614295D01*
X133669513Y-93536369D01*
X133669792Y-93452687D01*
X133659034Y-93400066D01*
X133595314Y-93295186D01*
X133500601Y-93233647D01*
X133390675Y-93215839D01*
X133281317Y-93242158D01*
X133188309Y-93312996D01*
X133142284Y-93387187D01*
X133112684Y-93442731D01*
X133098196Y-93441066D01*
X133097243Y-93430438D01*
X133086259Y-93388776D01*
X133064064Y-93394242D01*
X133042304Y-93434721D01*
X133032619Y-93497686D01*
X133048201Y-93578831D01*
X133086812Y-93668062D01*
X133136541Y-93744421D01*
X133185478Y-93786948D01*
X133198721Y-93789986D01*
X133216494Y-93800092D01*
X133191516Y-93820414D01*
X133164005Y-93858328D01*
X133192548Y-93894926D01*
X133269858Y-93924439D01*
X133338219Y-93936543D01*
X133477551Y-93925594D01*
X133610421Y-93867035D01*
X133645985Y-93837125D01*
X133286500Y-93837125D01*
X133270625Y-93853000D01*
X133254750Y-93837125D01*
X133270625Y-93821250D01*
X133286500Y-93837125D01*
X133645985Y-93837125D01*
X133722422Y-93772842D01*
X133799150Y-93654993D01*
X133826250Y-93530804D01*
X133841065Y-93458650D01*
X133873875Y-93440250D01*
X133912842Y-93416018D01*
X133917719Y-93352188D01*
X133889546Y-93262056D01*
X133854801Y-93196948D01*
X133743772Y-93075199D01*
X133621615Y-93011625D01*
X133159500Y-93011625D01*
X133143625Y-93027500D01*
X133127750Y-93011625D01*
X133111875Y-93011625D01*
X133034904Y-93098937D01*
X132972851Y-93165284D01*
X132942720Y-93185884D01*
X132937250Y-93175909D01*
X132958549Y-93150383D01*
X133011124Y-93100567D01*
X133024563Y-93088596D01*
X133111875Y-93011625D01*
X133127750Y-93011625D01*
X133143625Y-92995750D01*
X133159500Y-93011625D01*
X133621615Y-93011625D01*
X133593657Y-92997075D01*
X133416079Y-92967975D01*
X133364797Y-92969233D01*
X133274455Y-92971489D01*
X133219370Y-92966028D01*
X133210602Y-92958256D01*
X133201620Y-92924929D01*
X133189936Y-92915562D01*
X133137728Y-92916965D01*
G36*
X130301828Y-93863361D02*
G01*
X130201862Y-93896414D01*
X130198813Y-93897575D01*
X130044250Y-93956849D01*
X129939487Y-93998064D01*
X129874913Y-94025575D01*
X129840917Y-94043739D01*
X129827887Y-94056913D01*
X129826095Y-94066526D01*
X129853883Y-94088141D01*
X129927554Y-94124165D01*
X130033079Y-94167966D01*
X130072157Y-94182868D01*
X130191096Y-94227278D01*
X130289289Y-94263947D01*
X130349737Y-94286527D01*
X130357563Y-94289452D01*
X130393299Y-94283255D01*
X130397250Y-94269751D01*
X130370274Y-94237089D01*
X130317875Y-94215287D01*
X130265317Y-94192335D01*
X130242751Y-94145301D01*
X130238500Y-94071127D01*
X130239500Y-94060277D01*
X130206750Y-94060277D01*
X130203512Y-94131256D01*
X130181295Y-94152995D01*
X130121342Y-94138668D01*
X130103563Y-94132765D01*
X130026158Y-94103161D01*
X129977298Y-94077678D01*
X129975462Y-94076165D01*
X129986287Y-94052748D01*
X130042499Y-94019262D01*
X130078649Y-94003677D01*
X130206750Y-93953358D01*
X130206750Y-94060277D01*
X130239500Y-94060277D01*
X130246629Y-93982953D01*
X130278840Y-93933348D01*
X130317875Y-93910722D01*
X130386919Y-93873656D01*
X130402098Y-93852837D01*
X130371154Y-93849121D01*
X130301828Y-93863361D01*
X130301828Y-93863361D01*
G37*
X130301828Y-93863361D02*
X130201862Y-93896414D01*
X130198813Y-93897575D01*
X130044250Y-93956849D01*
X129939487Y-93998064D01*
X129874913Y-94025575D01*
X129840917Y-94043739D01*
X129827887Y-94056913D01*
X129826095Y-94066526D01*
X129853883Y-94088141D01*
X129927554Y-94124165D01*
X130033079Y-94167966D01*
X130072157Y-94182868D01*
X130191096Y-94227278D01*
X130289289Y-94263947D01*
X130349737Y-94286527D01*
X130357563Y-94289452D01*
X130393299Y-94283255D01*
X130397250Y-94269751D01*
X130370274Y-94237089D01*
X130317875Y-94215287D01*
X130265317Y-94192335D01*
X130242751Y-94145301D01*
X130238500Y-94071127D01*
X130239500Y-94060277D01*
X130206750Y-94060277D01*
X130203512Y-94131256D01*
X130181295Y-94152995D01*
X130121342Y-94138668D01*
X130103563Y-94132765D01*
X130026158Y-94103161D01*
X129977298Y-94077678D01*
X129975462Y-94076165D01*
X129986287Y-94052748D01*
X130042499Y-94019262D01*
X130078649Y-94003677D01*
X130206750Y-93953358D01*
X130206750Y-94060277D01*
X130239500Y-94060277D01*
X130246629Y-93982953D01*
X130278840Y-93933348D01*
X130317875Y-93910722D01*
X130386919Y-93873656D01*
X130402098Y-93852837D01*
X130371154Y-93849121D01*
X130301828Y-93863361D01*
G36*
X129985742Y-94363447D02*
G01*
X129888335Y-94370004D01*
X129833410Y-94379489D01*
X129826285Y-94384812D01*
X129851322Y-94411796D01*
X129917702Y-94463406D01*
X130013112Y-94530314D01*
X130056472Y-94559158D01*
X130286125Y-94709691D01*
X130055938Y-94709970D01*
X129939093Y-94714174D01*
X129857852Y-94725207D01*
X129825817Y-94741178D01*
X129825750Y-94742000D01*
X129855723Y-94757213D01*
X129938691Y-94768065D01*
X130064232Y-94773398D01*
X130111500Y-94773750D01*
X130237334Y-94770868D01*
X130334895Y-94763151D01*
X130390021Y-94751986D01*
X130397250Y-94745729D01*
X130372422Y-94716494D01*
X130306497Y-94663792D01*
X130212319Y-94597663D01*
X130184070Y-94579041D01*
X129970890Y-94440375D01*
X130184070Y-94430986D01*
X130312373Y-94420896D01*
X130380429Y-94406499D01*
X130391097Y-94390555D01*
X130347235Y-94375819D01*
X130251703Y-94365049D01*
X130111500Y-94361000D01*
X129985742Y-94363447D01*
X129985742Y-94363447D01*
G37*
X129985742Y-94363447D02*
X129888335Y-94370004D01*
X129833410Y-94379489D01*
X129826285Y-94384812D01*
X129851322Y-94411796D01*
X129917702Y-94463406D01*
X130013112Y-94530314D01*
X130056472Y-94559158D01*
X130286125Y-94709691D01*
X130055938Y-94709970D01*
X129939093Y-94714174D01*
X129857852Y-94725207D01*
X129825817Y-94741178D01*
X129825750Y-94742000D01*
X129855723Y-94757213D01*
X129938691Y-94768065D01*
X130064232Y-94773398D01*
X130111500Y-94773750D01*
X130237334Y-94770868D01*
X130334895Y-94763151D01*
X130390021Y-94751986D01*
X130397250Y-94745729D01*
X130372422Y-94716494D01*
X130306497Y-94663792D01*
X130212319Y-94597663D01*
X130184070Y-94579041D01*
X129970890Y-94440375D01*
X130184070Y-94430986D01*
X130312373Y-94420896D01*
X130380429Y-94406499D01*
X130391097Y-94390555D01*
X130347235Y-94375819D01*
X130251703Y-94365049D01*
X130111500Y-94361000D01*
X129985742Y-94363447D01*
G36*
X129840909Y-94834659D02*
G01*
X129829550Y-94911902D01*
X129825750Y-95011875D01*
X129830237Y-95119718D01*
X129842120Y-95193553D01*
X129857500Y-95218250D01*
X129881368Y-95191078D01*
X129889250Y-95138875D01*
X129891957Y-95099508D01*
X129908715Y-95075936D01*
X129952479Y-95064110D01*
X130036205Y-95059981D01*
X130143250Y-95059500D01*
X130269038Y-95055786D01*
X130357431Y-95045649D01*
X130396404Y-95030590D01*
X130397250Y-95027750D01*
X130367544Y-95012026D01*
X130286443Y-95000977D01*
X130165973Y-94996105D01*
X130143250Y-94996000D01*
X129889250Y-94996000D01*
X129889250Y-94900750D01*
X129880054Y-94833871D01*
X129857896Y-94805507D01*
X129857500Y-94805500D01*
X129840909Y-94834659D01*
X129840909Y-94834659D01*
G37*
X129840909Y-94834659D02*
X129829550Y-94911902D01*
X129825750Y-95011875D01*
X129830237Y-95119718D01*
X129842120Y-95193553D01*
X129857500Y-95218250D01*
X129881368Y-95191078D01*
X129889250Y-95138875D01*
X129891957Y-95099508D01*
X129908715Y-95075936D01*
X129952479Y-95064110D01*
X130036205Y-95059981D01*
X130143250Y-95059500D01*
X130269038Y-95055786D01*
X130357431Y-95045649D01*
X130396404Y-95030590D01*
X130397250Y-95027750D01*
X130367544Y-95012026D01*
X130286443Y-95000977D01*
X130165973Y-94996105D01*
X130143250Y-94996000D01*
X129889250Y-94996000D01*
X129889250Y-94900750D01*
X129880054Y-94833871D01*
X129857896Y-94805507D01*
X129857500Y-94805500D01*
X129840909Y-94834659D01*
G36*
X129825750Y-95426498D02*
G01*
X129830808Y-95529189D01*
X129844999Y-95580456D01*
X129857500Y-95583375D01*
X129877795Y-95541745D01*
X129888670Y-95462782D01*
X129889250Y-95438626D01*
X129893212Y-95357947D01*
X129914212Y-95322384D01*
X129965922Y-95313641D01*
X129982761Y-95313500D01*
X130039571Y-95318096D01*
X130069016Y-95343032D01*
X130082780Y-95405025D01*
X130088163Y-95464312D01*
X130100055Y-95615125D01*
X130105778Y-95464312D01*
X130111442Y-95373418D01*
X130127895Y-95329184D01*
X130167962Y-95314804D01*
X130220886Y-95313500D01*
X130287040Y-95316809D01*
X130320799Y-95337909D01*
X130335637Y-95393559D01*
X130342163Y-95464312D01*
X130348917Y-95545957D01*
X130353050Y-95572325D01*
X130356016Y-95540794D01*
X130359269Y-95448747D01*
X130359778Y-95432562D01*
X130365500Y-95250000D01*
X129825750Y-95250000D01*
X129825750Y-95426498D01*
X129825750Y-95426498D01*
G37*
X129825750Y-95426498D02*
X129830808Y-95529189D01*
X129844999Y-95580456D01*
X129857500Y-95583375D01*
X129877795Y-95541745D01*
X129888670Y-95462782D01*
X129889250Y-95438626D01*
X129893212Y-95357947D01*
X129914212Y-95322384D01*
X129965922Y-95313641D01*
X129982761Y-95313500D01*
X130039571Y-95318096D01*
X130069016Y-95343032D01*
X130082780Y-95405025D01*
X130088163Y-95464312D01*
X130100055Y-95615125D01*
X130105778Y-95464312D01*
X130111442Y-95373418D01*
X130127895Y-95329184D01*
X130167962Y-95314804D01*
X130220886Y-95313500D01*
X130287040Y-95316809D01*
X130320799Y-95337909D01*
X130335637Y-95393559D01*
X130342163Y-95464312D01*
X130348917Y-95545957D01*
X130353050Y-95572325D01*
X130356016Y-95540794D01*
X130359269Y-95448747D01*
X130359778Y-95432562D01*
X130365500Y-95250000D01*
X129825750Y-95250000D01*
X129825750Y-95426498D01*
G36*
X133223000Y-95980250D02*
G01*
X133572250Y-95980250D01*
X133572250Y-94392750D01*
X133223000Y-94392750D01*
X133223000Y-95980250D01*
X133223000Y-95980250D01*
G37*
X133223000Y-95980250D02*
X133572250Y-95980250D01*
X133572250Y-94392750D01*
X133223000Y-94392750D01*
X133223000Y-95980250D01*
G36*
X129825750Y-95837375D02*
G01*
X129830970Y-95933005D01*
X129844434Y-95996433D01*
X129857500Y-96012000D01*
X129875612Y-95983444D01*
X129887108Y-95910434D01*
X129889250Y-95853250D01*
X129891331Y-95759273D01*
X129904127Y-95712411D01*
X129937464Y-95696282D01*
X129984500Y-95694500D01*
X130040886Y-95697968D01*
X130069004Y-95719293D01*
X130078681Y-95774855D01*
X130079750Y-95853250D01*
X130079750Y-96012000D01*
X130365500Y-96012000D01*
X130359778Y-95829437D01*
X130356384Y-95729501D01*
X130353462Y-95690417D01*
X130349558Y-95709563D01*
X130343218Y-95784321D01*
X130342163Y-95797687D01*
X130332599Y-95888536D01*
X130313806Y-95932786D01*
X130272307Y-95947194D01*
X130220886Y-95948500D01*
X130153673Y-95945351D01*
X130121846Y-95924385D01*
X130112173Y-95868321D01*
X130111500Y-95805625D01*
X130111500Y-95662750D01*
X129825750Y-95662750D01*
X129825750Y-95837375D01*
X129825750Y-95837375D01*
G37*
X129825750Y-95837375D02*
X129830970Y-95933005D01*
X129844434Y-95996433D01*
X129857500Y-96012000D01*
X129875612Y-95983444D01*
X129887108Y-95910434D01*
X129889250Y-95853250D01*
X129891331Y-95759273D01*
X129904127Y-95712411D01*
X129937464Y-95696282D01*
X129984500Y-95694500D01*
X130040886Y-95697968D01*
X130069004Y-95719293D01*
X130078681Y-95774855D01*
X130079750Y-95853250D01*
X130079750Y-96012000D01*
X130365500Y-96012000D01*
X130359778Y-95829437D01*
X130356384Y-95729501D01*
X130353462Y-95690417D01*
X130349558Y-95709563D01*
X130343218Y-95784321D01*
X130342163Y-95797687D01*
X130332599Y-95888536D01*
X130313806Y-95932786D01*
X130272307Y-95947194D01*
X130220886Y-95948500D01*
X130153673Y-95945351D01*
X130121846Y-95924385D01*
X130112173Y-95868321D01*
X130111500Y-95805625D01*
X130111500Y-95662750D01*
X129825750Y-95662750D01*
X129825750Y-95837375D01*
G36*
X130905250Y-94107000D02*
G01*
X130683000Y-94107000D01*
X130683000Y-94424500D01*
X130910294Y-94424500D01*
X130899835Y-95009307D01*
X130895707Y-95216863D01*
X130890999Y-95371018D01*
X130884470Y-95481868D01*
X130874880Y-95559510D01*
X130860989Y-95614040D01*
X130841559Y-95655554D01*
X130815819Y-95693513D01*
X130771019Y-95764632D01*
X130751960Y-95816629D01*
X130752613Y-95823963D01*
X130784021Y-95857239D01*
X130852213Y-95906863D01*
X130896430Y-95934605D01*
X131029897Y-96014195D01*
X131111133Y-95891438D01*
X131159717Y-95811413D01*
X131196074Y-95731171D01*
X131221918Y-95639905D01*
X131238964Y-95526808D01*
X131248930Y-95381073D01*
X131253529Y-95191892D01*
X131254500Y-94988272D01*
X131254500Y-94424500D01*
X131476750Y-94424500D01*
X131476750Y-94107000D01*
X131254500Y-94107000D01*
X131254500Y-93376750D01*
X130905250Y-93376750D01*
X130905250Y-94107000D01*
X130905250Y-94107000D01*
G37*
X130905250Y-94107000D02*
X130683000Y-94107000D01*
X130683000Y-94424500D01*
X130910294Y-94424500D01*
X130899835Y-95009307D01*
X130895707Y-95216863D01*
X130890999Y-95371018D01*
X130884470Y-95481868D01*
X130874880Y-95559510D01*
X130860989Y-95614040D01*
X130841559Y-95655554D01*
X130815819Y-95693513D01*
X130771019Y-95764632D01*
X130751960Y-95816629D01*
X130752613Y-95823963D01*
X130784021Y-95857239D01*
X130852213Y-95906863D01*
X130896430Y-95934605D01*
X131029897Y-96014195D01*
X131111133Y-95891438D01*
X131159717Y-95811413D01*
X131196074Y-95731171D01*
X131221918Y-95639905D01*
X131238964Y-95526808D01*
X131248930Y-95381073D01*
X131253529Y-95191892D01*
X131254500Y-94988272D01*
X131254500Y-94424500D01*
X131476750Y-94424500D01*
X131476750Y-94107000D01*
X131254500Y-94107000D01*
X131254500Y-93376750D01*
X130905250Y-93376750D01*
X130905250Y-94107000D01*
G36*
X132620926Y-93137898D02*
G01*
X132588711Y-93185486D01*
X132558363Y-93275545D01*
X132535271Y-93387141D01*
X132524825Y-93499343D01*
X132524678Y-93511687D01*
X132515549Y-93597032D01*
X132486194Y-93629755D01*
X132476875Y-93630750D01*
X132463230Y-93637570D01*
X132452412Y-93662273D01*
X132444108Y-93711225D01*
X132438002Y-93790788D01*
X132433779Y-93907327D01*
X132431124Y-94067207D01*
X132429722Y-94276792D01*
X132429259Y-94542446D01*
X132429250Y-94592775D01*
X132428916Y-94880481D01*
X132427350Y-95110587D01*
X132423707Y-95288988D01*
X132417143Y-95421583D01*
X132406815Y-95514268D01*
X132391876Y-95572942D01*
X132371483Y-95603501D01*
X132344791Y-95611843D01*
X132310957Y-95603866D01*
X132285982Y-95593293D01*
X132246306Y-95571264D01*
X132214724Y-95540700D01*
X132190322Y-95494703D01*
X132172186Y-95426376D01*
X132159402Y-95328824D01*
X132151055Y-95195147D01*
X132146232Y-95018450D01*
X132144019Y-94791836D01*
X132143500Y-94518256D01*
X132143500Y-93630750D01*
X131794250Y-93630750D01*
X131794250Y-94552519D01*
X131793627Y-94842031D01*
X131791178Y-95075446D01*
X131786031Y-95260158D01*
X131777317Y-95403565D01*
X131764165Y-95513060D01*
X131745705Y-95596039D01*
X131721065Y-95659899D01*
X131689376Y-95712033D01*
X131652492Y-95756838D01*
X131634093Y-95788520D01*
X131647926Y-95821251D01*
X131702546Y-95866663D01*
X131764068Y-95908554D01*
X131919732Y-96011483D01*
X132057414Y-95825257D01*
X132159017Y-95902753D01*
X132286495Y-95965842D01*
X132425355Y-95979456D01*
X132554990Y-95943073D01*
X132600228Y-95913946D01*
X132653672Y-95868810D01*
X132695236Y-95822070D01*
X132726407Y-95765425D01*
X132748672Y-95690575D01*
X132763516Y-95589221D01*
X132772427Y-95453061D01*
X132776891Y-95273795D01*
X132778394Y-95043124D01*
X132778500Y-94918476D01*
X132778501Y-94171049D01*
X132671594Y-94030994D01*
X132606593Y-93935388D01*
X132557909Y-93844899D01*
X132543049Y-93804723D01*
X132529189Y-93728874D01*
X132535976Y-93709118D01*
X132557353Y-93743938D01*
X132582240Y-93814543D01*
X132666939Y-93991616D01*
X132801079Y-94142444D01*
X132973367Y-94259318D01*
X133172510Y-94334527D01*
X133381750Y-94360379D01*
X133510856Y-94350583D01*
X133638254Y-94324422D01*
X133753325Y-94286736D01*
X133845452Y-94242366D01*
X133904017Y-94196152D01*
X133918403Y-94152936D01*
X133895258Y-94126278D01*
X133854560Y-94130484D01*
X133777883Y-94158590D01*
X133715252Y-94187905D01*
X133520559Y-94255123D01*
X133327207Y-94265908D01*
X133142940Y-94226752D01*
X132975502Y-94144144D01*
X132832637Y-94024577D01*
X132722091Y-93874541D01*
X132651607Y-93700527D01*
X132628930Y-93509026D01*
X132661804Y-93306529D01*
X132662191Y-93305273D01*
X132685722Y-93199259D01*
X132678760Y-93138299D01*
X132642562Y-93127496D01*
X132620926Y-93137898D01*
X132620926Y-93137898D01*
G37*
X132620926Y-93137898D02*
X132588711Y-93185486D01*
X132558363Y-93275545D01*
X132535271Y-93387141D01*
X132524825Y-93499343D01*
X132524678Y-93511687D01*
X132515549Y-93597032D01*
X132486194Y-93629755D01*
X132476875Y-93630750D01*
X132463230Y-93637570D01*
X132452412Y-93662273D01*
X132444108Y-93711225D01*
X132438002Y-93790788D01*
X132433779Y-93907327D01*
X132431124Y-94067207D01*
X132429722Y-94276792D01*
X132429259Y-94542446D01*
X132429250Y-94592775D01*
X132428916Y-94880481D01*
X132427350Y-95110587D01*
X132423707Y-95288988D01*
X132417143Y-95421583D01*
X132406815Y-95514268D01*
X132391876Y-95572942D01*
X132371483Y-95603501D01*
X132344791Y-95611843D01*
X132310957Y-95603866D01*
X132285982Y-95593293D01*
X132246306Y-95571264D01*
X132214724Y-95540700D01*
X132190322Y-95494703D01*
X132172186Y-95426376D01*
X132159402Y-95328824D01*
X132151055Y-95195147D01*
X132146232Y-95018450D01*
X132144019Y-94791836D01*
X132143500Y-94518256D01*
X132143500Y-93630750D01*
X131794250Y-93630750D01*
X131794250Y-94552519D01*
X131793627Y-94842031D01*
X131791178Y-95075446D01*
X131786031Y-95260158D01*
X131777317Y-95403565D01*
X131764165Y-95513060D01*
X131745705Y-95596039D01*
X131721065Y-95659899D01*
X131689376Y-95712033D01*
X131652492Y-95756838D01*
X131634093Y-95788520D01*
X131647926Y-95821251D01*
X131702546Y-95866663D01*
X131764068Y-95908554D01*
X131919732Y-96011483D01*
X132057414Y-95825257D01*
X132159017Y-95902753D01*
X132286495Y-95965842D01*
X132425355Y-95979456D01*
X132554990Y-95943073D01*
X132600228Y-95913946D01*
X132653672Y-95868810D01*
X132695236Y-95822070D01*
X132726407Y-95765425D01*
X132748672Y-95690575D01*
X132763516Y-95589221D01*
X132772427Y-95453061D01*
X132776891Y-95273795D01*
X132778394Y-95043124D01*
X132778500Y-94918476D01*
X132778501Y-94171049D01*
X132671594Y-94030994D01*
X132606593Y-93935388D01*
X132557909Y-93844899D01*
X132543049Y-93804723D01*
X132529189Y-93728874D01*
X132535976Y-93709118D01*
X132557353Y-93743938D01*
X132582240Y-93814543D01*
X132666939Y-93991616D01*
X132801079Y-94142444D01*
X132973367Y-94259318D01*
X133172510Y-94334527D01*
X133381750Y-94360379D01*
X133510856Y-94350583D01*
X133638254Y-94324422D01*
X133753325Y-94286736D01*
X133845452Y-94242366D01*
X133904017Y-94196152D01*
X133918403Y-94152936D01*
X133895258Y-94126278D01*
X133854560Y-94130484D01*
X133777883Y-94158590D01*
X133715252Y-94187905D01*
X133520559Y-94255123D01*
X133327207Y-94265908D01*
X133142940Y-94226752D01*
X132975502Y-94144144D01*
X132832637Y-94024577D01*
X132722091Y-93874541D01*
X132651607Y-93700527D01*
X132628930Y-93509026D01*
X132661804Y-93306529D01*
X132662191Y-93305273D01*
X132685722Y-93199259D01*
X132678760Y-93138299D01*
X132642562Y-93127496D01*
X132620926Y-93137898D01*
G36*
X131709584Y-96213083D02*
G01*
X131713942Y-96231958D01*
X131730750Y-96234250D01*
X131756884Y-96222633D01*
X131751917Y-96213083D01*
X131714237Y-96209283D01*
X131709584Y-96213083D01*
X131709584Y-96213083D01*
G37*
X131709584Y-96213083D02*
X131713942Y-96231958D01*
X131730750Y-96234250D01*
X131756884Y-96222633D01*
X131751917Y-96213083D01*
X131714237Y-96209283D01*
X131709584Y-96213083D01*
G36*
X130873500Y-96281875D02*
G01*
X130889375Y-96297750D01*
X130905250Y-96281875D01*
X130889375Y-96266000D01*
X130873500Y-96281875D01*
X130873500Y-96281875D01*
G37*
X130873500Y-96281875D02*
X130889375Y-96297750D01*
X130905250Y-96281875D01*
X130889375Y-96266000D01*
X130873500Y-96281875D01*
G36*
X132154084Y-96276583D02*
G01*
X132158442Y-96295458D01*
X132175250Y-96297750D01*
X132201384Y-96286133D01*
X132196417Y-96276583D01*
X132158737Y-96272783D01*
X132154084Y-96276583D01*
X132154084Y-96276583D01*
G37*
X132154084Y-96276583D02*
X132158442Y-96295458D01*
X132175250Y-96297750D01*
X132201384Y-96286133D01*
X132196417Y-96276583D01*
X132158737Y-96272783D01*
X132154084Y-96276583D01*
G36*
X132588000Y-96281875D02*
G01*
X132603875Y-96297750D01*
X132619750Y-96281875D01*
X132603875Y-96266000D01*
X132588000Y-96281875D01*
X132588000Y-96281875D01*
G37*
X132588000Y-96281875D02*
X132603875Y-96297750D01*
X132619750Y-96281875D01*
X132603875Y-96266000D01*
X132588000Y-96281875D01*
G36*
X130196935Y-96345044D02*
G01*
X130172176Y-96379222D01*
X130197472Y-96413351D01*
X130262313Y-96428506D01*
X130349625Y-96432262D01*
X130254375Y-96456500D01*
X130159125Y-96480737D01*
X130262313Y-96484493D01*
X130333724Y-96480469D01*
X130361628Y-96451821D01*
X130365500Y-96408875D01*
X130361260Y-96385409D01*
X130319980Y-96385409D01*
X130288771Y-96390493D01*
X130247591Y-96384655D01*
X130247099Y-96373817D01*
X130289593Y-96366238D01*
X130307954Y-96371311D01*
X130319980Y-96385409D01*
X130361260Y-96385409D01*
X130355249Y-96352147D01*
X130311671Y-96331395D01*
X130270250Y-96329500D01*
X130196935Y-96345044D01*
X130196935Y-96345044D01*
G37*
X130196935Y-96345044D02*
X130172176Y-96379222D01*
X130197472Y-96413351D01*
X130262313Y-96428506D01*
X130349625Y-96432262D01*
X130254375Y-96456500D01*
X130159125Y-96480737D01*
X130262313Y-96484493D01*
X130333724Y-96480469D01*
X130361628Y-96451821D01*
X130365500Y-96408875D01*
X130361260Y-96385409D01*
X130319980Y-96385409D01*
X130288771Y-96390493D01*
X130247591Y-96384655D01*
X130247099Y-96373817D01*
X130289593Y-96366238D01*
X130307954Y-96371311D01*
X130319980Y-96385409D01*
X130361260Y-96385409D01*
X130355249Y-96352147D01*
X130311671Y-96331395D01*
X130270250Y-96329500D01*
X130196935Y-96345044D01*
G36*
X130435901Y-96359894D02*
G01*
X130433324Y-96400937D01*
X130439811Y-96464864D01*
X130479430Y-96486853D01*
X130508375Y-96488250D01*
X130565965Y-96477632D01*
X130583738Y-96432854D01*
X130583427Y-96400937D01*
X130579098Y-96346434D01*
X130572302Y-96352390D01*
X130565343Y-96385062D01*
X130538270Y-96440882D01*
X130508375Y-96456500D01*
X130469415Y-96429514D01*
X130451408Y-96385062D01*
X130441351Y-96343187D01*
X130435901Y-96359894D01*
X130435901Y-96359894D01*
G37*
X130435901Y-96359894D02*
X130433324Y-96400937D01*
X130439811Y-96464864D01*
X130479430Y-96486853D01*
X130508375Y-96488250D01*
X130565965Y-96477632D01*
X130583738Y-96432854D01*
X130583427Y-96400937D01*
X130579098Y-96346434D01*
X130572302Y-96352390D01*
X130565343Y-96385062D01*
X130538270Y-96440882D01*
X130508375Y-96456500D01*
X130469415Y-96429514D01*
X130451408Y-96385062D01*
X130441351Y-96343187D01*
X130435901Y-96359894D01*
G36*
X130884819Y-96364332D02*
G01*
X130883248Y-96369791D01*
X130878600Y-96438953D01*
X130884425Y-96465041D01*
X130894848Y-96466097D01*
X130899104Y-96416393D01*
X130899061Y-96408875D01*
X130894483Y-96359632D01*
X130884819Y-96364332D01*
X130884819Y-96364332D01*
G37*
X130884819Y-96364332D02*
X130883248Y-96369791D01*
X130878600Y-96438953D01*
X130884425Y-96465041D01*
X130894848Y-96466097D01*
X130899104Y-96416393D01*
X130899061Y-96408875D01*
X130894483Y-96359632D01*
X130884819Y-96364332D01*
G36*
X131066507Y-96289812D02*
G01*
X131037496Y-96321036D01*
X130992563Y-96329986D01*
X130949713Y-96337951D01*
X130957140Y-96353798D01*
X130994362Y-96401917D01*
X131009020Y-96440625D01*
X131021230Y-96477906D01*
X131028516Y-96456841D01*
X131031732Y-96424750D01*
X131038580Y-96345375D01*
X131064000Y-96424750D01*
X131082652Y-96478186D01*
X131090049Y-96472946D01*
X131092586Y-96432687D01*
X131111526Y-96377222D01*
X131172072Y-96361265D01*
X131175125Y-96361250D01*
X131238177Y-96379003D01*
X131252687Y-96417598D01*
X131216988Y-96455034D01*
X131183063Y-96465842D01*
X131141188Y-96475899D01*
X131157895Y-96481349D01*
X131198938Y-96483926D01*
X131262865Y-96477439D01*
X131284854Y-96437820D01*
X131286250Y-96408875D01*
X131275595Y-96351579D01*
X131230796Y-96331100D01*
X131193646Y-96329500D01*
X131122054Y-96317289D01*
X131085028Y-96289812D01*
X131070683Y-96266415D01*
X131066507Y-96289812D01*
X131066507Y-96289812D01*
G37*
X131066507Y-96289812D02*
X131037496Y-96321036D01*
X130992563Y-96329986D01*
X130949713Y-96337951D01*
X130957140Y-96353798D01*
X130994362Y-96401917D01*
X131009020Y-96440625D01*
X131021230Y-96477906D01*
X131028516Y-96456841D01*
X131031732Y-96424750D01*
X131038580Y-96345375D01*
X131064000Y-96424750D01*
X131082652Y-96478186D01*
X131090049Y-96472946D01*
X131092586Y-96432687D01*
X131111526Y-96377222D01*
X131172072Y-96361265D01*
X131175125Y-96361250D01*
X131238177Y-96379003D01*
X131252687Y-96417598D01*
X131216988Y-96455034D01*
X131183063Y-96465842D01*
X131141188Y-96475899D01*
X131157895Y-96481349D01*
X131198938Y-96483926D01*
X131262865Y-96477439D01*
X131284854Y-96437820D01*
X131286250Y-96408875D01*
X131275595Y-96351579D01*
X131230796Y-96331100D01*
X131193646Y-96329500D01*
X131122054Y-96317289D01*
X131085028Y-96289812D01*
X131070683Y-96266415D01*
X131066507Y-96289812D01*
G36*
X131339935Y-96345044D02*
G01*
X131315176Y-96379222D01*
X131340472Y-96413351D01*
X131405313Y-96428506D01*
X131492625Y-96432262D01*
X131397375Y-96456500D01*
X131302125Y-96480737D01*
X131405313Y-96484493D01*
X131476724Y-96480469D01*
X131504628Y-96451821D01*
X131508500Y-96408875D01*
X131503926Y-96383561D01*
X131456927Y-96383561D01*
X131413250Y-96387986D01*
X131368177Y-96382997D01*
X131373563Y-96371972D01*
X131438566Y-96367779D01*
X131452938Y-96371972D01*
X131456927Y-96383561D01*
X131503926Y-96383561D01*
X131498249Y-96352147D01*
X131454671Y-96331395D01*
X131413250Y-96329500D01*
X131339935Y-96345044D01*
X131339935Y-96345044D01*
G37*
X131339935Y-96345044D02*
X131315176Y-96379222D01*
X131340472Y-96413351D01*
X131405313Y-96428506D01*
X131492625Y-96432262D01*
X131397375Y-96456500D01*
X131302125Y-96480737D01*
X131405313Y-96484493D01*
X131476724Y-96480469D01*
X131504628Y-96451821D01*
X131508500Y-96408875D01*
X131503926Y-96383561D01*
X131456927Y-96383561D01*
X131413250Y-96387986D01*
X131368177Y-96382997D01*
X131373563Y-96371972D01*
X131438566Y-96367779D01*
X131452938Y-96371972D01*
X131456927Y-96383561D01*
X131503926Y-96383561D01*
X131498249Y-96352147D01*
X131454671Y-96331395D01*
X131413250Y-96329500D01*
X131339935Y-96345044D01*
G36*
X131608646Y-96270914D02*
G01*
X131578101Y-96298644D01*
X131572014Y-96368666D01*
X131572000Y-96377125D01*
X131576915Y-96451604D01*
X131604645Y-96482149D01*
X131674667Y-96488236D01*
X131683125Y-96488250D01*
X131757605Y-96483335D01*
X131788150Y-96455605D01*
X131790832Y-96424750D01*
X131762500Y-96424750D01*
X131735329Y-96448617D01*
X131683125Y-96456500D01*
X131623457Y-96445631D01*
X131603750Y-96424750D01*
X131630922Y-96400882D01*
X131683125Y-96393000D01*
X131742794Y-96403868D01*
X131762500Y-96424750D01*
X131790832Y-96424750D01*
X131794237Y-96385583D01*
X131794250Y-96377125D01*
X131791108Y-96329500D01*
X131762500Y-96329500D01*
X131735329Y-96353367D01*
X131683125Y-96361250D01*
X131623457Y-96350381D01*
X131603750Y-96329500D01*
X131630922Y-96305632D01*
X131683125Y-96297750D01*
X131742794Y-96308618D01*
X131762500Y-96329500D01*
X131791108Y-96329500D01*
X131789336Y-96302645D01*
X131761606Y-96272100D01*
X131691584Y-96266013D01*
X131683125Y-96266000D01*
X131608646Y-96270914D01*
X131608646Y-96270914D01*
G37*
X131608646Y-96270914D02*
X131578101Y-96298644D01*
X131572014Y-96368666D01*
X131572000Y-96377125D01*
X131576915Y-96451604D01*
X131604645Y-96482149D01*
X131674667Y-96488236D01*
X131683125Y-96488250D01*
X131757605Y-96483335D01*
X131788150Y-96455605D01*
X131790832Y-96424750D01*
X131762500Y-96424750D01*
X131735329Y-96448617D01*
X131683125Y-96456500D01*
X131623457Y-96445631D01*
X131603750Y-96424750D01*
X131630922Y-96400882D01*
X131683125Y-96393000D01*
X131742794Y-96403868D01*
X131762500Y-96424750D01*
X131790832Y-96424750D01*
X131794237Y-96385583D01*
X131794250Y-96377125D01*
X131791108Y-96329500D01*
X131762500Y-96329500D01*
X131735329Y-96353367D01*
X131683125Y-96361250D01*
X131623457Y-96350381D01*
X131603750Y-96329500D01*
X131630922Y-96305632D01*
X131683125Y-96297750D01*
X131742794Y-96308618D01*
X131762500Y-96329500D01*
X131791108Y-96329500D01*
X131789336Y-96302645D01*
X131761606Y-96272100D01*
X131691584Y-96266013D01*
X131683125Y-96266000D01*
X131608646Y-96270914D01*
G36*
X131943185Y-96345044D02*
G01*
X131918426Y-96379222D01*
X131943722Y-96413351D01*
X132008563Y-96428506D01*
X132095875Y-96432262D01*
X132000625Y-96456500D01*
X131905375Y-96480737D01*
X132008563Y-96484493D01*
X132079974Y-96480469D01*
X132107878Y-96451821D01*
X132111750Y-96408875D01*
X132107176Y-96383561D01*
X132060177Y-96383561D01*
X132016500Y-96387986D01*
X131971427Y-96382997D01*
X131976813Y-96371972D01*
X132041816Y-96367779D01*
X132056188Y-96371972D01*
X132060177Y-96383561D01*
X132107176Y-96383561D01*
X132101499Y-96352147D01*
X132057921Y-96331395D01*
X132016500Y-96329500D01*
X131943185Y-96345044D01*
X131943185Y-96345044D01*
G37*
X131943185Y-96345044D02*
X131918426Y-96379222D01*
X131943722Y-96413351D01*
X132008563Y-96428506D01*
X132095875Y-96432262D01*
X132000625Y-96456500D01*
X131905375Y-96480737D01*
X132008563Y-96484493D01*
X132079974Y-96480469D01*
X132107878Y-96451821D01*
X132111750Y-96408875D01*
X132107176Y-96383561D01*
X132060177Y-96383561D01*
X132016500Y-96387986D01*
X131971427Y-96382997D01*
X131976813Y-96371972D01*
X132041816Y-96367779D01*
X132056188Y-96371972D01*
X132060177Y-96383561D01*
X132107176Y-96383561D01*
X132101499Y-96352147D01*
X132057921Y-96331395D01*
X132016500Y-96329500D01*
X131943185Y-96345044D01*
G36*
X132186569Y-96364332D02*
G01*
X132184998Y-96369791D01*
X132180350Y-96438953D01*
X132186175Y-96465041D01*
X132196598Y-96466097D01*
X132200854Y-96416393D01*
X132200811Y-96408875D01*
X132196233Y-96359632D01*
X132186569Y-96364332D01*
X132186569Y-96364332D01*
G37*
X132186569Y-96364332D02*
X132184998Y-96369791D01*
X132180350Y-96438953D01*
X132186175Y-96465041D01*
X132196598Y-96466097D01*
X132200854Y-96416393D01*
X132200811Y-96408875D01*
X132196233Y-96359632D01*
X132186569Y-96364332D01*
G36*
X132266939Y-96337073D02*
G01*
X132243719Y-96371963D01*
X132243074Y-96416812D01*
X132247403Y-96471315D01*
X132254199Y-96465359D01*
X132261158Y-96432687D01*
X132295650Y-96373534D01*
X132334000Y-96361250D01*
X132388303Y-96389178D01*
X132406843Y-96432687D01*
X132416900Y-96474562D01*
X132422350Y-96457855D01*
X132424927Y-96416812D01*
X132419726Y-96354995D01*
X132382797Y-96332126D01*
X132334000Y-96329500D01*
X132266939Y-96337073D01*
X132266939Y-96337073D01*
G37*
X132266939Y-96337073D02*
X132243719Y-96371963D01*
X132243074Y-96416812D01*
X132247403Y-96471315D01*
X132254199Y-96465359D01*
X132261158Y-96432687D01*
X132295650Y-96373534D01*
X132334000Y-96361250D01*
X132388303Y-96389178D01*
X132406843Y-96432687D01*
X132416900Y-96474562D01*
X132422350Y-96457855D01*
X132424927Y-96416812D01*
X132419726Y-96354995D01*
X132382797Y-96332126D01*
X132334000Y-96329500D01*
X132266939Y-96337073D01*
G36*
X132482935Y-96345044D02*
G01*
X132458176Y-96379222D01*
X132483472Y-96413351D01*
X132548313Y-96428506D01*
X132635625Y-96432262D01*
X132540375Y-96456500D01*
X132445125Y-96480737D01*
X132548313Y-96484493D01*
X132619724Y-96480469D01*
X132647628Y-96451821D01*
X132651500Y-96408875D01*
X132646926Y-96383561D01*
X132599927Y-96383561D01*
X132556250Y-96387986D01*
X132511177Y-96382997D01*
X132516563Y-96371972D01*
X132581566Y-96367779D01*
X132595938Y-96371972D01*
X132599927Y-96383561D01*
X132646926Y-96383561D01*
X132641249Y-96352147D01*
X132597671Y-96331395D01*
X132556250Y-96329500D01*
X132482935Y-96345044D01*
X132482935Y-96345044D01*
G37*
X132482935Y-96345044D02*
X132458176Y-96379222D01*
X132483472Y-96413351D01*
X132548313Y-96428506D01*
X132635625Y-96432262D01*
X132540375Y-96456500D01*
X132445125Y-96480737D01*
X132548313Y-96484493D01*
X132619724Y-96480469D01*
X132647628Y-96451821D01*
X132651500Y-96408875D01*
X132646926Y-96383561D01*
X132599927Y-96383561D01*
X132556250Y-96387986D01*
X132511177Y-96382997D01*
X132516563Y-96371972D01*
X132581566Y-96367779D01*
X132595938Y-96371972D01*
X132599927Y-96383561D01*
X132646926Y-96383561D01*
X132641249Y-96352147D01*
X132597671Y-96331395D01*
X132556250Y-96329500D01*
X132482935Y-96345044D01*
G36*
X132786438Y-96271081D02*
G01*
X132712016Y-96274775D01*
X132698573Y-96278687D01*
X132743640Y-96285600D01*
X132770563Y-96288967D01*
X132843371Y-96306909D01*
X132871103Y-96346162D01*
X132873750Y-96379136D01*
X132858041Y-96440354D01*
X132810250Y-96456500D01*
X132755725Y-96441148D01*
X132754558Y-96409134D01*
X132802313Y-96383136D01*
X132820080Y-96371967D01*
X132777599Y-96365269D01*
X132770563Y-96364933D01*
X132705107Y-96373273D01*
X132683667Y-96413411D01*
X132683250Y-96424750D01*
X132695681Y-96468515D01*
X132744209Y-96486174D01*
X132794375Y-96488250D01*
X132868855Y-96483335D01*
X132899400Y-96455605D01*
X132905487Y-96385583D01*
X132905500Y-96377125D01*
X132901463Y-96304616D01*
X132876791Y-96274528D01*
X132812640Y-96270078D01*
X132786438Y-96271081D01*
X132786438Y-96271081D01*
G37*
X132786438Y-96271081D02*
X132712016Y-96274775D01*
X132698573Y-96278687D01*
X132743640Y-96285600D01*
X132770563Y-96288967D01*
X132843371Y-96306909D01*
X132871103Y-96346162D01*
X132873750Y-96379136D01*
X132858041Y-96440354D01*
X132810250Y-96456500D01*
X132755725Y-96441148D01*
X132754558Y-96409134D01*
X132802313Y-96383136D01*
X132820080Y-96371967D01*
X132777599Y-96365269D01*
X132770563Y-96364933D01*
X132705107Y-96373273D01*
X132683667Y-96413411D01*
X132683250Y-96424750D01*
X132695681Y-96468515D01*
X132744209Y-96486174D01*
X132794375Y-96488250D01*
X132868855Y-96483335D01*
X132899400Y-96455605D01*
X132905487Y-96385583D01*
X132905500Y-96377125D01*
X132901463Y-96304616D01*
X132876791Y-96274528D01*
X132812640Y-96270078D01*
X132786438Y-96271081D01*
G36*
X130682506Y-96335694D02*
G01*
X130656258Y-96367116D01*
X130651250Y-96440625D01*
X130655243Y-96514119D01*
X130665060Y-96550806D01*
X130667125Y-96551750D01*
X130682584Y-96527213D01*
X130683000Y-96520000D01*
X130710172Y-96496132D01*
X130762375Y-96488250D01*
X130822796Y-96475136D01*
X130841415Y-96423502D01*
X130841750Y-96408875D01*
X130810000Y-96408875D01*
X130783531Y-96447660D01*
X130746500Y-96456500D01*
X130694786Y-96436647D01*
X130683000Y-96408875D01*
X130709470Y-96370089D01*
X130746500Y-96361250D01*
X130798215Y-96381102D01*
X130810000Y-96408875D01*
X130841750Y-96408875D01*
X130831499Y-96352147D01*
X130787921Y-96331395D01*
X130746500Y-96329500D01*
X130682506Y-96335694D01*
X130682506Y-96335694D01*
G37*
X130682506Y-96335694D02*
X130656258Y-96367116D01*
X130651250Y-96440625D01*
X130655243Y-96514119D01*
X130665060Y-96550806D01*
X130667125Y-96551750D01*
X130682584Y-96527213D01*
X130683000Y-96520000D01*
X130710172Y-96496132D01*
X130762375Y-96488250D01*
X130822796Y-96475136D01*
X130841415Y-96423502D01*
X130841750Y-96408875D01*
X130810000Y-96408875D01*
X130783531Y-96447660D01*
X130746500Y-96456500D01*
X130694786Y-96436647D01*
X130683000Y-96408875D01*
X130709470Y-96370089D01*
X130746500Y-96361250D01*
X130798215Y-96381102D01*
X130810000Y-96408875D01*
X130841750Y-96408875D01*
X130831499Y-96352147D01*
X130787921Y-96331395D01*
X130746500Y-96329500D01*
X130682506Y-96335694D01*
G36*
X129127250Y-96631125D02*
G01*
X129143125Y-96647000D01*
X129159000Y-96631125D01*
X129143125Y-96615250D01*
X129127250Y-96631125D01*
X129127250Y-96631125D01*
G37*
X129127250Y-96631125D02*
X129143125Y-96647000D01*
X129159000Y-96631125D01*
X129143125Y-96615250D01*
X129127250Y-96631125D01*
G36*
X131138084Y-96625833D02*
G01*
X131142442Y-96644708D01*
X131159250Y-96647000D01*
X131185384Y-96635383D01*
X131180417Y-96625833D01*
X131142737Y-96622033D01*
X131138084Y-96625833D01*
X131138084Y-96625833D01*
G37*
X131138084Y-96625833D02*
X131142442Y-96644708D01*
X131159250Y-96647000D01*
X131185384Y-96635383D01*
X131180417Y-96625833D01*
X131142737Y-96622033D01*
X131138084Y-96625833D01*
G36*
X133326062Y-96326701D02*
G01*
X133276575Y-96400534D01*
X133255683Y-96528631D01*
X133254750Y-96571779D01*
X133269908Y-96699313D01*
X133316862Y-96773965D01*
X133397832Y-96799044D01*
X133407196Y-96798974D01*
X133496180Y-96796443D01*
X133480584Y-96764920D01*
X133408566Y-96764920D01*
X133390769Y-96755091D01*
X133381750Y-96742250D01*
X133355425Y-96674471D01*
X133352718Y-96647000D01*
X133361784Y-96628013D01*
X133381750Y-96662875D01*
X133405560Y-96730189D01*
X133408566Y-96764920D01*
X133480584Y-96764920D01*
X133435647Y-96674096D01*
X133399281Y-96594260D01*
X133393582Y-96551750D01*
X133350000Y-96551750D01*
X133338384Y-96577883D01*
X133328834Y-96572916D01*
X133325034Y-96535236D01*
X133328834Y-96530583D01*
X133347709Y-96534941D01*
X133350000Y-96551750D01*
X133393582Y-96551750D01*
X133391843Y-96538781D01*
X133413334Y-96475487D01*
X133435647Y-96429403D01*
X133484129Y-96331413D01*
X133408455Y-96331413D01*
X133407677Y-96346805D01*
X133400023Y-96371784D01*
X133383016Y-96440351D01*
X133379244Y-96467034D01*
X133371565Y-96485577D01*
X133361122Y-96465633D01*
X133363880Y-96409909D01*
X133381901Y-96370383D01*
X133408455Y-96331413D01*
X133484129Y-96331413D01*
X133496180Y-96307056D01*
X133405639Y-96304481D01*
X133326062Y-96326701D01*
X133326062Y-96326701D01*
G37*
X133326062Y-96326701D02*
X133276575Y-96400534D01*
X133255683Y-96528631D01*
X133254750Y-96571779D01*
X133269908Y-96699313D01*
X133316862Y-96773965D01*
X133397832Y-96799044D01*
X133407196Y-96798974D01*
X133496180Y-96796443D01*
X133480584Y-96764920D01*
X133408566Y-96764920D01*
X133390769Y-96755091D01*
X133381750Y-96742250D01*
X133355425Y-96674471D01*
X133352718Y-96647000D01*
X133361784Y-96628013D01*
X133381750Y-96662875D01*
X133405560Y-96730189D01*
X133408566Y-96764920D01*
X133480584Y-96764920D01*
X133435647Y-96674096D01*
X133399281Y-96594260D01*
X133393582Y-96551750D01*
X133350000Y-96551750D01*
X133338384Y-96577883D01*
X133328834Y-96572916D01*
X133325034Y-96535236D01*
X133328834Y-96530583D01*
X133347709Y-96534941D01*
X133350000Y-96551750D01*
X133393582Y-96551750D01*
X133391843Y-96538781D01*
X133413334Y-96475487D01*
X133435647Y-96429403D01*
X133484129Y-96331413D01*
X133408455Y-96331413D01*
X133407677Y-96346805D01*
X133400023Y-96371784D01*
X133383016Y-96440351D01*
X133379244Y-96467034D01*
X133371565Y-96485577D01*
X133361122Y-96465633D01*
X133363880Y-96409909D01*
X133381901Y-96370383D01*
X133408455Y-96331413D01*
X133484129Y-96331413D01*
X133496180Y-96307056D01*
X133405639Y-96304481D01*
X133326062Y-96326701D01*
G36*
X128850795Y-96671182D02*
G01*
X128845683Y-96753911D01*
X128851436Y-96798182D01*
X128860018Y-96805604D01*
X128864834Y-96760009D01*
X128865244Y-96726375D01*
X128862118Y-96664888D01*
X128854947Y-96655560D01*
X128850795Y-96671182D01*
X128850795Y-96671182D01*
G37*
X128850795Y-96671182D02*
X128845683Y-96753911D01*
X128851436Y-96798182D01*
X128860018Y-96805604D01*
X128864834Y-96760009D01*
X128865244Y-96726375D01*
X128862118Y-96664888D01*
X128854947Y-96655560D01*
X128850795Y-96671182D01*
G36*
X130281015Y-96643160D02*
G01*
X130270525Y-96711791D01*
X130270250Y-96726375D01*
X130278225Y-96799825D01*
X130297834Y-96836540D01*
X130302000Y-96837500D01*
X130322986Y-96809589D01*
X130333476Y-96740958D01*
X130333750Y-96726375D01*
X130325776Y-96652924D01*
X130306167Y-96616209D01*
X130302000Y-96615250D01*
X130281015Y-96643160D01*
X130281015Y-96643160D01*
G37*
X130281015Y-96643160D02*
X130270525Y-96711791D01*
X130270250Y-96726375D01*
X130278225Y-96799825D01*
X130297834Y-96836540D01*
X130302000Y-96837500D01*
X130322986Y-96809589D01*
X130333476Y-96740958D01*
X130333750Y-96726375D01*
X130325776Y-96652924D01*
X130306167Y-96616209D01*
X130302000Y-96615250D01*
X130281015Y-96643160D01*
G36*
X131833938Y-96679236D02*
G01*
X131801285Y-96688018D01*
X131814390Y-96703048D01*
X131851612Y-96751167D01*
X131866270Y-96789875D01*
X131877907Y-96821941D01*
X131884203Y-96794847D01*
X131885817Y-96766062D01*
X131876332Y-96699161D01*
X131835320Y-96679233D01*
X131833938Y-96679236D01*
X131833938Y-96679236D01*
G37*
X131833938Y-96679236D02*
X131801285Y-96688018D01*
X131814390Y-96703048D01*
X131851612Y-96751167D01*
X131866270Y-96789875D01*
X131877907Y-96821941D01*
X131884203Y-96794847D01*
X131885817Y-96766062D01*
X131876332Y-96699161D01*
X131835320Y-96679233D01*
X131833938Y-96679236D01*
G36*
X132502045Y-96671182D02*
G01*
X132496933Y-96753911D01*
X132502686Y-96798182D01*
X132511268Y-96805604D01*
X132516084Y-96760009D01*
X132516494Y-96726375D01*
X132513368Y-96664888D01*
X132506197Y-96655560D01*
X132502045Y-96671182D01*
X132502045Y-96671182D01*
G37*
X132502045Y-96671182D02*
X132496933Y-96753911D01*
X132502686Y-96798182D01*
X132511268Y-96805604D01*
X132516084Y-96760009D01*
X132516494Y-96726375D01*
X132513368Y-96664888D01*
X132506197Y-96655560D01*
X132502045Y-96671182D01*
G36*
X128548131Y-96694438D02*
G01*
X128523212Y-96729639D01*
X128548547Y-96766554D01*
X128595438Y-96783342D01*
X128666875Y-96797102D01*
X128595438Y-96801426D01*
X128539599Y-96816809D01*
X128524000Y-96837500D01*
X128550116Y-96860313D01*
X128608318Y-96868964D01*
X128668392Y-96861566D01*
X128693334Y-96848083D01*
X128710040Y-96802652D01*
X128714500Y-96752833D01*
X128710596Y-96734659D01*
X128637230Y-96734659D01*
X128606021Y-96739743D01*
X128564841Y-96733905D01*
X128564349Y-96723067D01*
X128606843Y-96715488D01*
X128625204Y-96720561D01*
X128637230Y-96734659D01*
X128710596Y-96734659D01*
X128703063Y-96699601D01*
X128656353Y-96680254D01*
X128619250Y-96678750D01*
X128548131Y-96694438D01*
X128548131Y-96694438D01*
G37*
X128548131Y-96694438D02*
X128523212Y-96729639D01*
X128548547Y-96766554D01*
X128595438Y-96783342D01*
X128666875Y-96797102D01*
X128595438Y-96801426D01*
X128539599Y-96816809D01*
X128524000Y-96837500D01*
X128550116Y-96860313D01*
X128608318Y-96868964D01*
X128668392Y-96861566D01*
X128693334Y-96848083D01*
X128710040Y-96802652D01*
X128714500Y-96752833D01*
X128710596Y-96734659D01*
X128637230Y-96734659D01*
X128606021Y-96739743D01*
X128564841Y-96733905D01*
X128564349Y-96723067D01*
X128606843Y-96715488D01*
X128625204Y-96720561D01*
X128637230Y-96734659D01*
X128710596Y-96734659D01*
X128703063Y-96699601D01*
X128656353Y-96680254D01*
X128619250Y-96678750D01*
X128548131Y-96694438D01*
G36*
X128755593Y-96670812D02*
G01*
X128750341Y-96763331D01*
X128755593Y-96813687D01*
X128763445Y-96828733D01*
X128768427Y-96788843D01*
X128769353Y-96742250D01*
X128766876Y-96673579D01*
X128760544Y-96654728D01*
X128755593Y-96670812D01*
X128755593Y-96670812D01*
G37*
X128755593Y-96670812D02*
X128750341Y-96763331D01*
X128755593Y-96813687D01*
X128763445Y-96828733D01*
X128768427Y-96788843D01*
X128769353Y-96742250D01*
X128766876Y-96673579D01*
X128760544Y-96654728D01*
X128755593Y-96670812D01*
G36*
X128926422Y-96694578D02*
G01*
X128904995Y-96729903D01*
X128937358Y-96766486D01*
X128992313Y-96783008D01*
X129079625Y-96796235D01*
X128992313Y-96800992D01*
X128922317Y-96816650D01*
X128908705Y-96842854D01*
X128949732Y-96864594D01*
X129000250Y-96869250D01*
X129067716Y-96861382D01*
X129092582Y-96824272D01*
X129095500Y-96774000D01*
X129090698Y-96732811D01*
X129043927Y-96732811D01*
X129000250Y-96737236D01*
X128955177Y-96732247D01*
X128960563Y-96721222D01*
X129025566Y-96717029D01*
X129039938Y-96721222D01*
X129043927Y-96732811D01*
X129090698Y-96732811D01*
X129087633Y-96706534D01*
X129050523Y-96681668D01*
X129000250Y-96678750D01*
X128926422Y-96694578D01*
X128926422Y-96694578D01*
G37*
X128926422Y-96694578D02*
X128904995Y-96729903D01*
X128937358Y-96766486D01*
X128992313Y-96783008D01*
X129079625Y-96796235D01*
X128992313Y-96800992D01*
X128922317Y-96816650D01*
X128908705Y-96842854D01*
X128949732Y-96864594D01*
X129000250Y-96869250D01*
X129067716Y-96861382D01*
X129092582Y-96824272D01*
X129095500Y-96774000D01*
X129090698Y-96732811D01*
X129043927Y-96732811D01*
X129000250Y-96737236D01*
X128955177Y-96732247D01*
X128960563Y-96721222D01*
X129025566Y-96717029D01*
X129039938Y-96721222D01*
X129043927Y-96732811D01*
X129090698Y-96732811D01*
X129087633Y-96706534D01*
X129050523Y-96681668D01*
X129000250Y-96678750D01*
X128926422Y-96694578D01*
G36*
X129137114Y-96718437D02*
G01*
X129132177Y-96798962D01*
X129137114Y-96829562D01*
X129146317Y-96839443D01*
X129151327Y-96795541D01*
X129151634Y-96774000D01*
X129148324Y-96716236D01*
X129140083Y-96709429D01*
X129137114Y-96718437D01*
X129137114Y-96718437D01*
G37*
X129137114Y-96718437D02*
X129132177Y-96798962D01*
X129137114Y-96829562D01*
X129146317Y-96839443D01*
X129151327Y-96795541D01*
X129151634Y-96774000D01*
X129148324Y-96716236D01*
X129140083Y-96709429D01*
X129137114Y-96718437D01*
G36*
X129320257Y-96639062D02*
G01*
X129291246Y-96670286D01*
X129246313Y-96679236D01*
X129203463Y-96687201D01*
X129210890Y-96703048D01*
X129248112Y-96751167D01*
X129262770Y-96789875D01*
X129275037Y-96827297D01*
X129282570Y-96806464D01*
X129286074Y-96774000D01*
X129292409Y-96724082D01*
X129301237Y-96729761D01*
X129317750Y-96789875D01*
X129341988Y-96885125D01*
X129345744Y-96797812D01*
X129358863Y-96734002D01*
X129404197Y-96713164D01*
X129436813Y-96712512D01*
X129496281Y-96715340D01*
X129495547Y-96724903D01*
X129450029Y-96744223D01*
X129398827Y-96780122D01*
X129389016Y-96813648D01*
X129421705Y-96845948D01*
X129476199Y-96863633D01*
X129524542Y-96861446D01*
X129540000Y-96842036D01*
X129513819Y-96808380D01*
X129484438Y-96795886D01*
X129445308Y-96783819D01*
X129467854Y-96778844D01*
X129484438Y-96777683D01*
X129535449Y-96758498D01*
X129539961Y-96723380D01*
X129504874Y-96690759D01*
X129447396Y-96678750D01*
X129375804Y-96666539D01*
X129338778Y-96639062D01*
X129324433Y-96615665D01*
X129320257Y-96639062D01*
X129320257Y-96639062D01*
G37*
X129320257Y-96639062D02*
X129291246Y-96670286D01*
X129246313Y-96679236D01*
X129203463Y-96687201D01*
X129210890Y-96703048D01*
X129248112Y-96751167D01*
X129262770Y-96789875D01*
X129275037Y-96827297D01*
X129282570Y-96806464D01*
X129286074Y-96774000D01*
X129292409Y-96724082D01*
X129301237Y-96729761D01*
X129317750Y-96789875D01*
X129341988Y-96885125D01*
X129345744Y-96797812D01*
X129358863Y-96734002D01*
X129404197Y-96713164D01*
X129436813Y-96712512D01*
X129496281Y-96715340D01*
X129495547Y-96724903D01*
X129450029Y-96744223D01*
X129398827Y-96780122D01*
X129389016Y-96813648D01*
X129421705Y-96845948D01*
X129476199Y-96863633D01*
X129524542Y-96861446D01*
X129540000Y-96842036D01*
X129513819Y-96808380D01*
X129484438Y-96795886D01*
X129445308Y-96783819D01*
X129467854Y-96778844D01*
X129484438Y-96777683D01*
X129535449Y-96758498D01*
X129539961Y-96723380D01*
X129504874Y-96690759D01*
X129447396Y-96678750D01*
X129375804Y-96666539D01*
X129338778Y-96639062D01*
X129324433Y-96615665D01*
X129320257Y-96639062D01*
G36*
X129609929Y-96729401D02*
G01*
X129607824Y-96766062D01*
X129611392Y-96837435D01*
X129639695Y-96865343D01*
X129682875Y-96869250D01*
X129737420Y-96860724D01*
X129757283Y-96822410D01*
X129757927Y-96766062D01*
X129753063Y-96707712D01*
X129745202Y-96710756D01*
X129739843Y-96734312D01*
X129712770Y-96790132D01*
X129682875Y-96805750D01*
X129643915Y-96778764D01*
X129625908Y-96734312D01*
X129616127Y-96701674D01*
X129609929Y-96729401D01*
X129609929Y-96729401D01*
G37*
X129609929Y-96729401D02*
X129607824Y-96766062D01*
X129611392Y-96837435D01*
X129639695Y-96865343D01*
X129682875Y-96869250D01*
X129737420Y-96860724D01*
X129757283Y-96822410D01*
X129757927Y-96766062D01*
X129753063Y-96707712D01*
X129745202Y-96710756D01*
X129739843Y-96734312D01*
X129712770Y-96790132D01*
X129682875Y-96805750D01*
X129643915Y-96778764D01*
X129625908Y-96734312D01*
X129616127Y-96701674D01*
X129609929Y-96729401D01*
G36*
X129836752Y-96642119D02*
G01*
X129829764Y-96695439D01*
X129828257Y-96734312D01*
X129830532Y-96819475D01*
X129847689Y-96858650D01*
X129888880Y-96869090D01*
X129899834Y-96869250D01*
X129966512Y-96861042D01*
X129995084Y-96848083D01*
X130011790Y-96802652D01*
X130015776Y-96758125D01*
X129984500Y-96758125D01*
X129958031Y-96796910D01*
X129921000Y-96805750D01*
X129869286Y-96785897D01*
X129857500Y-96758125D01*
X129883970Y-96719339D01*
X129921000Y-96710500D01*
X129972715Y-96730352D01*
X129984500Y-96758125D01*
X130015776Y-96758125D01*
X130016250Y-96752833D01*
X130001135Y-96695397D01*
X129944755Y-96678796D01*
X129939521Y-96678750D01*
X129874301Y-96664156D01*
X129846778Y-96639062D01*
X129836752Y-96642119D01*
X129836752Y-96642119D01*
G37*
X129836752Y-96642119D02*
X129829764Y-96695439D01*
X129828257Y-96734312D01*
X129830532Y-96819475D01*
X129847689Y-96858650D01*
X129888880Y-96869090D01*
X129899834Y-96869250D01*
X129966512Y-96861042D01*
X129995084Y-96848083D01*
X130011790Y-96802652D01*
X130015776Y-96758125D01*
X129984500Y-96758125D01*
X129958031Y-96796910D01*
X129921000Y-96805750D01*
X129869286Y-96785897D01*
X129857500Y-96758125D01*
X129883970Y-96719339D01*
X129921000Y-96710500D01*
X129972715Y-96730352D01*
X129984500Y-96758125D01*
X130015776Y-96758125D01*
X130016250Y-96752833D01*
X130001135Y-96695397D01*
X129944755Y-96678796D01*
X129939521Y-96678750D01*
X129874301Y-96664156D01*
X129846778Y-96639062D01*
X129836752Y-96642119D01*
G36*
X130078077Y-96685208D02*
G01*
X130053924Y-96717755D01*
X130052758Y-96781937D01*
X130056658Y-96846843D01*
X130061609Y-96851090D01*
X130070742Y-96797812D01*
X130099280Y-96727479D01*
X130143250Y-96710500D01*
X130194994Y-96736840D01*
X130215759Y-96797812D01*
X130224918Y-96851190D01*
X130229859Y-96846705D01*
X130233743Y-96781937D01*
X130231052Y-96711010D01*
X130202289Y-96683218D01*
X130143250Y-96678750D01*
X130078077Y-96685208D01*
X130078077Y-96685208D01*
G37*
X130078077Y-96685208D02*
X130053924Y-96717755D01*
X130052758Y-96781937D01*
X130056658Y-96846843D01*
X130061609Y-96851090D01*
X130070742Y-96797812D01*
X130099280Y-96727479D01*
X130143250Y-96710500D01*
X130194994Y-96736840D01*
X130215759Y-96797812D01*
X130224918Y-96851190D01*
X130229859Y-96846705D01*
X130233743Y-96781937D01*
X130231052Y-96711010D01*
X130202289Y-96683218D01*
X130143250Y-96678750D01*
X130078077Y-96685208D01*
G36*
X130480381Y-96692949D02*
G01*
X130460750Y-96726375D01*
X130487634Y-96764386D01*
X130532188Y-96771768D01*
X130581652Y-96768038D01*
X130570154Y-96755615D01*
X130540125Y-96742250D01*
X130497276Y-96721379D01*
X130514044Y-96714204D01*
X130548063Y-96712731D01*
X130606339Y-96728833D01*
X130619500Y-96758125D01*
X130591900Y-96796428D01*
X130540125Y-96805750D01*
X130480457Y-96816618D01*
X130460750Y-96837500D01*
X130486866Y-96860313D01*
X130545068Y-96868964D01*
X130605142Y-96861566D01*
X130630084Y-96848083D01*
X130646790Y-96802652D01*
X130651250Y-96752833D01*
X130639813Y-96699601D01*
X130593103Y-96680254D01*
X130556000Y-96678750D01*
X130480381Y-96692949D01*
X130480381Y-96692949D01*
G37*
X130480381Y-96692949D02*
X130460750Y-96726375D01*
X130487634Y-96764386D01*
X130532188Y-96771768D01*
X130581652Y-96768038D01*
X130570154Y-96755615D01*
X130540125Y-96742250D01*
X130497276Y-96721379D01*
X130514044Y-96714204D01*
X130548063Y-96712731D01*
X130606339Y-96728833D01*
X130619500Y-96758125D01*
X130591900Y-96796428D01*
X130540125Y-96805750D01*
X130480457Y-96816618D01*
X130460750Y-96837500D01*
X130486866Y-96860313D01*
X130545068Y-96868964D01*
X130605142Y-96861566D01*
X130630084Y-96848083D01*
X130646790Y-96802652D01*
X130651250Y-96752833D01*
X130639813Y-96699601D01*
X130593103Y-96680254D01*
X130556000Y-96678750D01*
X130480381Y-96692949D01*
G36*
X130689429Y-96729401D02*
G01*
X130687324Y-96766062D01*
X130690354Y-96837007D01*
X130719359Y-96864796D01*
X130778250Y-96869250D01*
X130843466Y-96862747D01*
X130867748Y-96830063D01*
X130869177Y-96766062D01*
X130864313Y-96707712D01*
X130856452Y-96710756D01*
X130851093Y-96734312D01*
X130816601Y-96793465D01*
X130778250Y-96805750D01*
X130723948Y-96777821D01*
X130705408Y-96734312D01*
X130695627Y-96701674D01*
X130689429Y-96729401D01*
X130689429Y-96729401D01*
G37*
X130689429Y-96729401D02*
X130687324Y-96766062D01*
X130690354Y-96837007D01*
X130719359Y-96864796D01*
X130778250Y-96869250D01*
X130843466Y-96862747D01*
X130867748Y-96830063D01*
X130869177Y-96766062D01*
X130864313Y-96707712D01*
X130856452Y-96710756D01*
X130851093Y-96734312D01*
X130816601Y-96793465D01*
X130778250Y-96805750D01*
X130723948Y-96777821D01*
X130705408Y-96734312D01*
X130695627Y-96701674D01*
X130689429Y-96729401D01*
G36*
X131204707Y-96660016D02*
G01*
X131175262Y-96711812D01*
X131162307Y-96773555D01*
X131162415Y-96779669D01*
X131165911Y-96829756D01*
X131174518Y-96821714D01*
X131189516Y-96774000D01*
X131206794Y-96721940D01*
X131216476Y-96725827D01*
X131226692Y-96789122D01*
X131226798Y-96789875D01*
X131240144Y-96885125D01*
X131256953Y-96787016D01*
X131265272Y-96706205D01*
X131261580Y-96652362D01*
X131237770Y-96634691D01*
X131204707Y-96660016D01*
X131204707Y-96660016D01*
G37*
X131204707Y-96660016D02*
X131175262Y-96711812D01*
X131162307Y-96773555D01*
X131162415Y-96779669D01*
X131165911Y-96829756D01*
X131174518Y-96821714D01*
X131189516Y-96774000D01*
X131206794Y-96721940D01*
X131216476Y-96725827D01*
X131226692Y-96789122D01*
X131226798Y-96789875D01*
X131240144Y-96885125D01*
X131256953Y-96787016D01*
X131265272Y-96706205D01*
X131261580Y-96652362D01*
X131237770Y-96634691D01*
X131204707Y-96660016D01*
G36*
X131343436Y-96688097D02*
G01*
X131320578Y-96725812D01*
X131318000Y-96774000D01*
X131326543Y-96842072D01*
X131362858Y-96866975D01*
X131397375Y-96869250D01*
X131459618Y-96854367D01*
X131476750Y-96805750D01*
X131473547Y-96798159D01*
X131431230Y-96798159D01*
X131400021Y-96803243D01*
X131358841Y-96797405D01*
X131358349Y-96786567D01*
X131400843Y-96778988D01*
X131419204Y-96784061D01*
X131431230Y-96798159D01*
X131473547Y-96798159D01*
X131454336Y-96752636D01*
X131405313Y-96739085D01*
X131358111Y-96735284D01*
X131368082Y-96725642D01*
X131413250Y-96710500D01*
X131492625Y-96685079D01*
X131405313Y-96681914D01*
X131343436Y-96688097D01*
X131343436Y-96688097D01*
G37*
X131343436Y-96688097D02*
X131320578Y-96725812D01*
X131318000Y-96774000D01*
X131326543Y-96842072D01*
X131362858Y-96866975D01*
X131397375Y-96869250D01*
X131459618Y-96854367D01*
X131476750Y-96805750D01*
X131473547Y-96798159D01*
X131431230Y-96798159D01*
X131400021Y-96803243D01*
X131358841Y-96797405D01*
X131358349Y-96786567D01*
X131400843Y-96778988D01*
X131419204Y-96784061D01*
X131431230Y-96798159D01*
X131473547Y-96798159D01*
X131454336Y-96752636D01*
X131405313Y-96739085D01*
X131358111Y-96735284D01*
X131368082Y-96725642D01*
X131413250Y-96710500D01*
X131492625Y-96685079D01*
X131405313Y-96681914D01*
X131343436Y-96688097D01*
G36*
X131577150Y-96683507D02*
G01*
X131547781Y-96709773D01*
X131544723Y-96775540D01*
X131545008Y-96781937D01*
X131548908Y-96846843D01*
X131553859Y-96851090D01*
X131562992Y-96797812D01*
X131581229Y-96734449D01*
X131603750Y-96710500D01*
X131627881Y-96737894D01*
X131644509Y-96797812D01*
X131657736Y-96885125D01*
X131662493Y-96797812D01*
X131675276Y-96734375D01*
X131696892Y-96710500D01*
X131722557Y-96737904D01*
X131739759Y-96797812D01*
X131748918Y-96851190D01*
X131753859Y-96846705D01*
X131757743Y-96781937D01*
X131755807Y-96712810D01*
X131728829Y-96684414D01*
X131658264Y-96678759D01*
X131651375Y-96678750D01*
X131577150Y-96683507D01*
X131577150Y-96683507D01*
G37*
X131577150Y-96683507D02*
X131547781Y-96709773D01*
X131544723Y-96775540D01*
X131545008Y-96781937D01*
X131548908Y-96846843D01*
X131553859Y-96851090D01*
X131562992Y-96797812D01*
X131581229Y-96734449D01*
X131603750Y-96710500D01*
X131627881Y-96737894D01*
X131644509Y-96797812D01*
X131657736Y-96885125D01*
X131662493Y-96797812D01*
X131675276Y-96734375D01*
X131696892Y-96710500D01*
X131722557Y-96737904D01*
X131739759Y-96797812D01*
X131748918Y-96851190D01*
X131753859Y-96846705D01*
X131757743Y-96781937D01*
X131755807Y-96712810D01*
X131728829Y-96684414D01*
X131658264Y-96678759D01*
X131651375Y-96678750D01*
X131577150Y-96683507D01*
G36*
X132114672Y-96620979D02*
G01*
X132137419Y-96643022D01*
X132143500Y-96647000D01*
X132157309Y-96666644D01*
X132116992Y-96676354D01*
X132056188Y-96678263D01*
X131971496Y-96681801D01*
X131932568Y-96699968D01*
X131921704Y-96745324D01*
X131921250Y-96774000D01*
X131929118Y-96841465D01*
X131966228Y-96866331D01*
X132016500Y-96869250D01*
X132084573Y-96860707D01*
X132109476Y-96824392D01*
X132111750Y-96789875D01*
X132117496Y-96758125D01*
X132080000Y-96758125D01*
X132053531Y-96796910D01*
X132016500Y-96805750D01*
X131964786Y-96785897D01*
X131953000Y-96758125D01*
X131979470Y-96719339D01*
X132016500Y-96710500D01*
X132068215Y-96730352D01*
X132080000Y-96758125D01*
X132117496Y-96758125D01*
X132123494Y-96724988D01*
X132149483Y-96715525D01*
X132175857Y-96759968D01*
X132184259Y-96797812D01*
X132192899Y-96834478D01*
X132198988Y-96810211D01*
X132202243Y-96750187D01*
X132200314Y-96663176D01*
X132182507Y-96623566D01*
X132151438Y-96615736D01*
X132114672Y-96620979D01*
X132114672Y-96620979D01*
G37*
X132114672Y-96620979D02*
X132137419Y-96643022D01*
X132143500Y-96647000D01*
X132157309Y-96666644D01*
X132116992Y-96676354D01*
X132056188Y-96678263D01*
X131971496Y-96681801D01*
X131932568Y-96699968D01*
X131921704Y-96745324D01*
X131921250Y-96774000D01*
X131929118Y-96841465D01*
X131966228Y-96866331D01*
X132016500Y-96869250D01*
X132084573Y-96860707D01*
X132109476Y-96824392D01*
X132111750Y-96789875D01*
X132117496Y-96758125D01*
X132080000Y-96758125D01*
X132053531Y-96796910D01*
X132016500Y-96805750D01*
X131964786Y-96785897D01*
X131953000Y-96758125D01*
X131979470Y-96719339D01*
X132016500Y-96710500D01*
X132068215Y-96730352D01*
X132080000Y-96758125D01*
X132117496Y-96758125D01*
X132123494Y-96724988D01*
X132149483Y-96715525D01*
X132175857Y-96759968D01*
X132184259Y-96797812D01*
X132192899Y-96834478D01*
X132198988Y-96810211D01*
X132202243Y-96750187D01*
X132200314Y-96663176D01*
X132182507Y-96623566D01*
X132151438Y-96615736D01*
X132114672Y-96620979D01*
G36*
X132268827Y-96685208D02*
G01*
X132244674Y-96717755D01*
X132243508Y-96781937D01*
X132247408Y-96846843D01*
X132252359Y-96851090D01*
X132261492Y-96797812D01*
X132290030Y-96727479D01*
X132334000Y-96710500D01*
X132385744Y-96736840D01*
X132406509Y-96797812D01*
X132415668Y-96851190D01*
X132420609Y-96846705D01*
X132424493Y-96781937D01*
X132421802Y-96711010D01*
X132393039Y-96683218D01*
X132334000Y-96678750D01*
X132268827Y-96685208D01*
X132268827Y-96685208D01*
G37*
X132268827Y-96685208D02*
X132244674Y-96717755D01*
X132243508Y-96781937D01*
X132247408Y-96846843D01*
X132252359Y-96851090D01*
X132261492Y-96797812D01*
X132290030Y-96727479D01*
X132334000Y-96710500D01*
X132385744Y-96736840D01*
X132406509Y-96797812D01*
X132415668Y-96851190D01*
X132420609Y-96846705D01*
X132424493Y-96781937D01*
X132421802Y-96711010D01*
X132393039Y-96683218D01*
X132334000Y-96678750D01*
X132268827Y-96685208D01*
G36*
X132648514Y-96642017D02*
G01*
X132643895Y-96696000D01*
X132648629Y-96763173D01*
X132653675Y-96789875D01*
X132675738Y-96885125D01*
X132682001Y-96789875D01*
X132690535Y-96735822D01*
X132702965Y-96731418D01*
X132704278Y-96734312D01*
X132744707Y-96765390D01*
X132804959Y-96778323D01*
X132858977Y-96782581D01*
X132852347Y-96789227D01*
X132818188Y-96796407D01*
X132757293Y-96821520D01*
X132754615Y-96851047D01*
X132808371Y-96868612D01*
X132826125Y-96869250D01*
X132882853Y-96858998D01*
X132903605Y-96815420D01*
X132905500Y-96774000D01*
X132901395Y-96732811D01*
X132853927Y-96732811D01*
X132810250Y-96737236D01*
X132765177Y-96732247D01*
X132770563Y-96721222D01*
X132835566Y-96717029D01*
X132849938Y-96721222D01*
X132853927Y-96732811D01*
X132901395Y-96732811D01*
X132899068Y-96709469D01*
X132866814Y-96683412D01*
X132797021Y-96678750D01*
X132720560Y-96668735D01*
X132677531Y-96644266D01*
X132675848Y-96640667D01*
X132659996Y-96617986D01*
X132648514Y-96642017D01*
X132648514Y-96642017D01*
G37*
X132648514Y-96642017D02*
X132643895Y-96696000D01*
X132648629Y-96763173D01*
X132653675Y-96789875D01*
X132675738Y-96885125D01*
X132682001Y-96789875D01*
X132690535Y-96735822D01*
X132702965Y-96731418D01*
X132704278Y-96734312D01*
X132744707Y-96765390D01*
X132804959Y-96778323D01*
X132858977Y-96782581D01*
X132852347Y-96789227D01*
X132818188Y-96796407D01*
X132757293Y-96821520D01*
X132754615Y-96851047D01*
X132808371Y-96868612D01*
X132826125Y-96869250D01*
X132882853Y-96858998D01*
X132903605Y-96815420D01*
X132905500Y-96774000D01*
X132901395Y-96732811D01*
X132853927Y-96732811D01*
X132810250Y-96737236D01*
X132765177Y-96732247D01*
X132770563Y-96721222D01*
X132835566Y-96717029D01*
X132849938Y-96721222D01*
X132853927Y-96732811D01*
X132901395Y-96732811D01*
X132899068Y-96709469D01*
X132866814Y-96683412D01*
X132797021Y-96678750D01*
X132720560Y-96668735D01*
X132677531Y-96644266D01*
X132675848Y-96640667D01*
X132659996Y-96617986D01*
X132648514Y-96642017D01*
G36*
X130936506Y-96684944D02*
G01*
X130910258Y-96716366D01*
X130905250Y-96789875D01*
X130909243Y-96863369D01*
X130919060Y-96900056D01*
X130921125Y-96901000D01*
X130932281Y-96873357D01*
X130937000Y-96806775D01*
X130937000Y-96805750D01*
X130946979Y-96736029D01*
X130984109Y-96711482D01*
X131000500Y-96710500D01*
X131052215Y-96730352D01*
X131064000Y-96758125D01*
X131038586Y-96800218D01*
X131016375Y-96805750D01*
X130974124Y-96822894D01*
X130968750Y-96837500D01*
X130995343Y-96863296D01*
X131032250Y-96869250D01*
X131078731Y-96854281D01*
X131095095Y-96798587D01*
X131095750Y-96774000D01*
X131087883Y-96706534D01*
X131050773Y-96681668D01*
X131000500Y-96678750D01*
X130936506Y-96684944D01*
X130936506Y-96684944D01*
G37*
X130936506Y-96684944D02*
X130910258Y-96716366D01*
X130905250Y-96789875D01*
X130909243Y-96863369D01*
X130919060Y-96900056D01*
X130921125Y-96901000D01*
X130932281Y-96873357D01*
X130937000Y-96806775D01*
X130937000Y-96805750D01*
X130946979Y-96736029D01*
X130984109Y-96711482D01*
X131000500Y-96710500D01*
X131052215Y-96730352D01*
X131064000Y-96758125D01*
X131038586Y-96800218D01*
X131016375Y-96805750D01*
X130974124Y-96822894D01*
X130968750Y-96837500D01*
X130995343Y-96863296D01*
X131032250Y-96869250D01*
X131078731Y-96854281D01*
X131095095Y-96798587D01*
X131095750Y-96774000D01*
X131087883Y-96706534D01*
X131050773Y-96681668D01*
X131000500Y-96678750D01*
X130936506Y-96684944D01*
G36*
X128270000Y-97075625D02*
G01*
X128285875Y-97091500D01*
X128301750Y-97075625D01*
X128285875Y-97059750D01*
X128270000Y-97075625D01*
X128270000Y-97075625D01*
G37*
X128270000Y-97075625D02*
X128285875Y-97091500D01*
X128301750Y-97075625D01*
X128285875Y-97059750D01*
X128270000Y-97075625D01*
G36*
X134334250Y-97075625D02*
G01*
X134350125Y-97091500D01*
X134366000Y-97075625D01*
X134350125Y-97059750D01*
X134334250Y-97075625D01*
X134334250Y-97075625D01*
G37*
X134334250Y-97075625D02*
X134350125Y-97091500D01*
X134366000Y-97075625D01*
X134350125Y-97059750D01*
X134334250Y-97075625D01*
D11*
X150087729Y-98029520D02*
X149845520Y-98271729D01*
X149366480Y-97308271D02*
X149124271Y-97550480D01*
D10*
X142692380Y-92035333D02*
X142216190Y-91702000D01*
X142692380Y-91463904D02*
X141692380Y-91463904D01*
X141692380Y-91844857D01*
X141740000Y-91940095D01*
X141787619Y-91987714D01*
X141882857Y-92035333D01*
X142025714Y-92035333D01*
X142120952Y-91987714D01*
X142168571Y-91940095D01*
X142216190Y-91844857D01*
X142216190Y-91463904D01*
X141692380Y-92892476D02*
X141692380Y-92702000D01*
X141740000Y-92606761D01*
X141787619Y-92559142D01*
X141930476Y-92463904D01*
X142120952Y-92416285D01*
X142501904Y-92416285D01*
X142597142Y-92463904D01*
X142644761Y-92511523D01*
X142692380Y-92606761D01*
X142692380Y-92797238D01*
X142644761Y-92892476D01*
X142597142Y-92940095D01*
X142501904Y-92987714D01*
X142263809Y-92987714D01*
X142168571Y-92940095D01*
X142120952Y-92892476D01*
X142073333Y-92797238D01*
X142073333Y-92606761D01*
X142120952Y-92511523D01*
X142168571Y-92463904D01*
X142263809Y-92416285D01*
X144597380Y-92035333D02*
X144121190Y-91702000D01*
X144597380Y-91463904D02*
X143597380Y-91463904D01*
X143597380Y-91844857D01*
X143645000Y-91940095D01*
X143692619Y-91987714D01*
X143787857Y-92035333D01*
X143930714Y-92035333D01*
X144025952Y-91987714D01*
X144073571Y-91940095D01*
X144121190Y-91844857D01*
X144121190Y-91463904D01*
X143597380Y-92940095D02*
X143597380Y-92463904D01*
X144073571Y-92416285D01*
X144025952Y-92463904D01*
X143978333Y-92559142D01*
X143978333Y-92797238D01*
X144025952Y-92892476D01*
X144073571Y-92940095D01*
X144168809Y-92987714D01*
X144406904Y-92987714D01*
X144502142Y-92940095D01*
X144549761Y-92892476D01*
X144597380Y-92797238D01*
X144597380Y-92559142D01*
X144549761Y-92463904D01*
X144502142Y-92416285D01*
X147423142Y-97147142D02*
X147470761Y-97099523D01*
X147518380Y-96956666D01*
X147518380Y-96861428D01*
X147470761Y-96718571D01*
X147375523Y-96623333D01*
X147280285Y-96575714D01*
X147089809Y-96528095D01*
X146946952Y-96528095D01*
X146756476Y-96575714D01*
X146661238Y-96623333D01*
X146566000Y-96718571D01*
X146518380Y-96861428D01*
X146518380Y-96956666D01*
X146566000Y-97099523D01*
X146613619Y-97147142D01*
X147518380Y-98099523D02*
X147518380Y-97528095D01*
X147518380Y-97813809D02*
X146518380Y-97813809D01*
X146661238Y-97718571D01*
X146756476Y-97623333D01*
X146804095Y-97528095D01*
X147518380Y-99051904D02*
X147518380Y-98480476D01*
X147518380Y-98766190D02*
X146518380Y-98766190D01*
X146661238Y-98670952D01*
X146756476Y-98575714D01*
X146804095Y-98480476D01*
M02*
